{
.appVersion = "118";
copyright = "2013 Dimagi, Inc.";
customParameters = (
{
name = glyphOrder;
value = (
.notdef,
uni0000,
uni000D,
space,
uni25FC,
commcare_flower,
qtype_text,
qtype_numeric,
qtype_hidden_value,
qtype_calculation,
qtype_variable,
qtype_single_select,
qtype_multi_select,
qtype_decimal,
qtype_long,
qtyle_datetime,
qtype_audio_capture,
qtype_android_intent,
qtype_signature,
dashboard_apps,
commtrack,
qtype_multi_select_box,
qtype_single_select_circle,
dashboard_reports,
dashboard_data,
dashboard_users,
dashboard_settings,
dashboard_help,
dashboard_exchange,
dashboard_messaging,
qtype_balance,
dashboard_chart,
dashboard_forms,
dashboard_userreport,
dashboard_datatable,
dashboard_pie,
dashboard_survey,
dashboard_casemgt,
dashboard_blankform,
qtype_external_case,
qtype_external_case_data,
fd_expand,
fd_collapse,
fd_case_property,
fd_edit_form,
project_globe,
appbuilder_createform,
appbuilder_updateform,
appbuilder_completeform,
appbuilder_biometrics
);
}
);
date = "2015-06-30 14:28:19 +0000";
designer = "Biyeun Buczyk";
designerURL = "http://biyeun.com";
familyName = "CommCareHQ Font";
fontMaster = (
{
ascender = 1755;
capHeight = 0;
customParameters = (
{
name = typoAscender;
value = 1755;
},
{
name = typoDescender;
value = "-293";
},
{
name = typoLineGap;
value = 0;
},
{
name = underlinePosition;
value = "-260";
},
{
name = underlineThickness;
value = 57;
}
);
descender = -293;
id = "04DF3276-53F3-45FA-B502-39A9AACD583E";
weightValue = 400;
widthValue = 5;
xHeight = 0;
}
);
glyphs = (
{
glyphname = commcare_flower;
lastChange = "2023-10-13 13:43:49 +0000";
layers = (
{
layerId = "04DF3276-53F3-45FA-B502-39A9AACD583E";
paths = (
{
closed = 1;
nodes = (
"1965 1125 OFFCURVE",
"1876 1239 OFFCURVE",
"1751 1310 CURVE",
"1687 1344 OFFCURVE",
"1619 1365 OFFCURVE",
"1549 1372 CURVE",
"1545 1402 OFFCURVE",
"1540 1432 OFFCURVE",
"1532 1461 CURVE",
"1492 1598 OFFCURVE",
"1402 1712 OFFCURVE",
"1277 1781 CURVE",
"1154 1852 OFFCURVE",
"1011 1868 OFFCURVE",
"873 1829 CURVE",
"738 1790 OFFCURVE",
"624 1700 OFFCURVE",
"553 1576 CURVE",
"519 1513 OFFCURVE",
"498 1442 OFFCURVE",
"491 1372 CURVE",
"461 1369 OFFCURVE",
"431 1363 OFFCURVE",
"402 1356 CURVE",
"265 1318 OFFCURVE",
"151 1228 OFFCURVE",
"82 1103 CURVE",
"11 980 OFFCURVE",
"-6 834 OFFCURVE",
"34 700 CURVE",
"73 562 OFFCURVE",
"163 448 OFFCURVE",
"287 379 CURVE",
"350 343 OFFCURVE",
"421 321 OFFCURVE",
"491 313 CURVE",
"494 285 OFFCURVE",
"500 255 OFFCURVE",
"507 225 CURVE",
"545 88 OFFCURVE",
"635 -24 OFFCURVE",
"760 -94 CURVE",
"883 -164 OFFCURVE",
"1028 -180 OFFCURVE",
"1163 -142 CURVE",
"1301 -102 OFFCURVE",
"1415 -13 OFFCURVE",
"1483 112 CURVE",
"1519 176 OFFCURVE",
"1542 244 OFFCURVE",
"1549 314 CURVE",
"1578 317 OFFCURVE",
"1608 322 OFFCURVE",
"1637 331 CURVE",
"1775 371 OFFCURVE",
"1887 461 OFFCURVE",
"1956 585 CURVE",
"2027 709 OFFCURVE",
"2042 851 OFFCURVE",
"2005 990 CURVE"
);
},
{
closed = 1;
nodes = (
"761 1567 OFFCURVE",
"836 1626 OFFCURVE",
"925 1650 CURVE",
"1014 1676 OFFCURVE",
"1107 1665 OFFCURVE",
"1189 1620 CURVE",
"1268 1575 OFFCURVE",
"1328 1502 OFFCURVE",
"1353 1411 CURVE",
"1358 1394 OFFCURVE",
"1361 1376 OFFCURVE",
"1364 1359 CURVE",
"1370 1300 OFFCURVE",
"1363 1237 OFFCURVE",
"1339 1181 CURVE",
"1334 1170 OFFCURVE",
"1329 1159 OFFCURVE",
"1323 1148 CURVE",
"1309 1123 OFFCURVE",
"1283 1081 OFFCURVE",
"1254 1032 CURVE",
"1131 1109 OFFCURVE",
"886 1264 OFFCURVE",
"806 1310 CURVE",
"764 1333 OFFCURVE",
"720 1349 OFFCURVE",
"675 1359 CURVE",
"679 1403 OFFCURVE",
"693 1445 OFFCURVE",
"715 1486 CURVE"
);
},
{
closed = 1;
nodes = (
"1154 768 OFFCURVE",
"1095 708 OFFCURVE",
"1020 708 CURVE",
"944 708 OFFCURVE",
"882 768 OFFCURVE",
"882 843 CURVE",
"882 919 OFFCURVE",
"944 981 OFFCURVE",
"1020 981 CURVE",
"1095 981 OFFCURVE",
"1154 919 OFFCURVE",
"1154 843 CURVE"
);
},
{
closed = 1;
nodes = (
"530 589 OFFCURVE",
"514 544 OFFCURVE",
"504 499 CURVE",
"460 504 OFFCURVE",
"418 518 OFFCURVE",
"377 540 CURVE",
"296 587 OFFCURVE",
"237 659 OFFCURVE",
"213 749 CURVE",
"187 837 OFFCURVE",
"198 932 OFFCURVE",
"242 1013 CURVE",
"288 1094 OFFCURVE",
"361 1153 OFFCURVE",
"452 1179 CURVE",
"469 1184 OFFCURVE",
"486 1187 OFFCURVE",
"504 1188 CURVE",
"563 1196 OFFCURVE",
"626 1187 OFFCURVE",
"682 1164 CURVE",
"693 1159 OFFCURVE",
"704 1154 OFFCURVE",
"715 1148 CURVE",
"740 1133 OFFCURVE",
"782 1109 OFFCURVE",
"831 1078 CURVE",
"753 957 OFFCURVE",
"599 711 OFFCURVE",
"553 629 CURVE"
);
},
{
closed = 1;
nodes = (
"1276 121 OFFCURVE",
"1204 62 OFFCURVE",
"1114 36 CURVE",
"1025 12 OFFCURVE",
"931 22 OFFCURVE",
"850 67 CURVE",
"768 113 OFFCURVE",
"710 186 OFFCURVE",
"684 276 CURVE",
"679 292 OFFCURVE",
"676 309 OFFCURVE",
"675 327 CURVE",
"667 389 OFFCURVE",
"676 450 OFFCURVE",
"699 507 CURVE",
"704 518 OFFCURVE",
"709 529 OFFCURVE",
"715 540 CURVE",
"730 565 OFFCURVE",
"754 606 OFFCURVE",
"784 655 CURVE",
"906 579 OFFCURVE",
"1151 423 OFFCURVE",
"1233 379 CURVE",
"1273 356 OFFCURVE",
"1318 338 OFFCURVE",
"1364 327 CURVE",
"1358 284 OFFCURVE",
"1344 241 OFFCURVE",
"1322 201 CURVE"
);
},
{
closed = 1;
nodes = (
"1750 594 OFFCURVE",
"1676 535 OFFCURVE",
"1587 509 CURVE SMOOTH",
"1570 504 OFFCURVE",
"1553 501 OFFCURVE",
"1536 499 CURVE SMOOTH",
"1473 492 OFFCURVE",
"1413 500 OFFCURVE",
"1356 524 CURVE SMOOTH",
"1344 529 OFFCURVE",
"1333 534 OFFCURVE",
"1323 540 CURVE SMOOTH",
"1298 554 OFFCURVE",
"1257 580 OFFCURVE",
"1207 609 CURVE",
"1283 732 OFFCURVE",
"1439 977 OFFCURVE",
"1483 1058 CURVE SMOOTH",
"1507 1099 OFFCURVE",
"1525 1143 OFFCURVE",
"1536 1188 CURVE",
"1579 1184 OFFCURVE",
"1622 1170 OFFCURVE",
"1661 1148 CURVE SMOOTH",
"1742 1102 OFFCURVE",
"1801 1027 OFFCURVE",
"1826 938 CURVE SMOOTH",
"1850 848 OFFCURVE",
"1840 755 OFFCURVE",
"1795 674 CURVE SMOOTH"
);
}
);
width = 2042;
}
);
unicode = F000;
},
{
glyphname = qtype_text;
layers = (
{
layerId = "04DF3276-53F3-45FA-B502-39A9AACD583E";
paths = (
{
closed = 1;
nodes = (
"696 467 LINE SMOOTH",
"696 444 OFFCURVE",
"694 420 OFFCURVE",
"691 397 CURVE",
"683 356 OFFCURVE",
"674 329 OFFCURVE",
"665 314 CURVE SMOOTH",
"662 309 OFFCURVE",
"659 305 OFFCURVE",
"655 301 CURVE",
"652 297 OFFCURVE",
"644 287 OFFCURVE",
"641 285 CURVE",
"640 284 OFFCURVE",
"638 281 OFFCURVE",
"635 278 CURVE",
"630 271 OFFCURVE",
"629 270 OFFCURVE",
"623 266 CURVE",
"617 261 OFFCURVE",
"613 258 OFFCURVE",
"606 254 CURVE",
"599 249 OFFCURVE",
"591 244 OFFCURVE",
"582 239 CURVE SMOOTH",
"555 224 OFFCURVE",
"519 206 OFFCURVE",
"472 184 CURVE",
"339 143 LINE",
"339 -117 LINE",
"1718 -117 LINE",
"1718 143 LINE",
"1576 184 LINE",
"1513 213 OFFCURVE",
"1470 235 OFFCURVE",
"1449 248 CURVE SMOOTH",
"1409 273 OFFCURVE",
"1398 287 OFFCURVE",
"1375 328 CURVE SMOOTH",
"1359 357 OFFCURVE",
"1351 403 OFFCURVE",
"1351 467 CURVE SMOOTH",
"1351 1368 LINE SMOOTH",
"1351 1408 OFFCURVE",
"1355 1471 OFFCURVE",
"1363 1557 CURVE",
"1539 1557 LINE",
"1596 1553 OFFCURVE",
"1635 1522 OFFCURVE",
"1650 1503 CURVE SMOOTH",
"1709 1426 OFFCURVE",
"1749 1346 OFFCURVE",
"1797 1237 CURVE",
"1822 1168 LINE",
"2047 1168 LINE",
"2047 1931 LINE",
"0 1931 LINE",
"0 1168 LINE",
"243 1168 LINE",
"266 1237 LINE",
"347 1408 OFFCURVE",
"382 1465 OFFCURVE",
"403 1489 CURVE",
"407 1493 OFFCURVE",
"412 1499 OFFCURVE",
"418 1506 CURVE",
"423 1513 OFFCURVE",
"427 1517 OFFCURVE",
"428 1518 CURVE",
"444 1538 OFFCURVE",
"484 1557 OFFCURVE",
"533 1557 CURVE SMOOTH",
"690 1557 LINE",
"694 1457 OFFCURVE",
"696 1394 OFFCURVE",
"696 1368 CURVE SMOOTH"
);
}
);
width = 2046;
}
);
unicode = F001;
},
{
glyphname = qtype_numeric;
layers = (
{
layerId = "04DF3276-53F3-45FA-B502-39A9AACD583E";
paths = (
{
closed = 1;
nodes = (
"229 342 LINE",
"229 -117 LINE",
"1467 -117 LINE",
"1467 342 LINE",
"1138 342 LINE",
"1138 1931 LINE",
"726 1931 LINE",
"584 1797 OFFCURVE",
"418 1692 OFFCURVE",
"229 1615 CURVE",
"229 1199 LINE",
"346 1199 OFFCURVE",
"380 1206 OFFCURVE",
"447 1242 CURVE SMOOTH",
"547 1299 LINE SMOOTH",
"590 1323 OFFCURVE",
"629 1346 OFFCURVE",
"662 1367 CURVE",
"662 342 LINE"
);
}
);
width = 1696;
}
);
unicode = F002;
},
{
glyphname = qtype_hidden_value;
layers = (
{
layerId = "04DF3276-53F3-45FA-B502-39A9AACD583E";
paths = (
{
closed = 1;
nodes = (
"0 753 LINE",
"0 975.999 LINE",
"1182 1770 LINE",
"1182 1225 LINE SMOOTH",
"1182 1192 OFFCURVE",
"1169 1144 OFFCURVE",
"1152 1121 CURVE",
"1145 1100 OFFCURVE",
"1122 1080 OFFCURVE",
"1083 1061 CURVE",
"889 938 LINE",
"851 918 OFFCURVE",
"817 905 OFFCURVE",
"787 898 CURVE",
"717 878 OFFCURVE",
"679 867 OFFCURVE",
"672 866 CURVE",
"681 864 OFFCURVE",
"700 858 OFFCURVE",
"729 849 CURVE",
"748 842 OFFCURVE",
"767 837 OFFCURVE",
"787 832 CURVE",
"832 819 OFFCURVE",
"866 805 OFFCURVE",
"889 789 CURVE",
"1083 643 LINE",
"1122 624 OFFCURVE",
"1145 602 OFFCURVE",
"1152 577 CURVE",
"1172 554 OFFCURVE",
"1182 530 OFFCURVE",
"1182 505 CURVE SMOOTH",
"1182 -34 LINE"
);
},
{
closed = 1;
nodes = (
"2752 975.999 LINE",
"2752 753 LINE",
"1577 -34 LINE",
"1577 505 LINE SMOOTH",
"1577 558 OFFCURVE",
"1615 614 OFFCURVE",
"1670 643 CURVE",
"1866 789 LINE SMOOTH",
"1889 805 OFFCURVE",
"1923 819 OFFCURVE",
"1968 832 CURVE SMOOTH",
"1987 837 OFFCURVE",
"2006 842 OFFCURVE",
"2026 849 CURVE SMOOTH",
"2058 859 OFFCURVE",
"2077 865 OFFCURVE",
"2083 866 CURVE",
"2051 873 OFFCURVE",
"2013 883 OFFCURVE",
"1968 898 CURVE",
"1938 905 OFFCURVE",
"1904 918 OFFCURVE",
"1866 938 CURVE",
"1670 1061 LINE",
"1643 1076 OFFCURVE",
"1619 1096 OFFCURVE",
"1600 1121 CURVE",
"1585 1144 OFFCURVE",
"1577 1179 OFFCURVE",
"1577 1225 CURVE SMOOTH",
"1577 1770 LINE"
);
}
);
width = 2752;
}
);
unicode = F003;
},
{
glyphname = qtype_calculation;
layers = (
{
layerId = "04DF3276-53F3-45FA-B502-39A9AACD583E";
paths = (
{
closed = 1;
nodes = (
"1290 1291 LINE",
"1619 1291 LINE",
"1619 821 LINE",
"1624 821 LINE",
"1660 914 OFFCURVE",
"1764 977.999 OFFCURVE",
"1873 977.999 CURVE SMOOTH",
"2097 977.999 OFFCURVE",
"2232 824 OFFCURVE",
"2232 568 CURVE SMOOTH",
"2232 340 OFFCURVE",
"2084 168 OFFCURVE",
"1869 168 CURVE SMOOTH",
"1746 168 OFFCURVE",
"1663 221 OFFCURVE",
"1619 327 CURVE",
"1616 327 LINE",
"1616 191 LINE",
"1290 191 LINE",
"1290 201 LINE",
"1339 222 LINE SMOOTH",
"1361 231 OFFCURVE",
"1377 238 OFFCURVE",
"1387 245 CURVE SMOOTH",
"1431 274 OFFCURVE",
"1427 363 OFFCURVE",
"1427 440 CURVE SMOOTH",
"1427 1070 LINE SMOOTH",
"1427 1121 OFFCURVE",
"1425 1158 OFFCURVE",
"1420 1179 CURVE",
"1411 1224 OFFCURVE",
"1394 1242 OFFCURVE",
"1339 1263 CURVE SMOOTH",
"1290 1281 LINE"
);
},
{
closed = 1;
nodes = (
"490 653 LINE",
"490 774 LINE SMOOTH",
"490 859 OFFCURVE",
"441 911 OFFCURVE",
"362 911 CURVE SMOOTH",
"262 911 OFFCURVE",
"233 838 OFFCURVE",
"233 798 CURVE SMOOTH",
"233 777 OFFCURVE",
"237 757 OFFCURVE",
"246 737 CURVE",
"50 737 LINE",
"50 818 OFFCURVE",
"78 876 OFFCURVE",
"116 911 CURVE SMOOTH",
"135 928 OFFCURVE",
"159 942 OFFCURVE",
"190 953 CURVE SMOOTH",
"239 969.999 OFFCURVE",
"301 977.999 OFFCURVE",
"375 977.999 CURVE SMOOTH",
"406 977.999 OFFCURVE",
"435 975.999 OFFCURVE",
"462 971.999 CURVE SMOOTH",
"590 953 OFFCURVE",
"683 889 OFFCURVE",
"683 752 CURVE SMOOTH",
"683 362 LINE SMOOTH",
"683 296 OFFCURVE",
"703 263 OFFCURVE",
"743 263 CURVE SMOOTH",
"766 263 OFFCURVE",
"792 283 OFFCURVE",
"807 304 CURVE",
"819 299 LINE",
"786 212 OFFCURVE",
"724 168 OFFCURVE",
"633 168 CURVE SMOOTH",
"558 168 OFFCURVE",
"510 223 OFFCURVE",
"498 304 CURVE",
"445 221 OFFCURVE",
"346 168 OFFCURVE",
"246 168 CURVE SMOOTH",
"98 168 OFFCURVE",
"0 248 OFFCURVE",
"0 384 CURVE SMOOTH",
"0 505 OFFCURVE",
"81 580 OFFCURVE",
"243 608 CURVE SMOOTH"
);
},
{
closed = 1;
nodes = (
"983.999 969.999 LINE",
"1105 969.999 LINE",
"1105 751 LINE",
"1313 751 LINE",
"1313 630 LINE",
"1105 630 LINE",
"1105 399 LINE",
"983.999 399 LINE",
"983.999 630 LINE",
"775 630 LINE",
"775 751 LINE",
"983.999 751 LINE"
);
},
{
closed = 1;
nodes = (
"1938 272 OFFCURVE",
"2009 386 OFFCURVE",
"2009 566 CURVE SMOOTH",
"2009 771 OFFCURVE",
"1940 874 OFFCURVE",
"1813 874 CURVE SMOOTH",
"1689 874 OFFCURVE",
"1615 762 OFFCURVE",
"1615 566 CURVE SMOOTH",
"1615 374 OFFCURVE",
"1682 272 OFFCURVE",
"1813 272 CURVE SMOOTH"
);
},
{
closed = 1;
nodes = (
"490 585 LINE",
"339 559 LINE SMOOTH",
"251 544 OFFCURVE",
"205 484 OFFCURVE",
"205 405 CURVE SMOOTH",
"205 325 OFFCURVE",
"255 272 OFFCURVE",
"331 272 CURVE SMOOTH",
"415 272 OFFCURVE",
"490 338 OFFCURVE",
"490 441 CURVE SMOOTH"
);
}
);
width = 2232;
}
);
unicode = F004;
},
{
glyphname = qtype_variable;
layers = (
{
layerId = "04DF3276-53F3-45FA-B502-39A9AACD583E";
paths = (
{
closed = 1;
nodes = (
"0 1529 OFFCURVE",
"55 1708 OFFCURVE",
"200 1832 CURVE SMOOTH",
"274 1898 OFFCURVE",
"362 1931 OFFCURVE",
"465 1931 CURVE SMOOTH",
"506 1931 OFFCURVE",
"542 1922 OFFCURVE",
"574 1904 CURVE",
"622 1882 OFFCURVE",
"670 1819 OFFCURVE",
"717 1714 CURVE",
"723 1705 OFFCURVE",
"743 1663 OFFCURVE",
"777 1587 CURVE SMOOTH",
"798 1541 OFFCURVE",
"817 1505 OFFCURVE",
"832 1479 CURVE",
"861 1418 OFFCURVE",
"918 1302 OFFCURVE",
"1003 1131 CURVE",
"1008 1138 OFFCURVE",
"1025 1165 OFFCURVE",
"1054 1212 CURVE SMOOTH",
"1085 1262 OFFCURVE",
"1116 1311 OFFCURVE",
"1148 1360 CURVE SMOOTH",
"1243 1508 OFFCURVE",
"1358 1675 OFFCURVE",
"1491 1862 CURVE",
"1521 1897 OFFCURVE",
"1562 1915 OFFCURVE",
"1613 1915 CURVE SMOOTH",
"1778 1915 LINE SMOOTH",
"1869 1915 OFFCURVE",
"1915 1901 OFFCURVE",
"1915 1872 CURVE SMOOTH",
"1915 1855 OFFCURVE",
"1901 1831 OFFCURVE",
"1872 1798 CURVE",
"1245 915 LINE SMOOTH",
"1192 838 OFFCURVE",
"1159 796 OFFCURVE",
"1147 789 CURVE",
"1248 596 LINE",
"1288 520 LINE SMOOTH",
"1303 489 OFFCURVE",
"1313 469 OFFCURVE",
"1318 460 CURVE SMOOTH",
"1339 422 LINE",
"1340 419 OFFCURVE",
"1341 417 OFFCURVE",
"1341 416 CURVE",
"1413 332 OFFCURVE",
"1516 290 OFFCURVE",
"1651 290 CURVE SMOOTH",
"1720 290 OFFCURVE",
"1775 306 OFFCURVE",
"1817 338 CURVE",
"1859 367 OFFCURVE",
"1886 404 OFFCURVE",
"1897 449 CURVE SMOOTH",
"1905 486 OFFCURVE",
"1916 508 OFFCURVE",
"1935 517 CURVE SMOOTH",
"1954 526 OFFCURVE",
"1964 527 OFFCURVE",
"1989 527 CURVE SMOOTH",
"2053 527 OFFCURVE",
"2085 504 OFFCURVE",
"2085 457 CURVE SMOOTH",
"2085 317 OFFCURVE",
"2045 187 OFFCURVE",
"1965 66 CURVE SMOOTH",
"1888 -56 OFFCURVE",
"1774 -117 OFFCURVE",
"1621 -117 CURVE SMOOTH",
"1522 -117 OFFCURVE",
"1443 -82 OFFCURVE",
"1379 -1 CURVE SMOOTH",
"1324 71 OFFCURVE",
"1312 96 OFFCURVE",
"1259 233 CURVE SMOOTH",
"1234 298 OFFCURVE",
"1219 335 OFFCURVE",
"1214 344 CURVE",
"1193 390 OFFCURVE",
"1148 499 OFFCURVE",
"1081 670 CURVE",
"1066 649 OFFCURVE",
"1055 634 OFFCURVE",
"1048 623 CURVE",
"1027 593 LINE",
"1003 564 OFFCURVE",
"949 489 OFFCURVE",
"865 368 CURVE SMOOTH",
"800 275 OFFCURVE",
"701 136 OFFCURVE",
"570 -48 CURVE",
"543 -83 OFFCURVE",
"507 -101 OFFCURVE",
"463 -101 CURVE SMOOTH",
"304 -101 LINE SMOOTH",
"215 -101 OFFCURVE",
"170 -87 OFFCURVE",
"170 -58 CURVE SMOOTH",
"170 -42 OFFCURVE",
"177 -17 OFFCURVE",
"191 18 CURVE",
"817 867 LINE",
"861 933 OFFCURVE",
"890 972.999 OFFCURVE",
"903 986.999 CURVE",
"717 1355 LINE SMOOTH",
"704 1380 OFFCURVE",
"696 1395 OFFCURVE",
"693 1398 CURVE",
"628 1481 OFFCURVE",
"533 1523 OFFCURVE",
"408 1523 CURVE SMOOTH",
"346 1523 OFFCURVE",
"297 1508 OFFCURVE",
"261 1478 CURVE SMOOTH",
"224 1449 OFFCURVE",
"200 1411 OFFCURVE",
"189 1365 CURVE SMOOTH",
"181 1328 OFFCURVE",
"167 1304 OFFCURVE",
"146 1293 CURVE",
"121 1290 OFFCURVE",
"104 1288 OFFCURVE",
"96 1288 CURVE SMOOTH",
"93 1288 LINE SMOOTH",
"31 1288 OFFCURVE",
"0 1312 OFFCURVE",
"0 1360 CURVE SMOOTH"
);
}
);
width = 2084;
}
);
unicode = F005;
},
{
glyphname = qtype_single_select;
layers = (
{
layerId = "04DF3276-53F3-45FA-B502-39A9AACD583E";
paths = (
{
closed = 1;
nodes = (
"183 1777 OFFCURVE",
"0 1594 OFFCURVE",
"0 1370 CURVE SMOOTH",
"0 1146 OFFCURVE",
"182 963 OFFCURVE",
"406 963 CURVE SMOOTH",
"630 963 OFFCURVE",
"811 1145 OFFCURVE",
"811 1370 CURVE SMOOTH",
"811 1594 OFFCURVE",
"630 1777 OFFCURVE",
"406 1777 CURVE SMOOTH"
);
},
{
closed = 1;
nodes = (
"2461 1413 LINE SMOOTH",
"2461 1525 OFFCURVE",
"2369 1616 OFFCURVE",
"2257 1616 CURVE SMOOTH",
"1290 1616 LINE SMOOTH",
"1178 1616 OFFCURVE",
"1087 1525 OFFCURVE",
"1087 1413 CURVE SMOOTH",
"1087 1325 LINE SMOOTH",
"1087 1213 OFFCURVE",
"1178 1122 OFFCURVE",
"1290 1122 CURVE SMOOTH",
"2257 1122 LINE SMOOTH",
"2369 1122 OFFCURVE",
"2461 1213 OFFCURVE",
"2461 1325 CURVE SMOOTH"
);
},
{
closed = 1;
nodes = (
"582 1469 OFFCURVE",
"601 1423 OFFCURVE",
"601 1370 CURVE SMOOTH",
"601 1262 OFFCURVE",
"514 1174 OFFCURVE",
"406 1174 CURVE SMOOTH",
"297 1174 OFFCURVE",
"209 1263 OFFCURVE",
"209 1370 CURVE SMOOTH",
"209 1477 OFFCURVE",
"297 1562 OFFCURVE",
"406 1562 CURVE SMOOTH",
"460 1562 OFFCURVE",
"506 1543 OFFCURVE",
"545 1506 CURVE SMOOTH"
);
},
{
closed = 1;
nodes = (
"183 651 OFFCURVE",
"0 469 OFFCURVE",
"0 245 CURVE SMOOTH",
"0 96 OFFCURVE",
"78 -35 OFFCURVE",
"203 -107 CURVE SMOOTH",
"265 -144 OFFCURVE",
"333 -162 OFFCURVE",
"406 -162 CURVE SMOOTH",
"630 -162 OFFCURVE",
"811 20 OFFCURVE",
"811 245 CURVE SMOOTH",
"811 469 OFFCURVE",
"630 651 OFFCURVE",
"406 651 CURVE SMOOTH"
);
},
{
closed = 1;
nodes = (
"2461 289 LINE SMOOTH",
"2461 400 OFFCURVE",
"2369 491 OFFCURVE",
"2257 491 CURVE SMOOTH",
"1290 491 LINE SMOOTH",
"1178 491 OFFCURVE",
"1087 400 OFFCURVE",
"1087 289 CURVE SMOOTH",
"1087 198 LINE SMOOTH",
"1087 86 OFFCURVE",
"1178 -3 OFFCURVE",
"1290 -3 CURVE SMOOTH",
"2257 -3 LINE SMOOTH",
"2369 -3 OFFCURVE",
"2461 86 OFFCURVE",
"2461 198 CURVE SMOOTH"
);
}
);
width = 2460;
}
);
unicode = F006;
},
{
glyphname = qtype_multi_select;
layers = (
{
layerId = "04DF3276-53F3-45FA-B502-39A9AACD583E";
paths = (
{
closed = 1;
nodes = (
"201 1774 LINE SMOOTH",
"90 1774 OFFCURVE",
"0 1682 OFFCURVE",
"0 1570 CURVE SMOOTH",
"0 1167 LINE SMOOTH",
"0 1055 OFFCURVE",
"90 965 OFFCURVE",
"201 965 CURVE SMOOTH",
"613 965 LINE SMOOTH",
"726 965 OFFCURVE",
"816 1055 OFFCURVE",
"816 1167 CURVE SMOOTH",
"816 1570 LINE SMOOTH",
"816 1682 OFFCURVE",
"725 1774 OFFCURVE",
"613 1774 CURVE SMOOTH"
);
},
{
closed = 1;
nodes = (
"2459 1413 LINE SMOOTH",
"2459 1525 OFFCURVE",
"2368 1616 OFFCURVE",
"2256 1616 CURVE SMOOTH",
"1289 1616 LINE SMOOTH",
"1177 1616 OFFCURVE",
"1086 1525 OFFCURVE",
"1086 1413 CURVE SMOOTH",
"1086 1325 LINE SMOOTH",
"1086 1213 OFFCURVE",
"1177 1122 OFFCURVE",
"1289 1122 CURVE SMOOTH",
"2256 1122 LINE SMOOTH",
"2368 1122 OFFCURVE",
"2459 1213 OFFCURVE",
"2459 1325 CURVE SMOOTH"
);
},
{
closed = 1;
nodes = (
"606 1561 LINE",
"606 1176 LINE",
"210 1176 LINE",
"210 1561 LINE"
);
},
{
closed = 1;
nodes = (
"201 649 LINE SMOOTH",
"90 649 OFFCURVE",
"0 558 OFFCURVE",
"0 447 CURVE SMOOTH",
"0 40 LINE SMOOTH",
"0 -72 OFFCURVE",
"90 -161 OFFCURVE",
"201 -161 CURVE SMOOTH",
"613 -161 LINE SMOOTH",
"726 -161 OFFCURVE",
"816 -72 OFFCURVE",
"816 40 CURVE SMOOTH",
"816 447 LINE SMOOTH",
"816 558 OFFCURVE",
"726 649 OFFCURVE",
"613 649 CURVE SMOOTH"
);
},
{
closed = 1;
nodes = (
"2459 289 LINE SMOOTH",
"2459 400 OFFCURVE",
"2368 491 OFFCURVE",
"2256 491 CURVE SMOOTH",
"1289 491 LINE SMOOTH",
"1177 491 OFFCURVE",
"1086 400 OFFCURVE",
"1086 289 CURVE SMOOTH",
"1086 198 LINE SMOOTH",
"1086 86 OFFCURVE",
"1177 -3 OFFCURVE",
"1289 -3 CURVE SMOOTH",
"2256 -3 LINE SMOOTH",
"2368 -3 OFFCURVE",
"2459 86 OFFCURVE",
"2459 198 CURVE SMOOTH"
);
},
{
closed = 1;
nodes = (
"606 439 LINE",
"606 49 LINE",
"210 49 LINE",
"210 439 LINE"
);
}
);
width = 2459;
}
);
unicode = F007;
},
{
glyphname = qtype_decimal;
layers = (
{
layerId = "04DF3276-53F3-45FA-B502-39A9AACD583E";
paths = (
{
closed = 1;
nodes = (
"651 952 OFFCURVE",
"661 1067 OFFCURVE",
"680 1198 CURVE",
"703 1319 OFFCURVE",
"738 1423 OFFCURVE",
"787 1510 CURVE SMOOTH",
"910 1723 OFFCURVE",
"1096 1829 OFFCURVE",
"1347 1829 CURVE SMOOTH",
"1492 1829 OFFCURVE",
"1608 1799 OFFCURVE",
"1697 1739 CURVE",
"1790 1681 OFFCURVE",
"1861 1605 OFFCURVE",
"1910 1510 CURVE",
"1966 1415 OFFCURVE",
"2002 1311 OFFCURVE",
"2019 1198 CURVE SMOOTH",
"2042 1071 OFFCURVE",
"2053 956 OFFCURVE",
"2053 854 CURVE SMOOTH",
"2053 747 OFFCURVE",
"2042 634 OFFCURVE",
"2019 514 CURVE",
"2003 401 OFFCURVE",
"1967 297 OFFCURVE",
"1910 201 CURVE",
"1807 5 OFFCURVE",
"1622 -118 OFFCURVE",
"1347 -118 CURVE SMOOTH",
"1210 -118 OFFCURVE",
"1095 -89 OFFCURVE",
"1002 -31 CURVE",
"913 31 OFFCURVE",
"841 108 OFFCURVE",
"787 201 CURVE",
"724 320 OFFCURVE",
"688 424 OFFCURVE",
"680 514 CURVE SMOOTH",
"679 524 OFFCURVE",
"676 560 OFFCURVE",
"669 621 CURVE SMOOTH",
"657 714 OFFCURVE",
"651 791 OFFCURVE",
"651 854 CURVE SMOOTH"
);
},
{
closed = 1;
nodes = (
"1048 829 OFFCURVE",
"1050 769 OFFCURVE",
"1054 674 CURVE",
"1059 613 OFFCURVE",
"1071 546 OFFCURVE",
"1090 475 CURVE SMOOTH",
"1135 324 OFFCURVE",
"1221 249 OFFCURVE",
"1347 249 CURVE SMOOTH",
"1478 249 OFFCURVE",
"1566 324 OFFCURVE",
"1611 475 CURVE SMOOTH",
"1639 578 OFFCURVE",
"1653 705 OFFCURVE",
"1653 854 CURVE SMOOTH",
"1653 1006 OFFCURVE",
"1639 1133 OFFCURVE",
"1611 1235 CURVE SMOOTH",
"1566 1387 OFFCURVE",
"1478 1463 OFFCURVE",
"1347 1463 CURVE SMOOTH",
"1272 1463 OFFCURVE",
"1215 1441 OFFCURVE",
"1178 1397 CURVE SMOOTH",
"1106 1314 OFFCURVE",
"1065 1192 OFFCURVE",
"1054 1030 CURVE SMOOTH",
"1050 941 OFFCURVE",
"1048 882 OFFCURVE",
"1048 854 CURVE SMOOTH"
);
},
{
closed = 1;
nodes = (
"0 172 OFFCURVE",
"6 204 OFFCURVE",
"18 238 CURVE",
"54 306 OFFCURVE",
"89 339 OFFCURVE",
"150 367 CURVE",
"173 379 OFFCURVE",
"204 385 OFFCURVE",
"245 385 CURVE SMOOTH",
"312 385 OFFCURVE",
"370 361 OFFCURVE",
"417 314 CURVE",
"441 293 OFFCURVE",
"458 268 OFFCURVE",
"469 238 CURVE",
"482 210 OFFCURVE",
"489 178 OFFCURVE",
"489 142 CURVE SMOOTH",
"489 106 OFFCURVE",
"482 74 OFFCURVE",
"469 46 CURVE",
"448 -13 OFFCURVE",
"404 -55 OFFCURVE",
"340 -82 CURVE SMOOTH",
"307 -96 OFFCURVE",
"276 -103 OFFCURVE",
"245 -103 CURVE SMOOTH",
"178 -103 OFFCURVE",
"111 -72 OFFCURVE",
"70 -33 CURVE",
"55 -16 OFFCURVE",
"37 10 OFFCURVE",
"18 46 CURVE",
"6 79 OFFCURVE",
"0 111 OFFCURVE",
"0 142 CURVE SMOOTH"
);
}
);
width = 2052;
}
);
unicode = F008;
},
{
glyphname = qtype_long;
layers = (
{
layerId = "04DF3276-53F3-45FA-B502-39A9AACD583E";
paths = (
{
closed = 1;
nodes = (
"417 1623 LINE",
"157 1393 LINE",
"0 1574 LINE",
"424 1931 LINE",
"682 1931 LINE",
"682 631 LINE",
"417 631 LINE"
);
},
{
closed = 1;
nodes = (
"1826 277 LINE",
"918 277 LINE",
"918 569 LINE",
"1423 1023 LINE SMOOTH",
"1464 1060 OFFCURVE",
"1475 1071 OFFCURVE",
"1503 1104 CURVE SMOOTH",
"1530 1136 OFFCURVE",
"1539 1168 OFFCURVE",
"1539 1205 CURVE SMOOTH",
"1539 1248 OFFCURVE",
"1523 1282 OFFCURVE",
"1491 1307 CURVE SMOOTH",
"1460 1333 OFFCURVE",
"1422 1346 OFFCURVE",
"1379 1346 CURVE SMOOTH",
"1274 1346 OFFCURVE",
"1217 1272 OFFCURVE",
"1210 1181 CURVE",
"935 1201 LINE",
"938 1266 OFFCURVE",
"952 1325 OFFCURVE",
"975.999 1376 CURVE",
"1028 1477 OFFCURVE",
"1108 1543 OFFCURVE",
"1217 1574 CURVE SMOOTH",
"1273 1591 OFFCURVE",
"1332 1600 OFFCURVE",
"1394 1600 CURVE SMOOTH",
"1451 1600 OFFCURVE",
"1506 1591 OFFCURVE",
"1559 1574 CURVE SMOOTH",
"1659 1545 OFFCURVE",
"1740 1480 OFFCURVE",
"1783 1379 CURVE SMOOTH",
"1804 1328 OFFCURVE",
"1815 1271 OFFCURVE",
"1815 1208 CURVE SMOOTH",
"1815 1121 OFFCURVE",
"1790 1046 OFFCURVE",
"1770 1009 CURVE SMOOTH",
"1760 989.999 OFFCURVE",
"1741 963 OFFCURVE",
"1712 927 CURVE",
"1697 910 OFFCURVE",
"1674 887 OFFCURVE",
"1643 859 CURVE SMOOTH",
"1249 519 LINE",
"1826 519 LINE"
);
},
{
closed = 1;
nodes = (
"2334 342 LINE",
"2270 342 LINE",
"2270 581 LINE",
"2360 581 LINE SMOOTH",
"2424 581 OFFCURVE",
"2455 586 OFFCURVE",
"2503 607 CURVE SMOOTH",
"2547 627 OFFCURVE",
"2569 667 OFFCURVE",
"2569 726 CURVE SMOOTH",
"2569 803 OFFCURVE",
"2498 862 OFFCURVE",
"2407 862 CURVE SMOOTH",
"2324 862 OFFCURVE",
"2263 809 OFFCURVE",
"2246 741 CURVE",
"1943 802 LINE",
"1957 859 OFFCURVE",
"1979 907 OFFCURVE",
"2009 946 CURVE SMOOTH",
"2066 1024 OFFCURVE",
"2146 1074 OFFCURVE",
"2249 1097 CURVE",
"2295 1109 OFFCURVE",
"2347 1115 OFFCURVE",
"2406 1115 CURVE SMOOTH",
"2467 1115 OFFCURVE",
"2522 1108 OFFCURVE",
"2573 1093 CURVE",
"2626 1080 OFFCURVE",
"2673 1057 OFFCURVE",
"2712 1026 CURVE",
"2801 963 OFFCURVE",
"2845 872 OFFCURVE",
"2845 753 CURVE SMOOTH",
"2845 682 OFFCURVE",
"2826 620 OFFCURVE",
"2787 567 CURVE SMOOTH",
"2748 516 OFFCURVE",
"2693 483 OFFCURVE",
"2622 469 CURVE",
"2622 463 LINE",
"2697 451 OFFCURVE",
"2757 417 OFFCURVE",
"2802 360 CURVE",
"2845 301 OFFCURVE",
"2866 234 OFFCURVE",
"2866 160 CURVE SMOOTH",
"2866 97 OFFCURVE",
"2854 40 OFFCURVE",
"2831 -11 CURVE",
"2804 -62 OFFCURVE",
"2770 -103 OFFCURVE",
"2729 -134 CURVE SMOOTH",
"2646 -198 OFFCURVE",
"2535 -230 OFFCURVE",
"2398 -230 CURVE SMOOTH",
"2280 -230 OFFCURVE",
"2180 -203 OFFCURVE",
"2098 -149 CURVE SMOOTH",
"2013 -96 OFFCURVE",
"1958 -11 OFFCURVE",
"1931 106 CURVE",
"2222 175 LINE",
"2231 127 OFFCURVE",
"2251 90 OFFCURVE",
"2282 64 CURVE",
"2311 37 OFFCURVE",
"2355 24 OFFCURVE",
"2415 24 CURVE SMOOTH",
"2534 24 OFFCURVE",
"2591 88 OFFCURVE",
"2591 191 CURVE SMOOTH",
"2591 226 OFFCURVE",
"2584 254 OFFCURVE",
"2569 275 CURVE",
"2537 315 OFFCURVE",
"2489 336 OFFCURVE",
"2426 337 CURVE"
);
}
);
width = 3094;
}
);
unicode = F009;
},
{
glyphname = qtyle_datetime;
layers = (
{
layerId = "04DF3276-53F3-45FA-B502-39A9AACD583E";
paths = (
{
closed = 1;
nodes = (
"773 215 LINE",
"522 215 LINE",
"522 528 LINE",
"706 528 LINE",
"713 494 LINE",
"710 544 OFFCURVE",
"709 592 OFFCURVE",
"711 637 CURVE",
"706 598 LINE",
"522 598 LINE",
"522 945 LINE",
"792 945 LINE",
"803 967 OFFCURVE",
"816 989.999 OFFCURVE",
"831 1015 CURVE",
"522 1015 LINE",
"522 1328 LINE",
"870 1328 LINE",
"870 1073 LINE",
"901 1113 OFFCURVE",
"930 1148 OFFCURVE",
"958 1177 CURVE",
"939 1159 LINE",
"939 1328 LINE",
"1142 1328 LINE",
"1175 1348 OFFCURVE",
"1201 1363 OFFCURVE",
"1222 1372 CURVE SMOOTH",
"1329 1421 OFFCURVE",
"1464 1451 OFFCURVE",
"1560 1455 CURVE SMOOTH",
"1639 1458 OFFCURVE",
"1744 1448 OFFCURVE",
"1777 1440 CURVE SMOOTH",
"1810 1432 LINE",
"1810 1607 LINE SMOOTH",
"1810 1684 OFFCURVE",
"1748 1746 OFFCURVE",
"1671 1746 CURVE SMOOTH",
"1531 1746 LINE",
"1531 1850 LINE SMOOTH",
"1531 1946 OFFCURVE",
"1454 2025 OFFCURVE",
"1358 2025 CURVE SMOOTH",
"1288 2025 LINE SMOOTH",
"1192 2025 OFFCURVE",
"1114 1946 OFFCURVE",
"1114 1850 CURVE SMOOTH",
"1114 1746 LINE",
"696 1746 LINE",
"696 1850 LINE SMOOTH",
"696 1946 OFFCURVE",
"617 2025 OFFCURVE",
"522 2025 CURVE SMOOTH",
"453 2025 LINE SMOOTH",
"357 2025 OFFCURVE",
"278 1946 OFFCURVE",
"278 1850 CURVE SMOOTH",
"278 1746 LINE",
"139 1746 LINE SMOOTH",
"62 1746 OFFCURVE",
"0 1684 OFFCURVE",
"0 1607 CURVE SMOOTH",
"0 215 LINE SMOOTH",
"0 138 OFFCURVE",
"62 75 OFFCURVE",
"139 75 CURVE SMOOTH",
"843 75 LINE",
"826 105 LINE SMOOTH",
"807 138 OFFCURVE",
"787 187 OFFCURVE",
"765 252 CURVE"
);
},
{
closed = 1;
nodes = (
"417 1850 LINE SMOOTH",
"417 1869 OFFCURVE",
"434 1886 OFFCURVE",
"453 1886 CURVE SMOOTH",
"522 1886 LINE SMOOTH",
"541 1886 OFFCURVE",
"557 1869 OFFCURVE",
"557 1850 CURVE SMOOTH",
"557 1537 LINE SMOOTH",
"557 1520 OFFCURVE",
"541 1503 OFFCURVE",
"522 1503 CURVE SMOOTH",
"453 1503 LINE SMOOTH",
"434 1503 OFFCURVE",
"417 1520 OFFCURVE",
"417 1537 CURVE SMOOTH"
);
},
{
closed = 1;
nodes = (
"1253 1850 LINE SMOOTH",
"1253 1869 OFFCURVE",
"1269 1886 OFFCURVE",
"1288 1886 CURVE SMOOTH",
"1358 1886 LINE SMOOTH",
"1375 1886 OFFCURVE",
"1392 1869 OFFCURVE",
"1392 1850 CURVE SMOOTH",
"1392 1537 LINE SMOOTH",
"1392 1520 OFFCURVE",
"1377 1503 OFFCURVE",
"1358 1503 CURVE SMOOTH",
"1288 1503 LINE SMOOTH",
"1269 1503 OFFCURVE",
"1253 1520 OFFCURVE",
"1253 1537 CURVE SMOOTH"
);
},
{
closed = 1;
nodes = (
"2290 1083 OFFCURVE",
"2136 1237 OFFCURVE",
"1929 1325 CURVE SMOOTH",
"1826 1368 OFFCURVE",
"1718 1390 OFFCURVE",
"1607 1390 CURVE SMOOTH",
"1384 1390 OFFCURVE",
"1167 1297 OFFCURVE",
"1015 1145 CURVE SMOOTH",
"863 992.999 OFFCURVE",
"771 778 OFFCURVE",
"771 554 CURVE SMOOTH",
"771 402 OFFCURVE",
"808 262 OFFCURVE",
"883 135 CURVE SMOOTH",
"1032 -124 OFFCURVE",
"1306 -282 OFFCURVE",
"1607 -282 CURVE SMOOTH",
"1759 -282 OFFCURVE",
"1899 -245 OFFCURVE",
"2026 -170 CURVE SMOOTH",
"2283 -21 OFFCURVE",
"2442 253 OFFCURVE",
"2442 554 CURVE SMOOTH",
"2442 666 OFFCURVE",
"2420 774 OFFCURVE",
"2377 877 CURVE SMOOTH"
);
},
{
closed = 1;
nodes = (
"453 1328 LINE",
"453 1015 LINE",
"139 1015 LINE",
"139 1328 LINE"
);
},
{
closed = 1;
nodes = (
"1145 1328 LINE",
"1142 1328 LINE",
"1105 1304 OFFCURVE",
"1071 1280 OFFCURVE",
"1042 1255 CURVE"
);
},
{
closed = 1;
nodes = (
"1035 1250 LINE",
"1025 1241 LINE",
"1042 1255 LINE"
);
},
{
closed = 1;
nodes = (
"1025 1241 LINE",
"1002 1221 OFFCURVE",
"979.999 1200 OFFCURVE",
"958 1177 CURVE"
);
},
{
closed = 1;
nodes = (
"2063 202 OFFCURVE",
"1959 99 OFFCURVE",
"1822 41 CURVE SMOOTH",
"1753 12 OFFCURVE",
"1682 -3 OFFCURVE",
"1607 -3 CURVE SMOOTH",
"1506 -3 OFFCURVE",
"1413 22 OFFCURVE",
"1328 72 CURVE SMOOTH",
"1156 172 OFFCURVE",
"1049 354 OFFCURVE",
"1049 554 CURVE SMOOTH",
"1049 654 OFFCURVE",
"1074 747 OFFCURVE",
"1124 833 CURVE SMOOTH",
"1224 1005 OFFCURVE",
"1407 1111 OFFCURVE",
"1607 1111 CURVE SMOOTH",
"1707 1111 OFFCURVE",
"1800 1086 OFFCURVE",
"1886 1036 CURVE SMOOTH",
"2058 936 OFFCURVE",
"2163 754 OFFCURVE",
"2163 554 CURVE SMOOTH",
"2163 480 OFFCURVE",
"2149 409 OFFCURVE",
"2120 340 CURVE SMOOTH"
);
},
{
closed = 1;
nodes = (
"833 1015 LINE",
"870 1073 LINE",
"855 1052 OFFCURVE",
"842 1033 OFFCURVE",
"831 1015 CURVE"
);
},
{
closed = 1;
nodes = (
"1607 554 LINE",
"1607 937 LINE SMOOTH",
"1607 954 OFFCURVE",
"1590 970.999 OFFCURVE",
"1571 970.999 CURVE SMOOTH",
"1502 970.999 LINE SMOOTH",
"1483 970.999 OFFCURVE",
"1467 954 OFFCURVE",
"1467 937 CURVE SMOOTH",
"1467 449 LINE SMOOTH",
"1467 432 OFFCURVE",
"1483 415 OFFCURVE",
"1502 415 CURVE SMOOTH",
"1920 415 LINE SMOOTH",
"1939 415 OFFCURVE",
"1954 432 OFFCURVE",
"1954 449 CURVE SMOOTH",
"1954 519 LINE SMOOTH",
"1954 538 OFFCURVE",
"1937 554 OFFCURVE",
"1920 554 CURVE SMOOTH"
);
},
{
closed = 1;
nodes = (
"453 945 LINE",
"453 598 LINE",
"139 598 LINE",
"139 945 LINE"
);
},
{
closed = 1;
nodes = (
"795 945 LINE",
"792 945 LINE",
"763 884 OFFCURVE",
"742 826 OFFCURVE",
"729 771 CURVE"
);
},
{
closed = 1;
nodes = (
"711 637 LINE",
"729 769 LINE",
"720 736 OFFCURVE",
"715 702 OFFCURVE",
"713 667 CURVE SMOOTH"
);
},
{
closed = 1;
nodes = (
"453 528 LINE",
"453 215 LINE",
"139 215 LINE",
"139 528 LINE"
);
},
{
closed = 1;
nodes = (
"713 494 LINE",
"718 425 OFFCURVE",
"729 367 OFFCURVE",
"744 318 CURVE SMOOTH",
"751 295 OFFCURVE",
"758 273 OFFCURVE",
"765 252 CURVE"
);
}
);
width = 2442;
}
);
unicode = F00A;
},
{
glyphname = qtype_audio_capture;
layers = (
{
layerId = "04DF3276-53F3-45FA-B502-39A9AACD583E";
paths = (
{
closed = 1;
nodes = (
"1996 1054 OFFCURVE",
"1823 953 OFFCURVE",
"1634 953 CURVE SMOOTH",
"1494 953 OFFCURVE",
"1359 1011 OFFCURVE",
"1263 1107 CURVE SMOOTH",
"1167 1203 OFFCURVE",
"1109 1339 OFFCURVE",
"1109 1479 CURVE SMOOTH",
"1109 1619 OFFCURVE",
"1167 1755 OFFCURVE",
"1263 1852 CURVE SMOOTH",
"1359 1948 OFFCURVE",
"1493 2006 OFFCURVE",
"1634 2006 CURVE SMOOTH",
"1826 2006 OFFCURVE",
"1998 1906 OFFCURVE",
"2091 1744 CURVE SMOOTH",
"2138 1663 OFFCURVE",
"2161 1574 OFFCURVE",
"2161 1479 CURVE SMOOTH",
"2161 1384 OFFCURVE",
"2138 1296 OFFCURVE",
"2091 1215 CURVE SMOOTH"
);
},
{
closed = 1;
nodes = (
"1480 753 LINE SMOOTH",
"1117 562 OFFCURVE",
"776 349 OFFCURVE",
"397 76 CURVE SMOOTH",
"309 11 LINE",
"268 -12 OFFCURVE",
"234 -9 OFFCURVE",
"208 22 CURVE SMOOTH",
"194 38 OFFCURVE",
"161 74 OFFCURVE",
"109 129 CURVE SMOOTH",
"54 188 OFFCURVE",
"23 222 OFFCURVE",
"15 231 CURVE",
"-2 248 OFFCURVE",
"-4 284 OFFCURVE",
"9 302 CURVE",
"15 311 OFFCURVE",
"30 327 OFFCURVE",
"55 350 CURVE SMOOTH",
"142 431 OFFCURVE",
"357 642 OFFCURVE",
"544 873 CURVE SMOOTH",
"669 1026 OFFCURVE",
"849 1286 OFFCURVE",
"920 1398 CURVE SMOOTH",
"940 1429 OFFCURVE",
"961 1463 OFFCURVE",
"981.999 1498 CURVE",
"975.999 1469 LINE SMOOTH",
"956 1381 OFFCURVE",
"970.999 1237 OFFCURVE",
"1017 1141 CURVE SMOOTH",
"1063 1044 OFFCURVE",
"1136 965 OFFCURVE",
"1229 906 CURVE SMOOTH",
"1321 847 OFFCURVE",
"1388 828 OFFCURVE",
"1465 815 CURVE SMOOTH",
"1504 808 OFFCURVE",
"1531 805 OFFCURVE",
"1548 805 CURVE",
"1561 804 OFFCURVE",
"1571 804 OFFCURVE",
"1578 805 CURVE"
);
}
);
width = 2161;
}
);
unicode = F00B;
},
{
glyphname = qtype_android_intent;
layers = (
{
layerId = "04DF3276-53F3-45FA-B502-39A9AACD583E";
paths = (
{
closed = 1;
nodes = (
"333 1302 LINE",
"301 1343 OFFCURVE",
"314 1407 OFFCURVE",
"362 1439 CURVE",
"411 1466 OFFCURVE",
"471 1452 OFFCURVE",
"502 1407 CURVE",
"745 1025 LINE",
"889 1081 OFFCURVE",
"1044 1109 OFFCURVE",
"1211 1109 CURVE SMOOTH",
"1374 1109 OFFCURVE",
"1527 1083 OFFCURVE",
"1669 1030 CURVE",
"1911 1407 LINE",
"1943 1452 OFFCURVE",
"2005 1466 OFFCURVE",
"2053 1439 CURVE",
"2101 1407 OFFCURVE",
"2114 1345 OFFCURVE",
"2081 1302 CURVE",
"1855 943 LINE",
"2206 744 OFFCURVE",
"2425 387 OFFCURVE",
"2425 -2 CURVE",
"0 -2 LINE",
"0 383 OFFCURVE",
"216 734 OFFCURVE",
"565 937 CURVE"
);
},
{
closed = 1;
nodes = (
"899 467 OFFCURVE",
"913 500 OFFCURVE",
"913 539 CURVE SMOOTH",
"913 619 OFFCURVE",
"849 683 OFFCURVE",
"769 683 CURVE SMOOTH",
"690 683 OFFCURVE",
"626 620 OFFCURVE",
"626 539 CURVE SMOOTH",
"626 460 OFFCURVE",
"690 397 OFFCURVE",
"769 397 CURVE SMOOTH",
"808 397 OFFCURVE",
"842 411 OFFCURVE",
"871 439 CURVE SMOOTH"
);
},
{
closed = 1;
nodes = (
"1736 397 OFFCURVE",
"1800 460 OFFCURVE",
"1800 539 CURVE SMOOTH",
"1800 620 OFFCURVE",
"1737 683 OFFCURVE",
"1656 683 CURVE SMOOTH",
"1577 683 OFFCURVE",
"1512 619 OFFCURVE",
"1512 539 CURVE SMOOTH",
"1512 462 OFFCURVE",
"1577 397 OFFCURVE",
"1656 397 CURVE SMOOTH"
);
}
);
width = 2425;
}
);
unicode = F00C;
},
{
glyphname = qtype_signature;
layers = (
{
layerId = "04DF3276-53F3-45FA-B502-39A9AACD583E";
paths = (
{
closed = 1;
nodes = (
"2437 1819 LINE",
"2302 1855 LINE",
"2289 1862 LINE",
"2245 1870 OFFCURVE",
"2199 1842 OFFCURVE",
"2190 1802 CURVE",
"1770 275 LINE",
"1770 264 LINE",
"1775 207 OFFCURVE",
"1781 139 OFFCURVE",
"1789 58 CURVE",
"1798 6 OFFCURVE",
"1806 -55 OFFCURVE",
"1814 -125 CURVE SMOOTH",
"1818 -169 LINE",
"1846 -136 LINE",
"1895 -68 OFFCURVE",
"1933 -18 OFFCURVE",
"1959 15 CURVE SMOOTH",
"2026 100 OFFCURVE",
"2067 154 OFFCURVE",
"2082 177 CURVE",
"2086 191 LINE",
"2096 227 LINE",
"2506 1715 LINE SMOOTH",
"2517 1760 OFFCURVE",
"2491 1805 OFFCURVE",
"2450 1814 CURVE"
);
},
{
closed = 1;
nodes = (
"1780 -64 OFFCURVE",
"1764 -42 OFFCURVE",
"1749 -27 CURVE SMOOTH",
"1727 -6 OFFCURVE",
"1702 9 OFFCURVE",
"1674 18 CURVE",
"1652 27 OFFCURVE",
"1619 31 OFFCURVE",
"1576 31 CURVE SMOOTH",
"1539 31 OFFCURVE",
"1487 27 OFFCURVE",
"1420 19 CURVE SMOOTH",
"1386 14 OFFCURVE",
"1361 11 OFFCURVE",
"1344 10 CURVE",
"1241 0 OFFCURVE",
"1157 3 OFFCURVE",
"1091 18 CURVE SMOOTH",
"1044 27 OFFCURVE",
"1003 43 OFFCURVE",
"967.999 65 CURVE",
"941 80 LINE",
"915 99 LINE",
"910 100 OFFCURVE",
"903 105 OFFCURVE",
"894 114 CURVE SMOOTH",
"891 117 OFFCURVE",
"886 122 OFFCURVE",
"883 123 CURVE",
"869 133 LINE",
"869 134 OFFCURVE",
"867 137 OFFCURVE",
"862 144 CURVE",
"827 177 OFFCURVE",
"807 210 OFFCURVE",
"802 243 CURVE",
"790 291 OFFCURVE",
"815 355 OFFCURVE",
"878 435 CURVE SMOOTH",
"923 492 OFFCURVE",
"942 513 OFFCURVE",
"1018 590 CURVE SMOOTH",
"1068 640 OFFCURVE",
"1108 681 OFFCURVE",
"1138 713 CURVE SMOOTH",
"1227 808 OFFCURVE",
"1330 954 OFFCURVE",
"1306 1081 CURVE",
"1304 1099 LINE",
"1298 1118 LINE",
"1297 1123 OFFCURVE",
"1295 1129 OFFCURVE",
"1293 1137 CURVE",
"1286 1158 LINE",
"1275 1175 LINE",
"1271 1185 LINE",
"1271 1187 LINE",
"1269 1187 LINE",
"1263 1198 LINE",
"1258 1206 LINE",
"1241 1231 OFFCURVE",
"1227 1247 OFFCURVE",
"1214 1254 CURVE",
"1205 1261 OFFCURVE",
"1196 1268 OFFCURVE",
"1187 1277 CURVE",
"1158 1294 LINE SMOOTH",
"1101 1325 OFFCURVE",
"1029 1338 OFFCURVE",
"941 1334 CURVE",
"857 1326 OFFCURVE",
"705 1290 OFFCURVE",
"498 1191 CURVE SMOOTH",
"409 1146 OFFCURVE",
"288 1075 OFFCURVE",
"135 977.999 CURVE SMOOTH",
"100 956 OFFCURVE",
"67 934 OFFCURVE",
"38 912 CURVE",
"0 887 LINE",
"195 635 LINE",
"226 659 LINE",
"228 660 OFFCURVE",
"232 663 OFFCURVE",
"237 668 CURVE",
"248 676 OFFCURVE",
"266 691 OFFCURVE",
"278 700 CURVE SMOOTH",
"283 704 OFFCURVE",
"294 713 OFFCURVE",
"312 726 CURVE SMOOTH",
"499 869 OFFCURVE",
"729 1002 OFFCURVE",
"850 1049 CURVE SMOOTH",
"891 1066 OFFCURVE",
"930 1077 OFFCURVE",
"967 1082 CURVE",
"994.999 1087 OFFCURVE",
"1022 1087 OFFCURVE",
"1048 1081 CURVE",
"1050 1081 OFFCURVE",
"1051 1081 OFFCURVE",
"1052 1080 CURVE SMOOTH",
"1053 1079 OFFCURVE",
"1055 1078 OFFCURVE",
"1056 1078 CURVE",
"1058 1075 LINE",
"1060 1075 OFFCURVE",
"1062 1074 OFFCURVE",
"1064 1072 CURVE SMOOTH",
"1068 1068 LINE",
"1070 1062 LINE",
"1080 1049 LINE",
"1078 1048 LINE",
"1080 1048 LINE",
"1081 1014 LINE",
"1074 991.999 OFFCURVE",
"1066 974.999 OFFCURVE",
"1059 963 CURVE",
"1014 870 OFFCURVE",
"910 754 OFFCURVE",
"875 714 CURVE",
"868 705 OFFCURVE",
"852 683 OFFCURVE",
"825 650 CURVE SMOOTH",
"782 595 OFFCURVE",
"748 547 OFFCURVE",
"723 506 CURVE SMOOTH",
"704 475 OFFCURVE",
"689 446 OFFCURVE",
"678 418 CURVE SMOOTH",
"621 269 OFFCURVE",
"653 145 OFFCURVE",
"773 47 CURVE SMOOTH",
"792 31 LINE",
"807 18 LINE",
"813 17 OFFCURVE",
"821 13 OFFCURVE",
"830 6 CURVE",
"831 5 OFFCURVE",
"833 4 OFFCURVE",
"835 2 CURVE SMOOTH",
"837 0 OFFCURVE",
"839 -1 OFFCURVE",
"840 -2 CURVE",
"880 -25 LINE",
"917 -43 LINE",
"961 -58 OFFCURVE",
"999.999 -70 OFFCURVE",
"1035 -77 CURVE SMOOTH",
"1104 -92 OFFCURVE",
"1223 -92 OFFCURVE",
"1358 -63 CURVE SMOOTH",
"1373 -60 OFFCURVE",
"1407 -52 OFFCURVE",
"1462 -39 CURVE SMOOTH",
"1566 -12 OFFCURVE",
"1627 -8 OFFCURVE",
"1667 -15 CURVE",
"1700 -24 OFFCURVE",
"1722 -35 OFFCURVE",
"1734 -46 CURVE",
"1760 -66 OFFCURVE",
"1781 -94 OFFCURVE",
"1798 -131 CURVE SMOOTH",
"1814 -169 LINE",
"1806 -130 LINE",
"1805 -127 OFFCURVE",
"1801 -114 OFFCURVE",
"1792 -93 CURVE SMOOTH"
);
},
{
closed = 1;
nodes = (
"1066 1075 LINE",
"1066 1072 LINE",
"1064 1075 LINE"
);
},
{
closed = 1;
nodes = (
"2054 202 LINE",
"2045 186 OFFCURVE",
"2001 126 OFFCURVE",
"1921 23 CURVE",
"1829 49 LINE",
"1814 176 OFFCURVE",
"1806 249 OFFCURVE",
"1806 269 CURVE",
"1816 307 LINE",
"1834 314 OFFCURVE",
"1850 315 OFFCURVE",
"1865 310 CURVE",
"1868 310 OFFCURVE",
"1872 308 OFFCURVE",
"1877 305 CURVE",
"1902 294 OFFCURVE",
"1918 268 OFFCURVE",
"1917 239 CURVE SMOOTH",
"1917 232 OFFCURVE",
"1916 227 OFFCURVE",
"1913 224 CURVE",
"1939 217 LINE",
"1943 232 LINE",
"1958 260 OFFCURVE",
"1981 272 OFFCURVE",
"2013 269 CURVE",
"2026 267 LINE",
"2042 260 OFFCURVE",
"2054 251 OFFCURVE",
"2063 241 CURVE"
);
}
);
width = 2508;
}
);
unicode = F00D;
},
{
glyphname = dashboard_apps;
layers = (
{
layerId = "04DF3276-53F3-45FA-B502-39A9AACD583E";
paths = (
{
closed = 1;
nodes = (
"1309 -130 OFFCURVE",
"1230 -173 OFFCURVE",
"1145 -189 CURVE SMOOTH",
"1074 -204 OFFCURVE",
"1012 -211 OFFCURVE",
"961 -211 CURVE SMOOTH",
"689 -211 LINE SMOOTH",
"668 -211 OFFCURVE",
"644 -209 OFFCURVE",
"616 -206 CURVE SMOOTH",
"533 -196 OFFCURVE",
"470 -176 OFFCURVE",
"426 -146 CURVE SMOOTH",
"365 -106 OFFCURVE",
"349 -77 OFFCURVE",
"338 26 CURVE SMOOTH",
"333 71 OFFCURVE",
"327 134 OFFCURVE",
"322 213 CURVE SMOOTH",
"303 504 OFFCURVE",
"290 964 OFFCURVE",
"283 1343 CURVE SMOOTH",
"278 1552 OFFCURVE",
"275 1685 OFFCURVE",
"275 1742 CURVE",
"274 1759 OFFCURVE",
"274 1780 OFFCURVE",
"274 1803 CURVE SMOOTH",
"274 1864 OFFCURVE",
"359 1946 OFFCURVE",
"427 1946 CURVE",
"476 1960 LINE SMOOTH",
"549 1981 OFFCURVE",
"711 2003 OFFCURVE",
"855 2003 CURVE SMOOTH",
"985.999 2003 OFFCURVE",
"1167 1979 OFFCURVE",
"1242 1962 CURVE SMOOTH",
"1304 1946 LINE",
"1361 1946 OFFCURVE",
"1423 1866 OFFCURVE",
"1423 1803 CURVE SMOOTH",
"1424 1362 LINE SMOOTH",
"1425 807 OFFCURVE",
"1403 2 OFFCURVE",
"1352 -71 CURVE SMOOTH"
);
},
{
closed = 1;
nodes = (
"1282 1743 LINE SMOOTH",
"1282 1766 OFFCURVE",
"1261 1778 OFFCURVE",
"1233 1778 CURVE SMOOTH",
"464 1778 LINE SMOOTH",
"439 1778 OFFCURVE",
"427 1766 OFFCURVE",
"427 1743 CURVE SMOOTH",
"427 785 LINE SMOOTH",
"427 761 OFFCURVE",
"439 749 OFFCURVE",
"464 749 CURVE SMOOTH",
"1233 749 LINE SMOOTH",
"1261 749 OFFCURVE",
"1282 762 OFFCURVE",
"1282 785 CURVE SMOOTH"
);
},
{
closed = 1;
nodes = (
"802 678 OFFCURVE",
"766 672 OFFCURVE",
"735 661 CURVE SMOOTH",
"704 650 OFFCURVE",
"689 636 OFFCURVE",
"689 619 CURVE SMOOTH",
"689 582 OFFCURVE",
"760 549 OFFCURVE",
"843 549 CURVE SMOOTH",
"924 549 OFFCURVE",
"996.999 582 OFFCURVE",
"996.999 619 CURVE SMOOTH",
"996.999 635 OFFCURVE",
"981.999 649 OFFCURVE",
"951 661 CURVE",
"919 672 OFFCURVE",
"883 678 OFFCURVE",
"843 678 CURVE SMOOTH"
);
},
{
closed = 1;
nodes = (
"440 429 OFFCURVE",
"445 416 OFFCURVE",
"466 401 CURVE",
"493 380 OFFCURVE",
"524 369 OFFCURVE",
"559 369 CURVE SMOOTH",
"615 369 OFFCURVE",
"664 392 OFFCURVE",
"664 416 CURVE",
"655 428 OFFCURVE",
"620 440 OFFCURVE",
"559 453 CURVE",
"540 460 OFFCURVE",
"510 457 OFFCURVE",
"469 446 CURVE SMOOTH",
"462 444 OFFCURVE",
"456 442 OFFCURVE",
"451 440 CURVE"
);
},
{
closed = 1;
nodes = (
"1130 451 LINE",
"1128 450 LINE",
"1126 450 LINE",
"1125 449 LINE",
"1072 435 OFFCURVE",
"1045 424 OFFCURVE",
"1045 416 CURVE",
"1041 409 OFFCURVE",
"1044 401 OFFCURVE",
"1053 394 CURVE",
"1073 377 OFFCURVE",
"1102 369 OFFCURVE",
"1139 369 CURVE SMOOTH",
"1195 369 OFFCURVE",
"1270 416 OFFCURVE",
"1257 440 CURVE",
"1240 446 LINE",
"1211 455 OFFCURVE",
"1178 458 OFFCURVE",
"1139 453 CURVE"
);
},
{
closed = 1;
nodes = (
"799 429 OFFCURVE",
"747 405 OFFCURVE",
"747 381 CURVE SMOOTH",
"747 357 OFFCURVE",
"799 334 OFFCURVE",
"855 334 CURVE SMOOTH",
"910 334 OFFCURVE",
"950 356 OFFCURVE",
"950 381 CURVE SMOOTH",
"950 406 OFFCURVE",
"910 429 OFFCURVE",
"855 429 CURVE SMOOTH"
);
},
{
closed = 1;
nodes = (
"442 299 OFFCURVE",
"446 287 OFFCURVE",
"465 272 CURVE SMOOTH",
"492 251 OFFCURVE",
"524 240 OFFCURVE",
"559 240 CURVE SMOOTH",
"615 240 OFFCURVE",
"664 262 OFFCURVE",
"664 286 CURVE",
"655 297 OFFCURVE",
"620 309 OFFCURVE",
"559 322 CURVE",
"538 329 OFFCURVE",
"508 327 OFFCURVE",
"469 316 CURVE SMOOTH",
"462 314 OFFCURVE",
"456 312 OFFCURVE",
"451 310 CURVE"
);
},
{
closed = 1;
nodes = (
"1129 319 OFFCURVE",
"1123 318 OFFCURVE",
"1122 318 CURVE",
"1071 304 OFFCURVE",
"1045 293 OFFCURVE",
"1045 286 CURVE",
"1039 275 OFFCURVE",
"1047 264 OFFCURVE",
"1068 255 CURVE",
"1089 245 OFFCURVE",
"1113 240 OFFCURVE",
"1139 240 CURVE SMOOTH",
"1195 240 OFFCURVE",
"1270 286 OFFCURVE",
"1257 310 CURVE",
"1240 316 LINE",
"1210 325 OFFCURVE",
"1176 327 OFFCURVE",
"1139 322 CURVE"
);
},
{
closed = 1;
nodes = (
"824 286 OFFCURVE",
"798 283 OFFCURVE",
"778 277 CURVE SMOOTH",
"757 270 OFFCURVE",
"747 261 OFFCURVE",
"747 250 CURVE SMOOTH",
"747 226 OFFCURVE",
"796 205 OFFCURVE",
"855 205 CURVE SMOOTH",
"910 205 OFFCURVE",
"950 226 OFFCURVE",
"950 250 CURVE SMOOTH",
"950 274 OFFCURVE",
"918 286 OFFCURVE",
"855 286 CURVE SMOOTH"
);
},
{
closed = 1;
nodes = (
"451 179 LINE",
"441 169 OFFCURVE",
"446 156 OFFCURVE",
"465 141 CURVE SMOOTH",
"492 120 OFFCURVE",
"524 109 OFFCURVE",
"559 109 CURVE SMOOTH",
"615 109 OFFCURVE",
"664 131 OFFCURVE",
"664 155 CURVE",
"645 178 OFFCURVE",
"610 194 OFFCURVE",
"559 205 CURVE",
"534 209 OFFCURVE",
"489 198 OFFCURVE",
"469 189 CURVE"
);
},
{
closed = 1;
nodes = (
"1114 198 OFFCURVE",
"1093 190 OFFCURVE",
"1074 180 CURVE SMOOTH",
"1055 170 OFFCURVE",
"1045 162 OFFCURVE",
"1045 155 CURVE",
"1039 144 OFFCURVE",
"1047 133 OFFCURVE",
"1068 124 CURVE",
"1089 114 OFFCURVE",
"1113 109 OFFCURVE",
"1139 109 CURVE SMOOTH",
"1195 109 OFFCURVE",
"1270 155 OFFCURVE",
"1257 179 CURVE",
"1240 188 LINE SMOOTH",
"1216 200 OFFCURVE",
"1171 209 OFFCURVE",
"1139 205 CURVE"
);
},
{
closed = 1;
nodes = (
"796 155 OFFCURVE",
"747 133 OFFCURVE",
"747 109 CURVE SMOOTH",
"747 85 OFFCURVE",
"783 73 OFFCURVE",
"855 73 CURVE SMOOTH",
"918 73 OFFCURVE",
"950 85 OFFCURVE",
"950 109 CURVE SMOOTH",
"950 134 OFFCURVE",
"911 155 OFFCURVE",
"855 155 CURVE SMOOTH"
);
},
{
closed = 1;
nodes = (
"451 62 LINE",
"428 29 OFFCURVE",
"492 -10 OFFCURVE",
"559 -10 CURVE SMOOTH",
"629 -10 OFFCURVE",
"664 2 OFFCURVE",
"664 25 CURVE",
"645 48 OFFCURVE",
"610 64 OFFCURVE",
"559 73 CURVE",
"537 80 OFFCURVE",
"507 78 OFFCURVE",
"469 67 CURVE SMOOTH"
);
},
{
closed = 1;
nodes = (
"1116 68 OFFCURVE",
"1094 61 OFFCURVE",
"1074 50 CURVE SMOOTH",
"1055 40 OFFCURVE",
"1045 32 OFFCURVE",
"1045 25 CURVE",
"1039 14 OFFCURVE",
"1046 5 OFFCURVE",
"1067 -1 CURVE SMOOTH",
"1087 -7 OFFCURVE",
"1111 -10 OFFCURVE",
"1139 -10 CURVE SMOOTH",
"1202 -10 OFFCURVE",
"1269 27 OFFCURVE",
"1257 62 CURVE",
"1240 67 LINE SMOOTH",
"1210 76 OFFCURVE",
"1176 78 OFFCURVE",
"1139 73 CURVE"
);
},
{
closed = 1;
nodes = (
"799 25 OFFCURVE",
"747 2 OFFCURVE",
"747 -21 CURVE SMOOTH",
"747 -45 OFFCURVE",
"783 -57 OFFCURVE",
"855 -57 CURVE SMOOTH",
"918 -57 OFFCURVE",
"950 -45 OFFCURVE",
"950 -21 CURVE SMOOTH",
"950 4 OFFCURVE",
"910 25 OFFCURVE",
"855 25 CURVE SMOOTH"
);
}
);
width = 1698;
}
);
unicode = F00E;
},
{
glyphname = commtrack;
lastChange = "2024-01-11 21:02:55 +0000";
layers = (
{
layerId = "04DF3276-53F3-45FA-B502-39A9AACD583E";
paths = (
{
closed = 1;
nodes = (
"4 1785 OFFCURVE",
"56 1837 OFFCURVE",
"122 1837 CURVE",
"390 1837 LINE",
"491 1837 OFFCURVE",
"582 1771 OFFCURVE",
"613 1676 CURVE",
"952 651 LINE",
"1063 649 OFFCURVE",
"1161 596 OFFCURVE",
"1224 514 CURVE",
"1968 763 LINE",
"2031 785 OFFCURVE",
"2098 751 OFFCURVE",
"2117 689 CURVE",
"2138 627 OFFCURVE",
"2105 559 OFFCURVE",
"2043 539 CURVE",
"1299 289 LINE",
"1296 95 OFFCURVE",
"1139 -61 OFFCURVE",
"946 -61 CURVE",
"751 -61 OFFCURVE",
"592 98 OFFCURVE",
"592 294 CURVE",
"592 409 OFFCURVE",
"646 510 OFFCURVE",
"729 576 CURVE",
"390 1601 LINE",
"122 1601 LINE",
"56 1601 OFFCURVE",
"4 1653 OFFCURVE",
"4 1719 CURVE"
);
},
{
closed = 1;
nodes = (
"884 1401 OFFCURVE",
"918 1467 OFFCURVE",
"981 1488 CURVE SMOOTH",
"1149 1542 LINE",
"1221 1317 LINE",
"1445 1391 LINE",
"1372 1616 LINE",
"1541 1671 LINE SMOOTH",
"1602 1692 OFFCURVE",
"1669 1657 OFFCURVE",
"1689 1595 CURVE SMOOTH",
"1871 1031 LINE SMOOTH",
"1891 969 OFFCURVE",
"1856 902 OFFCURVE",
"1796 882 CURVE SMOOTH",
"1235 699 LINE SMOOTH",
"1173 678 OFFCURVE",
"1107 711 OFFCURVE",
"1087 774 CURVE SMOOTH",
"905 1339 LINE SMOOTH"
);
}
);
width = 2134;
}
);
unicode = F00F;
},
{
glyphname = qtype_multi_select_box;
layers = (
{
layerId = "04DF3276-53F3-45FA-B502-39A9AACD583E";
paths = (
{
closed = 1;
nodes = (
"515 1949 LINE SMOOTH",
"328 1949 OFFCURVE",
"161 1848 OFFCURVE",
"69 1687 CURVE SMOOTH",
"23 1606 OFFCURVE",
"0 1519 OFFCURVE",
"0 1426 CURVE SMOOTH",
"0 389 LINE SMOOTH",
"0 200 OFFCURVE",
"99 29 OFFCURVE",
"257 -64 CURVE SMOOTH",
"336 -111 OFFCURVE",
"422 -134 OFFCURVE",
"515 -134 CURVE SMOOTH",
"1575 -134 LINE SMOOTH",
"1767 -134 OFFCURVE",
"1935 -34 OFFCURVE",
"2028 127 CURVE SMOOTH",
"2074 208 OFFCURVE",
"2097 295 OFFCURVE",
"2097 389 CURVE SMOOTH",
"2097 1426 LINE SMOOTH",
"2097 1613 OFFCURVE",
"1998 1786 OFFCURVE",
"1837 1879 CURVE SMOOTH",
"1756 1926 OFFCURVE",
"1669 1949 OFFCURVE",
"1575 1949 CURVE SMOOTH"
);
},
{
closed = 1;
nodes = (
"1557 1401 LINE",
"1557 410 LINE",
"541 410 LINE",
"541 1401 LINE"
);
}
);
width = 2097;
}
);
unicode = F010;
},
{
glyphname = qtype_single_select_circle;
layers = (
{
layerId = "04DF3276-53F3-45FA-B502-39A9AACD583E";
paths = (
{
closed = 1;
nodes = (
"770 1959 OFFCURVE",
"499 1842 OFFCURVE",
"308 1651 CURVE SMOOTH",
"117 1460 OFFCURVE",
"0 1187 OFFCURVE",
"0 907 CURVE SMOOTH",
"0 626 OFFCURVE",
"117 354 OFFCURVE",
"308 163 CURVE SMOOTH",
"499 -28 OFFCURVE",
"770 -144 OFFCURVE",
"1049 -144 CURVE SMOOTH",
"1162 -144 OFFCURVE",
"1272 -126 OFFCURVE",
"1380 -91 CURVE SMOOTH",
"1587 -22 OFFCURVE",
"1759 104 OFFCURVE",
"1895 285 CURVE SMOOTH",
"2024 458 OFFCURVE",
"2098 679 OFFCURVE",
"2098 907 CURVE SMOOTH",
"2098 1292 OFFCURVE",
"1894 1627 OFFCURVE",
"1579 1815 CURVE SMOOTH",
"1418 1911 OFFCURVE",
"1241 1959 OFFCURVE",
"1049 1959 CURVE SMOOTH"
);
},
{
closed = 1;
nodes = (
"1332 1403 OFFCURVE",
"1554 1184 OFFCURVE",
"1554 907 CURVE SMOOTH",
"1554 772 OFFCURVE",
"1499 642 OFFCURVE",
"1408 549 CURVE SMOOTH",
"1317 456 OFFCURVE",
"1186 399 OFFCURVE",
"1049 399 CURVE SMOOTH",
"865 399 OFFCURVE",
"699 498 OFFCURVE",
"609 654 CURVE SMOOTH",
"564 731 OFFCURVE",
"541 816 OFFCURVE",
"541 907 CURVE SMOOTH",
"541 1088 OFFCURVE",
"639 1250 OFFCURVE",
"795 1338 CURVE SMOOTH",
"872 1381 OFFCURVE",
"957 1403 OFFCURVE",
"1049 1403 CURVE SMOOTH"
);
}
);
width = 2098;
}
);
unicode = F011;
},
{
glyphname = dashboard_reports;
lastChange = "2024-01-11 20:14:53 +0000";
layers = (
{
layerId = "04DF3276-53F3-45FA-B502-39A9AACD583E";
paths = (
{
closed = 1;
nodes = (
"258 1671 OFFCURVE",
"203 1725 OFFCURVE",
"134 1725 CURVE",
"68 1725 OFFCURVE",
"14 1671 OFFCURVE",
"14 1603 CURVE",
"14 326 LINE",
"14 158 OFFCURVE",
"150 21 OFFCURVE",
"319 21 CURVE",
"1839 21 LINE",
"1906 21 OFFCURVE",
"1961 75 OFFCURVE",
"1961 144 CURVE",
"1961 211 OFFCURVE",
"1906 265 OFFCURVE",
"1839 265 CURVE",
"319 265 LINE",
"285 265 OFFCURVE",
"258 292 OFFCURVE",
"258 326 CURVE",
"258 1603 LINE"
);
},
{
closed = 1;
nodes = (
"1851 1222 OFFCURVE",
"1851 1298 OFFCURVE",
"1804 1346 CURVE SMOOTH",
"1756 1393 OFFCURVE",
"1679 1393 OFFCURVE",
"1631 1346 CURVE SMOOTH",
"1231 945 LINE",
"1013 1163 LINE SMOOTH",
"964 1212 OFFCURVE",
"888 1212 OFFCURVE",
"840 1163 CURVE SMOOTH",
"415 738 LINE SMOOTH",
"367 690 OFFCURVE",
"367 613 OFFCURVE",
"415 564 CURVE SMOOTH",
"462 518 OFFCURVE",
"538 518 OFFCURVE",
"587 564 CURVE SMOOTH",
"926 905 LINE",
"1144 686 LINE SMOOTH",
"1193 640 OFFCURVE",
"1270 640 OFFCURVE",
"1318 686 CURVE SMOOTH",
"1804 1173 LINE",
"1804 1173 LINE"
);
}
);
width = 1976;
}
);
unicode = F012;
},
{
glyphname = dashboard_data;
lastChange = "2024-01-11 20:57:53 +0000";
layers = (
{
layerId = "04DF3276-53F3-45FA-B502-39A9AACD583E";
paths = (
{
closed = 1;
nodes = (
"1813 1344 LINE",
"1813 1180 OFFCURVE",
"1443 1048 OFFCURVE",
"985 1048 CURVE",
"528 1048 OFFCURVE",
"157 1180 OFFCURVE",
"157 1344 CURVE",
"157 1521 LINE",
"157 1684 OFFCURVE",
"528 1816 OFFCURVE",
"985 1816 CURVE",
"1443 1816 OFFCURVE",
"1813 1684 OFFCURVE",
"1813 1521 CURVE"
);
},
{
closed = 1;
nodes = (
"1688 1051 OFFCURVE",
"1758 1086 OFFCURVE",
"1813 1129 CURVE",
"1813 753 LINE",
"1813 590 OFFCURVE",
"1443 457 OFFCURVE",
"985 457 CURVE",
"528 457 OFFCURVE",
"157 590 OFFCURVE",
"157 753 CURVE",
"157 1129 LINE",
"212 1085 OFFCURVE",
"283 1051 OFFCURVE",
"359 1024 CURVE",
"525 964 OFFCURVE",
"747 930 OFFCURVE",
"985 930 CURVE",
"1224 930 OFFCURVE",
"1445 964 OFFCURVE",
"1610 1024 CURVE"
);
},
{
closed = 1;
nodes = (
"212 495 OFFCURVE",
"283 460 OFFCURVE",
"359 432 CURVE SMOOTH",
"525 373 OFFCURVE",
"747 340 OFFCURVE",
"985 340 CURVE SMOOTH",
"1224 340 OFFCURVE",
"1445 373 OFFCURVE",
"1610 432 CURVE SMOOTH",
"1688 460 OFFCURVE",
"1758 495 OFFCURVE",
"1813 538 CURVE",
"1813 221 LINE SMOOTH",
"1813 58 OFFCURVE",
"1443 -74 OFFCURVE",
"985 -74 CURVE SMOOTH",
"528 -74 OFFCURVE",
"157 58 OFFCURVE",
"157 221 CURVE SMOOTH",
"157 538 LINE"
);
}
);
width = 1970;
}
);
unicode = F013;
},
{
glyphname = dashboard_users;
lastChange = "2024-01-11 21:05:44 +0000";
layers = (
{
layerId = "04DF3276-53F3-45FA-B502-39A9AACD583E";
paths = (
{
closed = 1;
nodes = (
"389 1257 OFFCURVE",
"251 1395 OFFCURVE",
"251 1564 CURVE",
"251 1734 OFFCURVE",
"389 1872 OFFCURVE",
"558 1872 CURVE",
"728 1872 OFFCURVE",
"866 1734 OFFCURVE",
"866 1564 CURVE",
"866 1395 OFFCURVE",
"728 1257 OFFCURVE",
"558 1257 CURVE"
);
},
{
closed = 1;
nodes = (
"1803 1257 OFFCURVE",
"1665 1395 OFFCURVE",
"1665 1564 CURVE",
"1665 1734 OFFCURVE",
"1803 1872 OFFCURVE",
"1973 1872 CURVE",
"2143 1872 OFFCURVE",
"2280 1734 OFFCURVE",
"2280 1564 CURVE",
"2280 1395 OFFCURVE",
"2143 1257 OFFCURVE",
"1973 1257 CURVE"
);
},
{
closed = 1;
nodes = (
"5 950 OFFCURVE",
"189 1134 OFFCURVE",
"415 1134 CURVE",
"579 1134 LINE",
"640 1134 OFFCURVE",
"698 1121 OFFCURVE",
"751 1097 CURVE",
"746 1069 OFFCURVE",
"743 1040 OFFCURVE",
"743 1011 CURVE",
"743 864 OFFCURVE",
"808 732 OFFCURVE",
"910 642 CURVE",
"909 642 OFFCURVE",
"908 642 OFFCURVE",
"907 642 CURVE",
"87 642 LINE",
"42 642 OFFCURVE",
"5 679 OFFCURVE",
"5 724 CURVE"
);
},
{
closed = 1;
nodes = (
"1562 642 OFFCURVE",
"1561 642 OFFCURVE",
"1560 642 CURVE",
"1662 732 OFFCURVE",
"1727 864 OFFCURVE",
"1727 1011 CURVE",
"1727 1040 OFFCURVE",
"1724 1069 OFFCURVE",
"1719 1097 CURVE",
"1772 1121 OFFCURVE",
"1830 1134 OFFCURVE",
"1891 1134 CURVE",
"2055 1134 LINE",
"2281 1134 OFFCURVE",
"2465 950 OFFCURVE",
"2465 724 CURVE",
"2465 679 OFFCURVE",
"2428 642 OFFCURVE",
"2383 642 CURVE",
"1563 642 LINE"
);
},
{
closed = 1;
nodes = (
"1604 807 OFFCURVE",
"1439 642 OFFCURVE",
"1235 642 CURVE",
"1031 642 OFFCURVE",
"866 807 OFFCURVE",
"866 1011 CURVE",
"866 1215 OFFCURVE",
"1031 1380 OFFCURVE",
"1235 1380 CURVE",
"1439 1380 OFFCURVE",
"1604 1215 OFFCURVE",
"1604 1011 CURVE"
);
},
{
closed = 1;
nodes = (
"497 290 OFFCURVE",
"726 519 OFFCURVE",
"1009 519 CURVE SMOOTH",
"1461 519 LINE SMOOTH",
"1744 519 OFFCURVE",
"1973 290 OFFCURVE",
"1973 7 CURVE SMOOTH",
"1973 -50 OFFCURVE",
"1927 -96 OFFCURVE",
"1870 -96 CURVE SMOOTH",
"600 -96 LINE SMOOTH",
"543 -96 OFFCURVE",
"497 -50 OFFCURVE",
"497 7 CURVE",
"497 7 LINE"
);
}
);
width = 2460;
}
);
unicode = F014;
},
{
glyphname = dashboard_settings;
lastChange = "2024-01-11 21:04:25 +0000";
layers = (
{
layerId = "04DF3276-53F3-45FA-B502-39A9AACD583E";
paths = (
{
closed = 1;
nodes = (
"1081 1326 OFFCURVE",
"1090 1360 OFFCURVE",
"1078 1391 CURVE",
"1070 1409 OFFCURVE",
"1061 1427 OFFCURVE",
"1052 1444 CURVE",
"1041 1462 LINE",
"1031 1479 OFFCURVE",
"1020 1496 OFFCURVE",
"1007 1512 CURVE",
"988 1538 OFFCURVE",
"953 1547 OFFCURVE",
"922 1537 CURVE",
"826 1505 LINE",
"788 1535 OFFCURVE",
"746 1560 OFFCURVE",
"701 1577 CURVE",
"680 1677 LINE",
"673 1709 OFFCURVE",
"648 1734 OFFCURVE",
"617 1738 CURVE",
"593 1741 OFFCURVE",
"570 1742 OFFCURVE",
"546 1742 CURVE",
"522 1742 OFFCURVE",
"498 1741 OFFCURVE",
"476 1738 CURVE",
"444 1734 OFFCURVE",
"419 1709 OFFCURVE",
"412 1677 CURVE",
"392 1577 LINE",
"345 1560 OFFCURVE",
"304 1535 OFFCURVE",
"267 1505 CURVE",
"169 1536 LINE",
"138 1547 OFFCURVE",
"104 1538 OFFCURVE",
"85 1512 CURVE",
"72 1496 OFFCURVE",
"61 1479 OFFCURVE",
"51 1462 CURVE",
"41 1444 LINE",
"30 1427 OFFCURVE",
"22 1409 OFFCURVE",
"14 1391 CURVE",
"2 1360 OFFCURVE",
"11 1326 OFFCURVE",
"35 1304 CURVE",
"112 1236 LINE",
"108 1213 OFFCURVE",
"105 1190 OFFCURVE",
"105 1165 CURVE",
"105 1141 OFFCURVE",
"108 1116 OFFCURVE",
"112 1093 CURVE",
"35 1025 LINE",
"11 1003 OFFCURVE",
"2 969 OFFCURVE",
"14 939 CURVE",
"22 920 OFFCURVE",
"30 902 OFFCURVE",
"41 885 CURVE",
"51 867 LINE",
"61 850 OFFCURVE",
"72 833 OFFCURVE",
"85 817 CURVE",
"104 791 OFFCURVE",
"138 783 OFFCURVE",
"169 793 CURVE",
"267 825 LINE",
"303 794 OFFCURVE",
"345 769 OFFCURVE",
"391 753 CURVE",
"412 652 LINE",
"419 620 OFFCURVE",
"443 596 OFFCURVE",
"476 592 CURVE",
"498 589 OFFCURVE",
"522 588 OFFCURVE",
"546 588 CURVE",
"569 588 OFFCURVE",
"593 589 OFFCURVE",
"615 592 CURVE",
"648 596 OFFCURVE",
"673 622 OFFCURVE",
"679 652 CURVE",
"701 753 LINE",
"746 770 OFFCURVE",
"788 794 OFFCURVE",
"824 825 CURVE",
"922 793 LINE",
"953 783 OFFCURVE",
"987 791 OFFCURVE",
"1006 817 CURVE",
"1019 833 OFFCURVE",
"1030 850 OFFCURVE",
"1040 867 CURVE",
"1051 886 LINE",
"1061 903 OFFCURVE",
"1069 920 OFFCURVE",
"1077 940 CURVE",
"1090 969 OFFCURVE",
"1080 1003 OFFCURVE",
"1056 1025 CURVE",
"979 1093 LINE",
"984 1117 OFFCURVE",
"986 1141 OFFCURVE",
"986 1165 CURVE",
"986 1190 OFFCURVE",
"984 1213 OFFCURVE",
"979 1237 CURVE",
"1056 1306 LINE",
"1056 1304 LINE"
);
},
{
closed = 1;
nodes = (
"711 1074 OFFCURVE",
"637 1000 OFFCURVE",
"546 1000 CURVE",
"455 1000 OFFCURVE",
"381 1074 OFFCURVE",
"381 1165 CURVE",
"381 1256 OFFCURVE",
"455 1329 OFFCURVE",
"546 1329 CURVE",
"637 1329 OFFCURVE",
"711 1256 OFFCURVE",
"711 1165 CURVE"
);
},
{
closed = 1;
nodes = (
"1753 25 OFFCURVE",
"1787 15 OFFCURVE",
"1817 27 CURVE",
"1836 35 OFFCURVE",
"1853 45 OFFCURVE",
"1871 54 CURVE",
"1889 65 LINE",
"1906 75 OFFCURVE",
"1923 87 OFFCURVE",
"1939 98 CURVE",
"1965 118 OFFCURVE",
"1974 152 OFFCURVE",
"1964 183 CURVE",
"1931 280 LINE",
"1962 317 OFFCURVE",
"1987 359 OFFCURVE",
"2004 405 CURVE",
"2104 425 LINE",
"2135 432 OFFCURVE",
"2160 457 OFFCURVE",
"2165 489 CURVE",
"2167 513 OFFCURVE",
"2168 535 OFFCURVE",
"2168 559 CURVE",
"2168 583 OFFCURVE",
"2167 607 OFFCURVE",
"2165 630 CURVE",
"2160 661 OFFCURVE",
"2135 686 OFFCURVE",
"2104 693 CURVE",
"2004 715 LINE",
"1987 760 OFFCURVE",
"1962 802 OFFCURVE",
"1931 839 CURVE",
"1964 936 LINE",
"1974 967 OFFCURVE",
"1965 1001 OFFCURVE",
"1939 1020 CURVE",
"1923 1033 OFFCURVE",
"1906 1044 OFFCURVE",
"1889 1054 CURVE",
"1871 1065 LINE",
"1854 1075 OFFCURVE",
"1836 1083 OFFCURVE",
"1817 1091 CURVE",
"1787 1103 OFFCURVE",
"1753 1094 OFFCURVE",
"1731 1070 CURVE",
"1663 993 LINE",
"1639 998 OFFCURVE",
"1615 999 OFFCURVE",
"1591 999 CURVE",
"1566 999 OFFCURVE",
"1542 998 OFFCURVE",
"1520 993 CURVE",
"1452 1070 LINE",
"1430 1094 OFFCURVE",
"1396 1103 OFFCURVE",
"1365 1091 CURVE",
"1347 1083 OFFCURVE",
"1329 1075 OFFCURVE",
"1312 1065 CURVE",
"1294 1054 LINE",
"1277 1044 OFFCURVE",
"1260 1033 OFFCURVE",
"1244 1020 CURVE",
"1218 1001 OFFCURVE",
"1208 967 OFFCURVE",
"1219 936 CURVE",
"1252 839 LINE",
"1221 802 OFFCURVE",
"1196 760 OFFCURVE",
"1179 715 CURVE",
"1079 693 LINE",
"1047 688 OFFCURVE",
"1022 663 OFFCURVE",
"1018 630 CURVE",
"1015 607 OFFCURVE",
"1014 584 OFFCURVE",
"1014 560 CURVE",
"1014 536 OFFCURVE",
"1015 513 OFFCURVE",
"1018 490 CURVE",
"1022 458 OFFCURVE",
"1047 433 OFFCURVE",
"1079 426 CURVE",
"1179 406 LINE",
"1196 359 OFFCURVE",
"1221 317 OFFCURVE",
"1252 281 CURVE",
"1219 184 LINE",
"1208 152 OFFCURVE",
"1218 118 OFFCURVE",
"1244 99 CURVE",
"1260 87 OFFCURVE",
"1277 75 OFFCURVE",
"1294 65 CURVE",
"1312 55 LINE",
"1330 45 OFFCURVE",
"1347 37 OFFCURVE",
"1365 29 CURVE",
"1396 16 OFFCURVE",
"1430 25 OFFCURVE",
"1452 50 CURVE",
"1520 126 LINE",
"1542 123 OFFCURVE",
"1567 121 OFFCURVE",
"1591 121 CURVE",
"1616 121 OFFCURVE",
"1640 123 OFFCURVE",
"1663 126 CURVE",
"1731 50 LINE",
"1731 49 LINE"
);
},
{
closed = 1;
nodes = (
"1500 394 OFFCURVE",
"1427 468 OFFCURVE",
"1427 559 CURVE SMOOTH",
"1427 651 OFFCURVE",
"1500 725 OFFCURVE",
"1591 725 CURVE SMOOTH",
"1682 725 OFFCURVE",
"1756 651 OFFCURVE",
"1756 559 CURVE SMOOTH",
"1756 468 OFFCURVE",
"1682 394 OFFCURVE",
"1591 394 CURVE SMOOTH"
);
}
);
width = 2166;
}
);
unicode = F015;
},
{
glyphname = dashboard_help;
lastChange = "2024-01-11 21:00:48 +0000";
layers = (
{
layerId = "04DF3276-53F3-45FA-B502-39A9AACD583E";
paths = (
{
closed = 1;
nodes = (
"1843 1124 OFFCURVE",
"1758 1332 OFFCURVE",
"1603 1488 CURVE",
"1449 1641 OFFCURVE",
"1240 1727 OFFCURVE",
"1022 1727 CURVE",
"806 1727 OFFCURVE",
"596 1641 OFFCURVE",
"442 1488 CURVE",
"289 1332 OFFCURVE",
"203 1124 OFFCURVE",
"203 907 CURVE",
"203 690 OFFCURVE",
"289 480 OFFCURVE",
"442 327 CURVE",
"596 172 OFFCURVE",
"806 87 OFFCURVE",
"1022 87 CURVE",
"1240 87 OFFCURVE",
"1449 172 OFFCURVE",
"1603 327 CURVE",
"1758 480 OFFCURVE",
"1843 690 OFFCURVE",
"1843 907 CURVE"
);
},
{
closed = 1;
nodes = (
"13 1175 OFFCURVE",
"120 1432 OFFCURVE",
"309 1621 CURVE",
"498 1810 OFFCURVE",
"755 1917 OFFCURVE",
"1022 1917 CURVE",
"1291 1917 OFFCURVE",
"1548 1810 OFFCURVE",
"1738 1621 CURVE",
"1926 1432 OFFCURVE",
"2034 1175 OFFCURVE",
"2034 907 CURVE",
"2034 639 OFFCURVE",
"1926 382 OFFCURVE",
"1738 192 CURVE",
"1548 4 OFFCURVE",
"1291 -104 OFFCURVE",
"1022 -104 CURVE",
"755 -104 OFFCURVE",
"498 4 OFFCURVE",
"309 192 CURVE",
"120 382 OFFCURVE",
"13 639 OFFCURVE",
"13 907 CURVE"
);
},
{
closed = 1;
nodes = (
"714 1353 OFFCURVE",
"799 1411 OFFCURVE",
"891 1411 CURVE",
"1122 1411 LINE",
"1260 1411 OFFCURVE",
"1369 1300 OFFCURVE",
"1369 1163 CURVE",
"1369 1074 OFFCURVE",
"1322 991 OFFCURVE",
"1246 947 CURVE",
"1117 874 LINE",
"1116 822 OFFCURVE",
"1074 780 OFFCURVE",
"1022 780 CURVE",
"970 780 OFFCURVE",
"929 822 OFFCURVE",
"929 876 CURVE",
"929 929 LINE",
"929 962 OFFCURVE",
"946 993 OFFCURVE",
"975 1011 CURVE",
"1151 1111 LINE",
"1169 1120 OFFCURVE",
"1181 1141 OFFCURVE",
"1181 1162 CURVE",
"1181 1197 OFFCURVE",
"1155 1223 OFFCURVE",
"1122 1223 CURVE",
"891 1223 LINE",
"878 1223 OFFCURVE",
"866 1214 OFFCURVE",
"862 1201 CURVE",
"860 1197 LINE",
"843 1147 OFFCURVE",
"788 1120 OFFCURVE",
"739 1139 CURVE",
"690 1157 OFFCURVE",
"664 1211 OFFCURVE",
"682 1260 CURVE",
"683 1264 LINE",
"683 1265 LINE"
);
},
{
closed = 1;
nodes = (
"897 563 OFFCURVE",
"910 594 OFFCURVE",
"933 618 CURVE SMOOTH",
"957 641 OFFCURVE",
"989 655 OFFCURVE",
"1022 655 CURVE SMOOTH",
"1056 655 OFFCURVE",
"1088 641 OFFCURVE",
"1113 618 CURVE SMOOTH",
"1137 594 OFFCURVE",
"1150 563 OFFCURVE",
"1150 528 CURVE SMOOTH",
"1150 495 OFFCURVE",
"1137 462 OFFCURVE",
"1113 439 CURVE SMOOTH",
"1088 415 OFFCURVE",
"1056 402 OFFCURVE",
"1022 402 CURVE SMOOTH",
"989 402 OFFCURVE",
"957 415 OFFCURVE",
"933 439 CURVE SMOOTH",
"910 462 OFFCURVE",
"897 495 OFFCURVE",
"897 528 CURVE SMOOTH"
);
}
);
width = 2045;
}
);
unicode = F016;
},
{
glyphname = dashboard_exchange;
layers = (
{
layerId = "04DF3276-53F3-45FA-B502-39A9AACD583E";
paths = (
{
closed = 1;
nodes = (
"1681 1930 LINE SMOOTH",
"1876 1930 OFFCURVE",
"2003 1826 OFFCURVE",
"2003 1635 CURVE SMOOTH",
"2003 963 LINE SMOOTH",
"2003 768 OFFCURVE",
"1898 641 OFFCURVE",
"1709 641 CURVE SMOOTH",
"1392 641 LINE",
"1422 529 OFFCURVE",
"1437 462 OFFCURVE",
"1437 440 CURVE SMOOTH",
"1437 413 OFFCURVE",
"1412 393 OFFCURVE",
"1393 393 CURVE SMOOTH",
"1374 393 LINE SMOOTH",
"1366 393 OFFCURVE",
"1359 396 OFFCURVE",
"1353 402 CURVE SMOOTH",
"1025 731 LINE SMOOTH",
"1020 736 OFFCURVE",
"1017 743 OFFCURVE",
"1017 752 CURVE SMOOTH",
"1017 761 OFFCURVE",
"1020 768 OFFCURVE",
"1025 773 CURVE SMOOTH",
"1353 1101 LINE SMOOTH",
"1359 1107 OFFCURVE",
"1366 1110 OFFCURVE",
"1374 1110 CURVE SMOOTH",
"1393 1110 LINE SMOOTH",
"1412 1110 OFFCURVE",
"1437 1090 OFFCURVE",
"1437 1063 CURVE SMOOTH",
"1437 1044 OFFCURVE",
"1429 991.999 OFFCURVE",
"1412 905 CURVE SMOOTH",
"1403 862 LINE",
"1665 861 LINE SMOOTH",
"1736 861 OFFCURVE",
"1785 928 OFFCURVE",
"1785 996.999 CURVE SMOOTH",
"1785 1592 LINE SMOOTH",
"1785 1663 OFFCURVE",
"1717 1712 OFFCURVE",
"1648 1712 CURVE SMOOTH",
"299 1712 LINE SMOOTH",
"248 1712 OFFCURVE",
"218 1648 OFFCURVE",
"218 1559 CURVE",
"217 1556 OFFCURVE",
"216 1551 OFFCURVE",
"216 1548 CURVE",
"208 1512 OFFCURVE",
"177 1457 OFFCURVE",
"110 1457 CURVE SMOOTH",
"81 1457 OFFCURVE",
"59 1458 OFFCURVE",
"43 1461 CURVE",
"24 1463 OFFCURVE",
"13 1465 OFFCURVE",
"8 1468 CURVE",
"0 1471 LINE",
"0 1815 OFFCURVE",
"95 1930 OFFCURVE",
"278 1930 CURVE SMOOTH"
);
},
{
closed = 1;
nodes = (
"1837 346 OFFCURVE",
"1863 358 OFFCURVE",
"1894 358 CURVE SMOOTH",
"2003 355 LINE",
"2003 31 OFFCURVE",
"1911 -115 OFFCURVE",
"1726 -115 CURVE SMOOTH",
"322 -115 LINE SMOOTH",
"127 -115 OFFCURVE",
"0 -10 OFFCURVE",
"0 179 CURVE SMOOTH",
"0 853 LINE SMOOTH",
"0 1048 OFFCURVE",
"104 1174 OFFCURVE",
"295 1174 CURVE SMOOTH",
"611 1174 LINE",
"582 1287 OFFCURVE",
"567 1355 OFFCURVE",
"567 1376 CURVE SMOOTH",
"567 1404 OFFCURVE",
"590 1423 OFFCURVE",
"610 1423 CURVE SMOOTH",
"630 1423 LINE SMOOTH",
"637 1423 OFFCURVE",
"644 1420 OFFCURVE",
"650 1414 CURVE SMOOTH",
"977.999 1085 LINE SMOOTH",
"982.999 1080 OFFCURVE",
"985.999 1073 OFFCURVE",
"985.999 1064 CURVE SMOOTH",
"985.999 1055 OFFCURVE",
"982.999 1048 OFFCURVE",
"977.999 1043 CURVE SMOOTH",
"650 715 LINE SMOOTH",
"644 709 OFFCURVE",
"637 706 OFFCURVE",
"630 706 CURVE SMOOTH",
"610 706 LINE SMOOTH",
"590 706 OFFCURVE",
"567 725 OFFCURVE",
"567 753 CURVE SMOOTH",
"567 772 OFFCURVE",
"575 824 OFFCURVE",
"592 911 CURVE SMOOTH",
"600 954 LINE",
"338 955 LINE SMOOTH",
"267 955 OFFCURVE",
"218 888 OFFCURVE",
"218 819 CURVE SMOOTH",
"218 224 LINE SMOOTH",
"218 153 OFFCURVE",
"285 104 OFFCURVE",
"354 104 CURVE SMOOTH",
"1703 104 LINE SMOOTH",
"1755 104 OFFCURVE",
"1785 166 OFFCURVE",
"1785 257 CURVE",
"1788 268 LINE SMOOTH",
"1793 289 OFFCURVE",
"1802 307 OFFCURVE",
"1816 323 CURVE SMOOTH"
);
}
);
width = 2003;
}
);
unicode = F017;
},
{
glyphname = dashboard_messaging;
lastChange = "2024-01-11 21:01:48 +0000";
layers = (
{
layerId = "04DF3276-53F3-45FA-B502-39A9AACD583E";
paths = (
{
closed = 1;
nodes = (
"1068 575 OFFCURVE",
"1371 832 OFFCURVE",
"1371 1148 CURVE",
"1371 1465 OFFCURVE",
"1068 1722 OFFCURVE",
"694 1722 CURVE",
"319 1722 OFFCURVE",
"16 1465 OFFCURVE",
"16 1148 CURVE",
"16 1023 OFFCURVE",
"64 906 OFFCURVE",
"146 812 CURVE",
"133 781 OFFCURVE",
"116 754 OFFCURVE",
"99 732 CURVE",
"83 711 OFFCURVE",
"67 695 OFFCURVE",
"55 684 CURVE",
"50 679 OFFCURVE",
"45 675 OFFCURVE",
"41 672 CURVE",
"40 671 OFFCURVE",
"39 670 OFFCURVE",
"38 670 CURVE",
"37 669 LINE",
"19 656 OFFCURVE",
"12 632 OFFCURVE",
"19 611 CURVE",
"26 590 OFFCURVE",
"46 575 OFFCURVE",
"68 575 CURVE",
"139 575 OFFCURVE",
"211 593 OFFCURVE",
"271 616 CURVE",
"300 627 OFFCURVE",
"328 640 OFFCURVE",
"353 653 CURVE",
"453 603 OFFCURVE",
"569 575 OFFCURVE",
"694 575 CURVE"
);
},
{
closed = 1;
nodes = (
"1476 783 OFFCURVE",
"1152 507 OFFCURVE",
"770 475 CURVE",
"849 232 OFFCURVE",
"1112 54 OFFCURVE",
"1423 54 CURVE SMOOTH",
"1548 54 OFFCURVE",
"1664 82 OFFCURVE",
"1765 132 CURVE",
"1789 119 OFFCURVE",
"1817 106 OFFCURVE",
"1847 95 CURVE SMOOTH",
"1906 72 OFFCURVE",
"1977 54 OFFCURVE",
"2049 54 CURVE SMOOTH",
"2072 54 OFFCURVE",
"2092 69 OFFCURVE",
"2099 90 CURVE SMOOTH",
"2105 111 OFFCURVE",
"2098 135 OFFCURVE",
"2080 148 CURVE",
"2079 149 LINE SMOOTH",
"2078 149 OFFCURVE",
"2077 150 OFFCURVE",
"2075 151 CURVE SMOOTH",
"2072 154 OFFCURVE",
"2067 158 OFFCURVE",
"2062 163 CURVE SMOOTH",
"2050 174 OFFCURVE",
"2034 191 OFFCURVE",
"2018 211 CURVE SMOOTH",
"2001 233 OFFCURVE",
"1983 261 OFFCURVE",
"1971 291 CURVE",
"2053 385 OFFCURVE",
"2101 502 OFFCURVE",
"2101 627 CURVE SMOOTH",
"2101 930 OFFCURVE",
"1824 1178 OFFCURVE",
"1474 1199 CURVE",
"1475 1182 OFFCURVE",
"1476 1166 OFFCURVE",
"1476 1149 CURVE",
"1476 1148 LINE"
);
}
);
width = 2115;
}
);
unicode = F018;
},
{
glyphname = qtype_balance;
layers = (
{
layerId = "04DF3276-53F3-45FA-B502-39A9AACD583E";
paths = (
{
closed = 1;
nodes = (
"1502 665 LINE",
"1613 1198 LINE",
"1882 1198 LINE SMOOTH",
"1973 1198 OFFCURVE",
"2048 1274 OFFCURVE",
"2048 1365 CURVE SMOOTH",
"2048 1456 OFFCURVE",
"1973 1530 OFFCURVE",
"1882 1530 CURVE SMOOTH",
"1683 1530 LINE",
"1727 1739 LINE SMOOTH",
"1744 1828 OFFCURVE",
"1686 1919 OFFCURVE",
"1598 1935 CURVE SMOOTH",
"1587 1937 OFFCURVE",
"1575 1938 OFFCURVE",
"1563 1938 CURVE SMOOTH",
"1486 1938 OFFCURVE",
"1417 1883 OFFCURVE",
"1401 1808 CURVE SMOOTH",
"1343 1530 LINE",
"973.999 1530 LINE",
"1018 1742 LINE SMOOTH",
"1035 1834 OFFCURVE",
"979.999 1920 OFFCURVE",
"889 1937 CURVE",
"876 1940 OFFCURVE",
"864 1942 OFFCURVE",
"855 1942 CURVE SMOOTH",
"778 1942 OFFCURVE",
"709 1886 OFFCURVE",
"693 1810 CURVE SMOOTH",
"635 1530 LINE",
"290 1530 LINE SMOOTH",
"199 1530 OFFCURVE",
"125 1456 OFFCURVE",
"125 1365 CURVE SMOOTH",
"125 1274 OFFCURVE",
"199 1198 OFFCURVE",
"290 1198 CURVE SMOOTH",
"565 1198 LINE",
"454 665 LINE",
"166 665 LINE SMOOTH",
"75 665 OFFCURVE",
"0 590 OFFCURVE",
"0 499 CURVE SMOOTH",
"0 408 OFFCURVE",
"75 333 OFFCURVE",
"166 333 CURVE SMOOTH",
"385 333 LINE",
"330 69 LINE SMOOTH",
"313 -20 OFFCURVE",
"370 -108 OFFCURVE",
"459 -127 CURVE SMOOTH",
"470 -129 OFFCURVE",
"482 -130 OFFCURVE",
"494 -130 CURVE SMOOTH",
"573 -130 OFFCURVE",
"640 -75 OFFCURVE",
"655 1 CURVE SMOOTH",
"726 333 LINE",
"1094 333 LINE",
"1039 66 LINE SMOOTH",
"1020 -22 OFFCURVE",
"1078 -110 OFFCURVE",
"1167 -129 CURVE",
"1184 -132 OFFCURVE",
"1195 -134 OFFCURVE",
"1201 -134 CURVE SMOOTH",
"1280 -134 OFFCURVE",
"1348 -78 OFFCURVE",
"1363 -1 CURVE SMOOTH",
"1433 333 LINE",
"1758 333 LINE SMOOTH",
"1849 333 OFFCURVE",
"1923 408 OFFCURVE",
"1923 499 CURVE SMOOTH",
"1923 590 OFFCURVE",
"1849 665 OFFCURVE",
"1758 665 CURVE SMOOTH"
);
},
{
closed = 1;
nodes = (
"1274 1198 LINE",
"1163 665 LINE",
"794 665 LINE",
"905 1198 LINE"
);
}
);
width = 2048;
}
);
unicode = F019;
},
{
glyphname = dashboard_chart;
layers = (
{
layerId = "04DF3276-53F3-45FA-B502-39A9AACD583E";
paths = (
{
closed = 1;
nodes = (
"0 1930 LINE",
"180 1930 LINE",
"180 65 LINE",
"2044 65 LINE",
"2044 -115 LINE",
"0 -115 LINE"
);
},
{
closed = 1;
nodes = (
"1691 1182 LINE",
"1770 1293 LINE",
"1838 1244 LINE",
"1750 1120 LINE",
"1830 1035 LINE",
"1778 984.999 LINE",
"1707 1060 LINE",
"1584 888 LINE",
"1590 876 OFFCURVE",
"1593 862 OFFCURVE",
"1593 847 CURVE SMOOTH",
"1593 798 OFFCURVE",
"1552 757 OFFCURVE",
"1503 757 CURVE SMOOTH",
"1459 757 OFFCURVE",
"1422 789 OFFCURVE",
"1414 832 CURVE",
"1266 879 LINE",
"1247 862 OFFCURVE",
"1226 853 OFFCURVE",
"1202 853 CURVE SMOOTH",
"1194 853 OFFCURVE",
"1183 855 OFFCURVE",
"1170 859 CURVE",
"988.999 700 LINE",
"990.999 693 OFFCURVE",
"991.999 686 OFFCURVE",
"991.999 679 CURVE SMOOTH",
"991.999 630 OFFCURVE",
"953 589 OFFCURVE",
"902 589 CURVE SMOOTH",
"853 589 OFFCURVE",
"815 627 OFFCURVE",
"812 675 CURVE",
"655 751 LINE",
"638 739 OFFCURVE",
"620 733 OFFCURVE",
"601 733 CURVE",
"338 226 LINE",
"263 265 LINE",
"527 772 LINE",
"516 788 OFFCURVE",
"511 805 OFFCURVE",
"511 823 CURVE SMOOTH",
"511 874 OFFCURVE",
"552 914 OFFCURVE",
"601 914 CURVE SMOOTH",
"650 914 OFFCURVE",
"688 875 OFFCURVE",
"691 827 CURVE",
"848 751 LINE",
"865 763 OFFCURVE",
"883 769 OFFCURVE",
"902 769 CURVE SMOOTH",
"913 769 OFFCURVE",
"924 767 OFFCURVE",
"934 763 CURVE",
"1115 923 LINE",
"1113 929 OFFCURVE",
"1112 936 OFFCURVE",
"1112 944 CURVE SMOOTH",
"1112 992.999 OFFCURVE",
"1153 1034 OFFCURVE",
"1202 1034 CURVE SMOOTH",
"1247 1034 OFFCURVE",
"1284 1002 OFFCURVE",
"1291 959 CURVE",
"1440 912 LINE",
"1457 929 OFFCURVE",
"1478 938 OFFCURVE",
"1503 938 CURVE SMOOTH",
"1509 938 LINE",
"1512 937 OFFCURVE",
"1514 937 OFFCURVE",
"1515 937 CURVE",
"1648 1122 LINE",
"1534 1244 LINE",
"1524 1240 OFFCURVE",
"1514 1238 OFFCURVE",
"1503 1238 CURVE SMOOTH",
"1483 1238 OFFCURVE",
"1465 1244 OFFCURVE",
"1449 1257 CURVE",
"1292 1169 LINE",
"1292 1168 OFFCURVE",
"1292 1167 OFFCURVE",
"1293 1165 CURVE",
"1293 1160 LINE SMOOTH",
"1293 1111 OFFCURVE",
"1253 1070 OFFCURVE",
"1202 1070 CURVE SMOOTH",
"1153 1070 OFFCURVE",
"1112 1111 OFFCURVE",
"1112 1160 CURVE SMOOTH",
"1112 1168 OFFCURVE",
"1113 1175 OFFCURVE",
"1115 1181 CURVE",
"946 1310 LINE",
"931 1302 OFFCURVE",
"917 1298 OFFCURVE",
"902 1298 CURVE SMOOTH",
"886 1298 OFFCURVE",
"870 1303 OFFCURVE",
"854 1312 CURVE",
"690 1201 LINE",
"691 1197 OFFCURVE",
"691 1191 OFFCURVE",
"691 1184 CURVE SMOOTH",
"691 1133 OFFCURVE",
"650 1094 OFFCURVE",
"601 1094 CURVE SMOOTH",
"556 1094 OFFCURVE",
"518 1129 OFFCURVE",
"511 1173 CURVE",
"290 1240 LINE",
"311 1309 LINE",
"532 1242 LINE",
"550 1263 OFFCURVE",
"573 1274 OFFCURVE",
"601 1274 CURVE SMOOTH",
"618 1274 OFFCURVE",
"634 1269 OFFCURVE",
"649 1260 CURVE",
"813 1372 LINE",
"812 1379 OFFCURVE",
"811 1384 OFFCURVE",
"811 1389 CURVE SMOOTH",
"811 1438 OFFCURVE",
"853 1479 OFFCURVE",
"902 1479 CURVE SMOOTH",
"951 1479 OFFCURVE",
"991.999 1438 OFFCURVE",
"991.999 1389 CURVE SMOOTH",
"991.999 1382 OFFCURVE",
"990.999 1374 OFFCURVE",
"988.999 1367 CURVE",
"1158 1239 LINE",
"1171 1246 OFFCURVE",
"1186 1250 OFFCURVE",
"1202 1250 CURVE SMOOTH",
"1222 1250 OFFCURVE",
"1240 1244 OFFCURVE",
"1257 1232 CURVE",
"1413 1320 LINE",
"1413 1329 LINE SMOOTH",
"1413 1378 OFFCURVE",
"1454 1419 OFFCURVE",
"1503 1419 CURVE SMOOTH",
"1552 1419 OFFCURVE",
"1593 1378 OFFCURVE",
"1593 1329 CURVE SMOOTH",
"1593 1315 OFFCURVE",
"1591 1303 OFFCURVE",
"1586 1293 CURVE"
);
},
{
closed = 1;
nodes = (
"918 1359 OFFCURVE",
"932 1372 OFFCURVE",
"932 1389 CURVE SMOOTH",
"932 1405 OFFCURVE",
"918 1419 OFFCURVE",
"902 1419 CURVE SMOOTH",
"885 1419 OFFCURVE",
"872 1405 OFFCURVE",
"872 1389 CURVE SMOOTH",
"872 1372 OFFCURVE",
"885 1359 OFFCURVE",
"902 1359 CURVE SMOOTH"
);
},
{
closed = 1;
nodes = (
"1520 1298 OFFCURVE",
"1533 1312 OFFCURVE",
"1533 1329 CURVE SMOOTH",
"1533 1345 OFFCURVE",
"1520 1359 OFFCURVE",
"1503 1359 CURVE SMOOTH",
"1487 1359 OFFCURVE",
"1473 1345 OFFCURVE",
"1473 1329 CURVE SMOOTH",
"1473 1312 OFFCURVE",
"1487 1298 OFFCURVE",
"1503 1298 CURVE SMOOTH"
);
},
{
closed = 1;
nodes = (
"585 1157 OFFCURVE",
"592 1154 OFFCURVE",
"601 1154 CURVE SMOOTH",
"618 1154 OFFCURVE",
"631 1168 OFFCURVE",
"631 1184 CURVE SMOOTH",
"631 1201 OFFCURVE",
"618 1214 OFFCURVE",
"601 1214 CURVE SMOOTH",
"584 1214 OFFCURVE",
"571 1201 OFFCURVE",
"571 1184 CURVE SMOOTH",
"571 1176 OFFCURVE",
"574 1169 OFFCURVE",
"580 1163 CURVE"
);
},
{
closed = 1;
nodes = (
"1219 1130 OFFCURVE",
"1233 1144 OFFCURVE",
"1233 1160 CURVE SMOOTH",
"1233 1177 OFFCURVE",
"1219 1190 OFFCURVE",
"1202 1190 CURVE SMOOTH",
"1186 1190 OFFCURVE",
"1172 1177 OFFCURVE",
"1172 1160 CURVE SMOOTH",
"1172 1144 OFFCURVE",
"1186 1130 OFFCURVE",
"1202 1130 CURVE SMOOTH"
);
},
{
closed = 1;
nodes = (
"1219 914 OFFCURVE",
"1233 927 OFFCURVE",
"1233 944 CURVE SMOOTH",
"1233 960 OFFCURVE",
"1219 973.999 OFFCURVE",
"1202 973.999 CURVE SMOOTH",
"1186 973.999 OFFCURVE",
"1172 960 OFFCURVE",
"1172 944 CURVE SMOOTH",
"1172 927 OFFCURVE",
"1186 914 OFFCURVE",
"1202 914 CURVE SMOOTH"
);
},
{
closed = 1;
nodes = (
"1520 817 OFFCURVE",
"1533 831 OFFCURVE",
"1533 847 CURVE SMOOTH",
"1533 864 OFFCURVE",
"1520 877 OFFCURVE",
"1503 877 CURVE SMOOTH",
"1487 877 OFFCURVE",
"1473 864 OFFCURVE",
"1473 847 CURVE SMOOTH",
"1473 831 OFFCURVE",
"1487 817 OFFCURVE",
"1503 817 CURVE SMOOTH"
);
},
{
closed = 1;
nodes = (
"585 796 OFFCURVE",
"592 793 OFFCURVE",
"601 793 CURVE SMOOTH",
"618 793 OFFCURVE",
"631 807 OFFCURVE",
"631 823 CURVE SMOOTH",
"631 840 OFFCURVE",
"618 853 OFFCURVE",
"601 853 CURVE SMOOTH",
"584 853 OFFCURVE",
"571 840 OFFCURVE",
"571 823 CURVE SMOOTH",
"571 815 OFFCURVE",
"574 808 OFFCURVE",
"580 802 CURVE"
);
},
{
closed = 1;
nodes = (
"918 649 OFFCURVE",
"932 662 OFFCURVE",
"932 679 CURVE SMOOTH",
"932 696 OFFCURVE",
"918 709 OFFCURVE",
"902 709 CURVE SMOOTH",
"885 709 OFFCURVE",
"872 696 OFFCURVE",
"872 679 CURVE SMOOTH",
"872 662 OFFCURVE",
"885 649 OFFCURVE",
"902 649 CURVE SMOOTH"
);
}
);
width = 2045;
}
);
unicode = F020;
},
{
glyphname = dashboard_forms;
layers = (
{
layerId = "04DF3276-53F3-45FA-B502-39A9AACD583E";
paths = (
{
closed = 1;
nodes = (
"991.999 629 LINE",
"991.999 1500 LINE",
"666 1832 LINE",
"0 1832 LINE",
"0 629 LINE"
);
},
{
closed = 1;
nodes = (
"849 1452 LINE",
"849 772 LINE",
"143 772 LINE",
"143 1690 LINE",
"592 1690 LINE",
"592 1452 LINE"
);
},
{
closed = 1;
nodes = (
"745 1292 LINE",
"745 1237 LINE",
"241 1237 LINE",
"241 1292 LINE"
);
},
{
closed = 1;
nodes = (
"1083 1207 LINE",
"1083 966 LINE",
"2045 966 LINE",
"2045 1207 LINE"
);
},
{
closed = 1;
nodes = (
"745 1134 LINE",
"745 1079 LINE",
"241 1079 LINE",
"241 1134 LINE"
);
},
{
closed = 1;
nodes = (
"745 975.999 LINE",
"745 920 LINE",
"241 920 LINE",
"241 975.999 LINE"
);
},
{
closed = 1;
nodes = (
"1083 874 LINE",
"1083 633 LINE",
"2045 633 LINE",
"2045 874 LINE"
);
},
{
closed = 1;
nodes = (
"1083 540 LINE",
"1083 300 LINE",
"2045 300 LINE",
"2045 540 LINE"
);
},
{
closed = 1;
nodes = (
"1083 207 LINE",
"1083 -33 LINE",
"2045 -33 LINE",
"2045 207 LINE"
);
}
);
width = 2046;
}
);
unicode = F021;
},
{
glyphname = dashboard_userreport;
layers = (
{
layerId = "04DF3276-53F3-45FA-B502-39A9AACD583E";
paths = (
{
closed = 1;
nodes = (
"2045 749 OFFCURVE",
"1910 503 OFFCURVE",
"1693 356 CURVE SMOOTH",
"1584 283 OFFCURVE",
"1464 239 OFFCURVE",
"1332 225 CURVE",
"1333 208 OFFCURVE",
"1337 153 OFFCURVE",
"1342 59 CURVE",
"1337 54 OFFCURVE",
"1329 49 OFFCURVE",
"1319 43 CURVE",
"1308 37 OFFCURVE",
"1287 29 OFFCURVE",
"1254 20 CURVE SMOOTH",
"1189 0 OFFCURVE",
"1110 -13 OFFCURVE",
"947 -24 CURVE SMOOTH",
"865 -30 OFFCURVE",
"773 -33 OFFCURVE",
"671 -33 CURVE SMOOTH",
"462 -33 OFFCURVE",
"288 -20 OFFCURVE",
"198 -5 CURVE SMOOTH",
"153 2 OFFCURVE",
"114 11 OFFCURVE",
"83 21 CURVE",
"51 30 OFFCURVE",
"30 38 OFFCURVE",
"21 43 CURVE SMOOTH",
"12 48 OFFCURVE",
"5 53 OFFCURVE",
"0 58 CURVE",
"3 105 LINE SMOOTH",
"6 165 OFFCURVE",
"8 212 OFFCURVE",
"15 269 CURVE SMOOTH",
"18 298 OFFCURVE",
"22 317 OFFCURVE",
"26 328 CURVE SMOOTH",
"57 412 OFFCURVE",
"56 412 OFFCURVE",
"256 488 CURVE SMOOTH",
"373 531 OFFCURVE",
"443 560 OFFCURVE",
"466 573 CURVE SMOOTH",
"490 586 OFFCURVE",
"517 633 OFFCURVE",
"528 673 CURVE",
"513 704 OFFCURVE",
"499 738 OFFCURVE",
"488 773 CURVE",
"411 874 OFFCURVE",
"396 962 OFFCURVE",
"389 1047 CURVE SMOOTH",
"381 1131 OFFCURVE",
"397 1251 OFFCURVE",
"449 1322 CURVE SMOOTH",
"474 1355 OFFCURVE",
"506 1380 OFFCURVE",
"545 1396 CURVE",
"681 1651 OFFCURVE",
"948 1816 OFFCURVE",
"1247 1816 CURVE SMOOTH",
"1463 1816 OFFCURVE",
"1669 1726 OFFCURVE",
"1812 1583 CURVE SMOOTH",
"1955 1440 OFFCURVE",
"2045 1234 OFFCURVE",
"2045 1018 CURVE SMOOTH"
);
},
{
closed = 1;
nodes = (
"1466 421 OFFCURVE",
"1660 536 OFFCURVE",
"1766 720 CURVE SMOOTH",
"1819 811 OFFCURVE",
"1845 911 OFFCURVE",
"1845 1018 CURVE SMOOTH",
"1845 1234 OFFCURVE",
"1731 1429 OFFCURVE",
"1547 1537 CURVE SMOOTH",
"1455 1590 OFFCURVE",
"1355 1617 OFFCURVE",
"1247 1617 CURVE SMOOTH",
"1066 1617 OFFCURVE",
"899 1535 OFFCURVE",
"787 1400 CURVE",
"876 1368 OFFCURVE",
"929 1296 OFFCURVE",
"947 1190 CURVE SMOOTH",
"965 1084 OFFCURVE",
"954 1001 OFFCURVE",
"934 928 CURVE SMOOTH",
"917 865 OFFCURVE",
"875 795 OFFCURVE",
"839 755 CURVE SMOOTH",
"804 718 OFFCURVE",
"806 701 OFFCURVE",
"831 637 CURVE SMOOTH",
"844 604 OFFCURVE",
"859 583 OFFCURVE",
"877 573 CURVE SMOOTH",
"899 560 OFFCURVE",
"968.999 531 OFFCURVE",
"1086 488 CURVE SMOOTH",
"1186 450 OFFCURVE",
"1239 429 OFFCURVE",
"1246 424 CURVE",
"1247 424 OFFCURVE",
"1248 423 OFFCURVE",
"1249 422 CURVE SMOOTH",
"1250 421 OFFCURVE",
"1250 420 OFFCURVE",
"1251 420 CURVE SMOOTH"
);
},
{
closed = 1;
nodes = (
"1347 1417 LINE",
"1347 1061 LINE",
"1517 890 LINE",
"1377 749 LINE",
"1181 944 LINE",
"1158 965 OFFCURVE",
"1146 989.999 OFFCURVE",
"1146 1019 CURVE SMOOTH",
"1146 1417 LINE"
);
}
);
width = 2046;
}
);
unicode = F022;
},
{
glyphname = dashboard_datatable;
layers = (
{
layerId = "04DF3276-53F3-45FA-B502-39A9AACD583E";
paths = (
{
closed = 1;
nodes = (
"48 1827 LINE",
"48 1605 LINE",
"687 1605 LINE",
"687 1827 LINE"
);
},
{
closed = 1;
nodes = (
"798 1827 LINE",
"798 1605 LINE",
"1471 1605 LINE",
"1471 1827 LINE"
);
},
{
closed = 1;
nodes = (
"1582 1827 LINE",
"1582 1605 LINE",
"1993 1605 LINE",
"1993 1827 LINE"
);
},
{
closed = 1;
nodes = (
"48 1494 LINE",
"48 1272 LINE",
"687 1272 LINE",
"687 1494 LINE"
);
},
{
closed = 1;
nodes = (
"798 1494 LINE",
"798 1272 LINE",
"1471 1272 LINE",
"1471 1494 LINE"
);
},
{
closed = 1;
nodes = (
"1582 1494 LINE",
"1582 1272 LINE",
"1993 1272 LINE",
"1993 1494 LINE"
);
},
{
closed = 1;
nodes = (
"21 1188 LINE",
"21 911 LINE",
"715 911 LINE",
"715 1188 LINE"
);
},
{
closed = 1;
nodes = (
"771 1188 LINE",
"771 911 LINE",
"1498 911 LINE",
"1498 1188 LINE"
);
},
{
closed = 1;
nodes = (
"1554 1188 LINE",
"1554 911 LINE",
"2021 911 LINE",
"2021 1188 LINE"
);
},
{
closed = 1;
nodes = (
"659 1133 LINE",
"659 966 LINE",
"76 966 LINE",
"76 1133 LINE"
);
},
{
closed = 1;
nodes = (
"1443 1133 LINE",
"1443 966 LINE",
"826 966 LINE",
"826 1133 LINE"
);
},
{
closed = 1;
nodes = (
"1965 1133 LINE",
"1965 966 LINE",
"1609 966 LINE",
"1609 1133 LINE"
);
},
{
closed = 1;
nodes = (
"48 827 LINE",
"48 605 LINE",
"687 605 LINE",
"687 827 LINE"
);
},
{
closed = 1;
nodes = (
"798 827 LINE",
"798 605 LINE",
"1471 605 LINE",
"1471 827 LINE"
);
},
{
closed = 1;
nodes = (
"1582 827 LINE",
"1582 605 LINE",
"1993 605 LINE",
"1993 827 LINE"
);
},
{
closed = 1;
nodes = (
"21 522 LINE",
"21 244 LINE",
"715 244 LINE",
"715 522 LINE"
);
},
{
closed = 1;
nodes = (
"771 522 LINE",
"771 244 LINE",
"1498 244 LINE",
"1498 522 LINE"
);
},
{
closed = 1;
nodes = (
"1554 522 LINE",
"1554 244 LINE",
"2021 244 LINE",
"2021 522 LINE"
);
},
{
closed = 1;
nodes = (
"659 466 LINE",
"659 300 LINE",
"76 300 LINE",
"76 466 LINE"
);
},
{
closed = 1;
nodes = (
"1443 466 LINE",
"1443 300 LINE",
"826 300 LINE",
"826 466 LINE"
);
},
{
closed = 1;
nodes = (
"1965 466 LINE",
"1965 300 LINE",
"1609 300 LINE",
"1609 466 LINE"
);
},
{
closed = 1;
nodes = (
"48 161 LINE",
"48 -62 LINE",
"687 -62 LINE",
"687 161 LINE"
);
},
{
closed = 1;
nodes = (
"798 161 LINE",
"798 -62 LINE",
"1471 -62 LINE",
"1471 161 LINE"
);
},
{
closed = 1;
nodes = (
"1582 161 LINE",
"1582 -62 LINE",
"1993 -62 LINE",
"1993 161 LINE"
);
}
);
width = 2046;
}
);
unicode = F023;
},
{
glyphname = dashboard_pie;
layers = (
{
layerId = "04DF3276-53F3-45FA-B502-39A9AACD583E";
paths = (
{
closed = 1;
nodes = (
"1733 628 LINE",
"1733 1775 LINE",
"1985 1775 LINE",
"1985 628 LINE"
);
},
{
closed = 1;
nodes = (
"1368 1492 LINE",
"1108 1492 LINE",
"1108 1022 LINE",
"1005 1125 OFFCURVE",
"866 1192 OFFCURVE",
"711 1202 CURVE",
"711 628 LINE",
"1368 628 LINE"
);
},
{
closed = 1;
nodes = (
"1420 628 LINE",
"1420 1323 LINE",
"1680 1323 LINE",
"1680 628 LINE"
);
},
{
closed = 1;
nodes = (
"634 1202 LINE",
"313 1182 OFFCURVE",
"58 916 OFFCURVE",
"58 589 CURVE SMOOTH",
"58 250 OFFCURVE",
"333 -25 OFFCURVE",
"673 -25 CURVE SMOOTH",
"771 -25 OFFCURVE",
"863 -1 OFFCURVE",
"946 40 CURVE",
"639 570 LINE",
"636 576 OFFCURVE",
"634 583 OFFCURVE",
"634 589 CURVE SMOOTH"
);
},
{
closed = 1;
nodes = (
"788 705 LINE",
"788 1114 LINE",
"991.999 1069 OFFCURVE",
"1152 908 OFFCURVE",
"1197 705 CURVE"
);
},
{
closed = 1;
nodes = (
"739 551 LINE",
"1012 78 LINE",
"1168 181 OFFCURVE",
"1273 354 OFFCURVE",
"1285 551 CURVE"
);
}
);
width = 2046;
}
);
unicode = F024;
},
{
glyphname = dashboard_survey;
layers = (
{
layerId = "04DF3276-53F3-45FA-B502-39A9AACD583E";
paths = (
{
closed = 1;
nodes = (
"1343 1695 LINE SMOOTH",
"1385 1695 OFFCURVE",
"1420 1665 OFFCURVE",
"1428 1625 CURVE",
"1657 1625 LINE SMOOTH",
"1692 1625 OFFCURVE",
"1721 1596 OFFCURVE",
"1721 1560 CURVE SMOOTH",
"1721 6 LINE SMOOTH",
"1721 -29 OFFCURVE",
"1692 -59 OFFCURVE",
"1657 -59 CURVE SMOOTH",
"410 -59 LINE SMOOTH",
"374 -59 OFFCURVE",
"345 -29 OFFCURVE",
"345 6 CURVE SMOOTH",
"345 1560 LINE SMOOTH",
"345 1596 OFFCURVE",
"374 1625 OFFCURVE",
"410 1625 CURVE SMOOTH",
"638 1625 LINE",
"646 1665 OFFCURVE",
"681 1695 OFFCURVE",
"723 1695 CURVE SMOOTH",
"934 1695 LINE",
"938 1747 OFFCURVE",
"980.999 1788 OFFCURVE",
"1033 1788 CURVE SMOOTH",
"1086 1788 OFFCURVE",
"1128 1747 OFFCURVE",
"1132 1695 CURVE"
);
},
{
closed = 1;
nodes = (
"637 1470 LINE",
"473 1470 LINE",
"473 96 LINE",
"1593 96 LINE",
"1593 1470 LINE",
"1429 1470 LINE",
"1429 1423 LINE",
"637 1423 LINE"
);
},
{
closed = 1;
nodes = (
"690 1101 LINE",
"707 1084 LINE",
"841 1253 LINE",
"849 1262 OFFCURVE",
"847 1276 OFFCURVE",
"838 1283 CURVE SMOOTH",
"828 1291 OFFCURVE",
"815 1289 OFFCURVE",
"807 1280 CURVE",
"703 1148 LINE",
"675 1175 LINE SMOOTH",
"667 1183 OFFCURVE",
"653 1183 OFFCURVE",
"645 1174 CURVE SMOOTH",
"637 1165 OFFCURVE",
"637 1152 OFFCURVE",
"646 1143 CURVE SMOOTH"
);
},
{
closed = 1;
nodes = (
"561 1058 OFFCURVE",
"621 996.999 OFFCURVE",
"695 996.999 CURVE SMOOTH",
"769 996.999 OFFCURVE",
"829 1058 OFFCURVE",
"829 1132 CURVE SMOOTH",
"829 1144 OFFCURVE",
"819 1153 OFFCURVE",
"808 1153 CURVE SMOOTH",
"796 1153 OFFCURVE",
"786 1144 OFFCURVE",
"786 1132 CURVE SMOOTH",
"786 1082 OFFCURVE",
"745 1041 OFFCURVE",
"695 1041 CURVE SMOOTH",
"645 1041 OFFCURVE",
"604 1082 OFFCURVE",
"604 1132 CURVE SMOOTH",
"604 1182 OFFCURVE",
"645 1223 OFFCURVE",
"695 1223 CURVE SMOOTH",
"707 1223 OFFCURVE",
"717 1232 OFFCURVE",
"717 1244 CURVE SMOOTH",
"717 1256 OFFCURVE",
"707 1266 OFFCURVE",
"695 1266 CURVE SMOOTH",
"621 1266 OFFCURVE",
"561 1206 OFFCURVE",
"561 1132 CURVE SMOOTH"
);
},
{
closed = 1;
nodes = (
"1428 1098 LINE SMOOTH",
"1451 1098 OFFCURVE",
"1471 1118 OFFCURVE",
"1471 1142 CURVE SMOOTH",
"1471 1166 OFFCURVE",
"1451 1185 OFFCURVE",
"1428 1185 CURVE SMOOTH",
"953 1185 LINE SMOOTH",
"930 1185 OFFCURVE",
"910 1166 OFFCURVE",
"910 1142 CURVE SMOOTH",
"910 1118 OFFCURVE",
"930 1098 OFFCURVE",
"953 1098 CURVE SMOOTH"
);
},
{
closed = 1;
nodes = (
"690 724 LINE",
"707 708 LINE",
"722 726 LINE",
"841 876 LINE SMOOTH",
"849 886 OFFCURVE",
"847 899 OFFCURVE",
"838 907 CURVE",
"828 914 OFFCURVE",
"815 913 OFFCURVE",
"807 903 CURVE SMOOTH",
"703 772 LINE",
"675 798 LINE",
"667 806 OFFCURVE",
"653 806 OFFCURVE",
"645 797 CURVE",
"637 789 OFFCURVE",
"637 775 OFFCURVE",
"646 767 CURVE"
);
},
{
closed = 1;
nodes = (
"561 680 OFFCURVE",
"621 620 OFFCURVE",
"695 620 CURVE SMOOTH",
"769 620 OFFCURVE",
"829 680 OFFCURVE",
"829 754 CURVE SMOOTH",
"829 766 OFFCURVE",
"819 776 OFFCURVE",
"808 776 CURVE SMOOTH",
"796 776 OFFCURVE",
"786 766 OFFCURVE",
"786 754 CURVE SMOOTH",
"786 704 OFFCURVE",
"745 663 OFFCURVE",
"695 663 CURVE SMOOTH",
"645 663 OFFCURVE",
"604 704 OFFCURVE",
"604 754 CURVE SMOOTH",
"604 804 OFFCURVE",
"645 845 OFFCURVE",
"695 845 CURVE SMOOTH",
"707 845 OFFCURVE",
"717 855 OFFCURVE",
"717 867 CURVE SMOOTH",
"717 879 OFFCURVE",
"707 888 OFFCURVE",
"695 888 CURVE SMOOTH",
"621 888 OFFCURVE",
"561 828 OFFCURVE",
"561 754 CURVE SMOOTH"
);
},
{
closed = 1;
nodes = (
"1428 721 LINE SMOOTH",
"1451 721 OFFCURVE",
"1471 741 OFFCURVE",
"1471 765 CURVE SMOOTH",
"1471 789 OFFCURVE",
"1451 808 OFFCURVE",
"1428 808 CURVE SMOOTH",
"953 808 LINE SMOOTH",
"930 808 OFFCURVE",
"910 789 OFFCURVE",
"910 765 CURVE SMOOTH",
"910 741 OFFCURVE",
"930 721 OFFCURVE",
"953 721 CURVE SMOOTH"
);
},
{
closed = 1;
nodes = (
"829 473 OFFCURVE",
"769 533 OFFCURVE",
"695 533 CURVE SMOOTH",
"621 533 OFFCURVE",
"561 473 OFFCURVE",
"561 399 CURVE SMOOTH",
"561 325 OFFCURVE",
"621 265 OFFCURVE",
"695 265 CURVE SMOOTH",
"769 265 OFFCURVE",
"829 325 OFFCURVE",
"829 399 CURVE SMOOTH"
);
},
{
closed = 1;
nodes = (
"604 449 OFFCURVE",
"645 490 OFFCURVE",
"695 490 CURVE SMOOTH",
"745 490 OFFCURVE",
"786 449 OFFCURVE",
"786 399 CURVE SMOOTH",
"786 349 OFFCURVE",
"745 308 OFFCURVE",
"695 308 CURVE SMOOTH",
"645 308 OFFCURVE",
"604 349 OFFCURVE",
"604 399 CURVE SMOOTH"
);
},
{
closed = 1;
nodes = (
"1428 368 LINE SMOOTH",
"1451 368 OFFCURVE",
"1471 388 OFFCURVE",
"1471 412 CURVE SMOOTH",
"1471 435 OFFCURVE",
"1451 455 OFFCURVE",
"1428 455 CURVE SMOOTH",
"953 455 LINE SMOOTH",
"930 455 OFFCURVE",
"910 435 OFFCURVE",
"910 412 CURVE SMOOTH",
"910 388 OFFCURVE",
"930 368 OFFCURVE",
"953 368 CURVE SMOOTH"
);
}
);
width = 2046;
}
);
unicode = F025;
},
{
glyphname = dashboard_casemgt;
layers = (
{
layerId = "04DF3276-53F3-45FA-B502-39A9AACD583E";
paths = (
{
closed = 1;
nodes = (
"1932 1560 LINE",
"1766 1737 LINE",
"872 1737 LINE",
"872 1451 LINE",
"588 1451 LINE",
"588 1176 LINE",
"310 1176 LINE",
"310 892 LINE",
"172 892 LINE SMOOTH",
"144 892 OFFCURVE",
"124 870 OFFCURVE",
"124 842 CURVE SMOOTH",
"124 6 LINE SMOOTH",
"124 -22 OFFCURVE",
"139 -36 OFFCURVE",
"167 -36 CURVE SMOOTH",
"1336 -36 LINE SMOOTH",
"1363 -36 OFFCURVE",
"1380 -22 OFFCURVE",
"1380 6 CURVE SMOOTH",
"1380 283 LINE",
"1590 283 LINE",
"1590 570 LINE",
"1930 570 LINE",
"1930 1560 LINE"
);
},
{
closed = 1;
nodes = (
"1809 703 LINE",
"1590 703 LINE",
"1590 1273 LINE",
"1588 1273 LINE",
"1410 1451 LINE",
"992.999 1451 LINE",
"992.999 1616 LINE",
"1634 1616 LINE",
"1634 1430 LINE",
"1809 1430 LINE"
);
},
{
closed = 1;
nodes = (
"1468 428 LINE",
"1380 428 LINE",
"1380 669 LINE SMOOTH",
"1380 697 OFFCURVE",
"1363 724 OFFCURVE",
"1336 724 CURVE SMOOTH",
"1235 724 LINE",
"1235 998.999 LINE",
"1238 998.999 LINE",
"1061 1176 LINE",
"709 1176 LINE",
"709 1329 LINE",
"1291 1329 LINE",
"1291 1152 LINE",
"1468 1152 LINE"
);
},
{
closed = 1;
nodes = (
"432 1054 LINE",
"940 1054 LINE",
"940 877 LINE",
"1114 877 LINE",
"1114 724 LINE",
"670 724 LINE",
"598 872 LINE",
"590 882 LINE",
"581 891 OFFCURVE",
"573 892 OFFCURVE",
"562 892 CURVE SMOOTH",
"432 893 LINE"
);
}
);
width = 2046;
}
);
unicode = F026;
},
{
glyphname = dashboard_blankform;
layers = (
{
layerId = "04DF3276-53F3-45FA-B502-39A9AACD583E";
paths = (
{
closed = 1;
nodes = (
"1444 1725 LINE",
"374 1725 LINE",
"374 -45 LINE",
"1698 -45 LINE",
"1698 1472 LINE"
);
},
{
closed = 1;
nodes = (
"543 124 LINE",
"543 1556 LINE",
"1275 1556 LINE",
"1275 1303 LINE",
"1529 1303 LINE",
"1529 124 LINE"
);
}
);
width = 2046;
}
);
unicode = F027;
},
{
glyphname = qtype_external_case;
layers = (
{
layerId = "04DF3276-53F3-45FA-B502-39A9AACD583E";
paths = (
{
closed = 1;
nodes = (
"208 1754 LINE SMOOTH",
"97 1754 OFFCURVE",
"5 1658 OFFCURVE",
"5 1546 CURVE SMOOTH",
"5 170 LINE SMOOTH",
"5 55 OFFCURVE",
"97 -37 OFFCURVE",
"208 -37 CURVE SMOOTH",
"1836 -37 LINE SMOOTH",
"1951 -37 OFFCURVE",
"2040 55 OFFCURVE",
"2040 170 CURVE SMOOTH",
"2040 1097 LINE SMOOTH",
"2040 1213 OFFCURVE",
"1951 1306 OFFCURVE",
"1836 1306 CURVE SMOOTH",
"941 1306 LINE",
"941 1546 LINE SMOOTH",
"941 1658 OFFCURVE",
"848 1754 OFFCURVE",
"737 1754 CURVE SMOOTH"
);
},
{
closed = 1;
nodes = (
"1126 1642 LINE",
"1126 1480 LINE",
"1608 1480 LINE",
"1608 1596 OFFCURVE",
"1520 1642 OFFCURVE",
"1404 1642 CURVE SMOOTH"
);
},
{
closed = 1;
nodes = (
"1743 1091 LINE SMOOTH",
"1793 1091 OFFCURVE",
"1833 1051 OFFCURVE",
"1833 999.999 CURVE SMOOTH",
"1833 239 LINE SMOOTH",
"1833 190 OFFCURVE",
"1793 151 OFFCURVE",
"1743 151 CURVE SMOOTH",
"302 151 LINE SMOOTH",
"255 151 OFFCURVE",
"216 190 OFFCURVE",
"216 239 CURVE SMOOTH",
"216 999.999 LINE SMOOTH",
"216 1051 OFFCURVE",
"255 1091 OFFCURVE",
"302 1091 CURVE SMOOTH"
);
},
{
closed = 1;
nodes = (
"434 893 LINE SMOOTH",
"391 893 OFFCURVE",
"404 856 OFFCURVE",
"404 813 CURVE SMOOTH",
"404 435 LINE SMOOTH",
"404 390 OFFCURVE",
"391 354 OFFCURVE",
"434 354 CURVE SMOOTH",
"1621 354 LINE SMOOTH",
"1665 354 OFFCURVE",
"1651 390 OFFCURVE",
"1651 435 CURVE SMOOTH",
"1651 813 LINE SMOOTH",
"1651 856 OFFCURVE",
"1665 893 OFFCURVE",
"1621 893 CURVE SMOOTH"
);
}
);
width = 2046;
}
);
unicode = F028;
},
{
glyphname = qtype_external_case_data;
lastChange = "2015-12-30 23:03:00 +0000";
layers = (
{
layerId = "04DF3276-53F3-45FA-B502-39A9AACD583E";
paths = (
{
closed = 1;
nodes = (
"1967 1240 LINE",
"1399 1809 LINE",
"88 1809 LINE",
"88 -71 LINE",
"1967 -71 LINE"
);
},
{
closed = 1;
nodes = (
"460 301 LINE",
"460 1436 LINE",
"1028 1436 LINE",
"1028 868 LINE",
"1595 868 LINE",
"1595 301 LINE"
);
}
);
width = 2046;
}
);
unicode = F029;
},
{
glyphname = fd_expand;
layers = (
{
layerId = "04DF3276-53F3-45FA-B502-39A9AACD583E";
paths = (
{
closed = 1;
nodes = (
"1977 1556 LINE",
"73 1556 LINE",
"73 1784 LINE",
"1977 1784 LINE"
);
},
{
closed = 1;
nodes = (
"743 921 LINE",
"1024 1413 LINE",
"1310 921 LINE"
);
},
{
closed = 1;
nodes = (
"1310 782 LINE",
"1024 290 LINE",
"743 782 LINE"
);
},
{
closed = 1;
nodes = (
"73 147 LINE",
"1977 147 LINE",
"1977 -82 LINE",
"73 -82 LINE"
);
}
);
width = 2046;
}
);
unicode = F030;
},
{
glyphname = fd_collapse;
lastChange = "2015-12-30 23:03:39 +0000";
layers = (
{
layerId = "04DF3276-53F3-45FA-B502-39A9AACD583E";
paths = (
{
closed = 1;
nodes = (
"1977 1555 LINE",
"73 1555 LINE",
"73 1783 LINE",
"1977 1783 LINE"
);
},
{
closed = 1;
nodes = (
"741 1413 LINE",
"1025 922 LINE",
"1309 1413 LINE"
);
},
{
closed = 1;
nodes = (
"1309 288 LINE",
"1025 780 LINE",
"741 288 LINE"
);
},
{
closed = 1;
nodes = (
"73 147 LINE",
"1977 147 LINE",
"1977 -81 LINE",
"73 -81 LINE"
);
}
);
width = 2046;
}
);
unicode = F031;
},
{
glyphname = fd_case_property;
lastChange = "2015-12-30 23:18:11 +0000";
layers = (
{
layerId = "04DF3276-53F3-45FA-B502-39A9AACD583E";
paths = (
{
closed = 1;
nodes = (
"83 -71 LINE",
"83 1809 LINE",
"1963 1809 LINE",
"1963 -71 LINE"
);
},
{
closed = 1;
nodes = (
"420 1472 LINE",
"420 266 LINE",
"1626 266 LINE",
"1626 1472 LINE"
);
},
{
closed = 1;
nodes = (
"704 549 LINE",
"704 1188 LINE",
"1343 1188 LINE",
"1343 549 LINE"
);
}
);
width = 2046;
}
);
unicode = F032;
},
{
glyphname = fd_edit_form;
layers = (
{
layerId = "04DF3276-53F3-45FA-B502-39A9AACD583E";
paths = (
{
closed = 1;
nodes = (
"1800 1372 LINE SMOOTH",
"1786 1356 OFFCURVE",
"1761 1356 OFFCURVE",
"1745 1372 CURVE SMOOTH",
"1532 1585 LINE SMOOTH",
"1516 1601 OFFCURVE",
"1516 1624 OFFCURVE",
"1532 1640 CURVE SMOOTH",
"1659 1766 LINE SMOOTH",
"1693 1799 OFFCURVE",
"1747 1799 OFFCURVE",
"1779 1766 CURVE SMOOTH",
"1926 1619 LINE SMOOTH",
"1960 1585 OFFCURVE",
"1960 1531 OFFCURVE",
"1926 1497 CURVE SMOOTH"
);
},
{
closed = 1;
nodes = (
"999 581 LINE",
"985 556 OFFCURVE",
"961 556 OFFCURVE",
"945 570 CURVE SMOOTH",
"732 785 LINE SMOOTH",
"716 799 OFFCURVE",
"716 824 OFFCURVE",
"732 838 CURVE SMOOTH",
"1433 1539 LINE SMOOTH",
"1447 1554 OFFCURVE",
"1471 1554 OFFCURVE",
"1485 1539 CURVE SMOOTH",
"1700 1325 LINE SMOOTH",
"1716 1310 OFFCURVE",
"1716 1287 OFFCURVE",
"1700 1282 CURVE"
);
},
{
closed = 1;
nodes = (
"577 377 LINE",
"571 375 LINE",
"561 374 OFFCURVE",
"552 375 OFFCURVE",
"544 383 CURVE SMOOTH",
"537 391 OFFCURVE",
"535 400 OFFCURVE",
"537 409 CURVE",
"538 415 LINE",
"643 720 LINE",
"645 725 LINE",
"647 728 OFFCURVE",
"648 731 OFFCURVE",
"651 734 CURVE SMOOTH",
"662 745 OFFCURVE",
"679 745 OFFCURVE",
"691 734 CURVE SMOOTH",
"894 530 LINE SMOOTH",
"905 519 OFFCURVE",
"905 501 OFFCURVE",
"894 490 CURVE SMOOTH",
"893 487 OFFCURVE",
"890 485 OFFCURVE",
"886 483 CURVE",
"880 482 LINE"
);
},
{
closed = 1;
nodes = (
"287 1471 LINE",
"287 126 LINE",
"1631 126 LINE",
"1631 926 LINE SMOOTH",
"1631 979 OFFCURVE",
"1674 1022 OFFCURVE",
"1728 1022 CURVE SMOOTH",
"1781 1022 OFFCURVE",
"1824 979 OFFCURVE",
"1824 926 CURVE SMOOTH",
"1824 30 LINE SMOOTH",
"1824 16 OFFCURVE",
"1821 4 OFFCURVE",
"1817 -9 CURVE SMOOTH",
"1801 -43 OFFCURVE",
"1731 -66 OFFCURVE",
"1728 -66 CURVE SMOOTH",
"1728 -66 LINE",
"192 -66 LINE SMOOTH",
"137 -66 OFFCURVE",
"94 -24 OFFCURVE",
"94 30 CURVE SMOOTH",
"94 1567 LINE SMOOTH",
"94 1619 OFFCURVE",
"137 1663 OFFCURVE",
"192 1663 CURVE SMOOTH",
"1088 1663 LINE SMOOTH",
"1140 1663 OFFCURVE",
"1184 1619 OFFCURVE",
"1184 1567 CURVE SMOOTH",
"1184 1513 OFFCURVE",
"1140 1471 OFFCURVE",
"1088 1471 CURVE SMOOTH"
);
}
);
width = 2046;
}
);
unicode = F033;
},
{
glyphname = project_globe;
lastChange = "2016-08-16 00:00:52 +0000";
layers = (
{
layerId = "04DF3276-53F3-45FA-B502-39A9AACD583E";
paths = (
{
closed = 1;
nodes = (
"2098 328 OFFCURVE",
"1628 -141 OFFCURVE",
"1049 -141 CURVE SMOOTH",
"470 -141 OFFCURVE",
"0 328 OFFCURVE",
"0 908 CURVE SMOOTH",
"0 1487 OFFCURVE",
"470 1957 OFFCURVE",
"1049 1957 CURVE SMOOTH",
"1628 1957 OFFCURVE",
"2098 1487 OFFCURVE",
"2098 908 CURVE SMOOTH"
);
},
{
closed = 0;
nodes = (
"1811 1338 LINE",
"1813 1334 OFFCURVE",
"1815 1331 OFFCURVE",
"1817 1328 CURVE"
);
},
{
closed = 1;
nodes = (
"1922 855 OFFCURVE",
"1923 881 OFFCURVE",
"1923 908 CURVE SMOOTH",
"1923 928 OFFCURVE",
"1922 948 OFFCURVE",
"1921 968 CURVE",
"1921 966 LINE",
"1921 965 OFFCURVE",
"1921 964 OFFCURVE",
"1921 963 CURVE SMOOTH",
"1922 935 OFFCURVE",
"1922 906 OFFCURVE",
"1921 877 CURVE",
"1921 881 OFFCURVE",
"1921 885 OFFCURVE",
"1921 889 CURVE SMOOTH",
"1921 893 LINE",
"1921 881 LINE",
"1919 877 LINE",
"1919 870 LINE",
"1917 864 LINE",
"1915 870 LINE",
"1913 862 LINE",
"1912 856 LINE",
"1909 842 LINE",
"1909 839 LINE",
"1912 850 LINE",
"1913 850 LINE",
"1915 856 LINE",
"1917 852 LINE",
"1915 844 LINE",
"1915 835 LINE",
"1919 831 LINE",
"1919 839 LINE",
"1919 848 LINE",
"1921 858 LINE",
"1921 852 LINE",
"1921 844 OFFCURVE",
"1920 837 OFFCURVE",
"1919 829 CURVE",
"1920 830 LINE"
);
},
{
closed = 1;
nodes = (
"1909 749 OFFCURVE",
"1909 749 OFFCURVE",
"1909 750 CURVE SMOOTH",
"1909 751 OFFCURVE",
"1909 752 OFFCURVE",
"1909 753 CURVE SMOOTH",
"1910 756 OFFCURVE",
"1911 759 OFFCURVE",
"1911 762 CURVE",
"1909 759 LINE",
"1906 755 LINE",
"1902 753 LINE",
"1898 755 LINE",
"1894 742 LINE SMOOTH",
"1890 728 OFFCURVE",
"1886 714 OFFCURVE",
"1884 701 CURVE",
"1880 691 LINE",
"1880 683 LINE",
"1882 685 LINE",
"1880 672 LINE",
"1877 658 LINE",
"1877 656 LINE",
"1880 660 LINE",
"1884 672 OFFCURVE",
"1886 683 OFFCURVE",
"1888 695 CURVE",
"1892 701 LINE",
"1890 687 LINE",
"1892 681 LINE",
"1890 675 LINE",
"1890 673 LINE",
"1894 681 LINE",
"1893 678 LINE",
"1894 681 LINE",
"1894 686 LINE",
"1894 689 LINE",
"1896 695 LINE",
"1896 708 LINE",
"1900 716 LINE",
"1902 726 LINE",
"1904 726 LINE",
"1906 734 LINE",
"1898 722 LINE",
"1894 714 LINE",
"1892 724 LINE",
"1894 736 LINE",
"1898 742 LINE",
"1904 747 LINE",
"1908 747 LINE",
"1909 751 LINE",
"1909 749 OFFCURVE",
"1909 748 OFFCURVE",
"1909 746 CURVE",
"1909 748 LINE"
);
},
{
closed = 1;
nodes = (
"477 1567 LINE",
"483 1571 OFFCURVE",
"491 1577 OFFCURVE",
"497 1581 CURVE",
"505 1589 LINE",
"514 1593 LINE",
"522 1596 LINE",
"530 1600 LINE",
"538 1604 LINE",
"542 1602 LINE",
"545 1602 LINE",
"547 1600 LINE",
"557 1602 LINE",
"571 1608 LINE",
"577 1608 LINE",
"577 1606 LINE",
"586 1602 LINE",
"598 1604 OFFCURVE",
"608 1604 OFFCURVE",
"619 1606 CURVE",
"615 1608 OFFCURVE",
"613 1612 OFFCURVE",
"610 1614 CURVE",
"619 1616 LINE",
"627 1622 LINE",
"625 1618 OFFCURVE",
"623 1614 OFFCURVE",
"621 1610 CURVE",
"629 1608 LINE",
"637 1616 LINE",
"641 1624 LINE",
"641 1628 LINE",
"645 1628 LINE",
"645 1622 LINE",
"650 1626 LINE",
"654 1633 LINE",
"658 1631 LINE",
"662 1629 LINE",
"668 1631 LINE",
"670 1637 LINE",
"678 1633 LINE",
"683 1643 LINE",
"687 1641 LINE",
"697 1647 LINE",
"701 1655 LINE",
"709 1655 LINE",
"713 1653 LINE",
"716 1659 LINE",
"730 1664 LINE",
"738 1666 OFFCURVE",
"744 1668 OFFCURVE",
"751 1670 CURVE",
"746 1674 LINE",
"755 1670 LINE",
"759 1670 LINE",
"779 1670 LINE",
"783 1674 LINE",
"777 1680 LINE",
"773 1682 OFFCURVE",
"765 1682 OFFCURVE",
"761 1684 CURVE",
"751 1686 LINE",
"761 1688 LINE",
"763 1692 LINE",
"755 1692 LINE",
"755 1698 LINE",
"749 1701 LINE",
"751 1703 LINE",
"753 1701 OFFCURVE",
"757 1699 OFFCURVE",
"759 1698 CURVE",
"767 1694 LINE",
"775 1694 LINE",
"775 1698 OFFCURVE",
"775 1701 OFFCURVE",
"775 1705 CURVE",
"773 1707 OFFCURVE",
"771 1711 OFFCURVE",
"771 1715 CURVE",
"767 1719 LINE",
"761 1719 LINE",
"761 1723 LINE",
"753 1725 LINE",
"748 1725 LINE",
"740 1719 LINE",
"744 1723 LINE",
"746 1725 LINE",
"751 1729 LINE",
"751 1730 LINE",
"650 1693 OFFCURVE",
"557 1638 OFFCURVE",
"477 1569 CURVE"
);
},
{
closed = 1;
nodes = (
"1494 1659 LINE",
"1500 1655 LINE",
"1511 1649 LINE",
"1509 1647 LINE",
"1507 1643 LINE",
"1503 1641 LINE",
"1505 1635 LINE",
"1500 1635 LINE",
"1511 1626 LINE",
"1505 1626 LINE",
"1496 1629 LINE",
"1492 1633 LINE",
"1484 1637 LINE",
"1476 1639 LINE",
"1474 1637 LINE",
"1468 1635 LINE",
"1478 1629 LINE",
"1468 1624 LINE",
"1463 1628 LINE",
"1453 1624 LINE",
"1451 1620 LINE",
"1453 1618 LINE",
"1443 1622 LINE",
"1443 1618 LINE",
"1435 1618 LINE",
"1430 1618 LINE",
"1430 1622 LINE",
"1431 1629 LINE",
"1431 1633 LINE",
"1426 1637 LINE",
"1420 1639 LINE",
"1408 1639 LINE",
"1398 1635 LINE",
"1398 1631 LINE",
"1393 1635 LINE",
"1383 1633 LINE",
"1385 1637 LINE",
"1375 1637 LINE",
"1371 1631 LINE",
"1371 1628 LINE",
"1375 1624 LINE",
"1367 1622 LINE",
"1363 1614 LINE",
"1358 1614 LINE",
"1346 1610 LINE",
"1346 1608 LINE",
"1334 1604 LINE",
"1328 1598 LINE",
"1323 1596 LINE",
"1321 1589 LINE",
"1328 1587 LINE",
"1317 1583 LINE",
"1301 1581 LINE",
"1292 1577 LINE",
"1299 1567 LINE",
"1311 1560 LINE",
"1296 1563 LINE",
"1282 1561 LINE",
"1272 1556 LINE",
"1280 1550 LINE",
"1272 1550 LINE",
"1270 1560 LINE",
"1264 1563 LINE",
"1261 1563 LINE",
"1266 1556 LINE",
"1257 1548 LINE",
"1270 1540 LINE",
"1270 1530 LINE",
"1272 1530 LINE",
"1280 1530 LINE",
"1280 1523 LINE",
"1288 1517 LINE",
"1284 1511 LINE",
"1284 1505 LINE",
"1276 1501 LINE",
"1274 1497 LINE",
"1264 1497 LINE",
"1274 1513 LINE",
"1274 1521 LINE",
"1262 1527 LINE",
"1257 1540 LINE",
"1251 1546 LINE",
"1245 1548 LINE",
"1247 1556 LINE",
"1243 1561 LINE",
"1224 1561 LINE",
"1220 1560 LINE",
"1220 1550 LINE",
"1210 1540 LINE",
"1212 1536 LINE",
"1220 1528 LINE",
"1220 1523 LINE",
"1229 1523 LINE",
"1231 1521 LINE",
"1241 1517 LINE",
"1237 1511 LINE",
"1204 1521 LINE",
"1193 1523 LINE",
"1169 1525 LINE",
"1165 1521 LINE",
"1175 1515 LINE",
"1167 1507 LINE",
"1156 1513 LINE",
"1144 1509 LINE",
"1128 1509 LINE",
"1123 1505 LINE",
"1113 1505 LINE",
"1121 1511 LINE",
"1115 1511 LINE",
"1101 1507 OFFCURVE",
"1086 1501 OFFCURVE",
"1070 1497 CURVE",
"1068 1492 LINE",
"1055 1490 LINE",
"1049 1493 LINE",
"1049 1499 LINE",
"1060 1501 LINE",
"1056 1507 LINE",
"1033 1511 LINE",
"1035 1499 LINE",
"1031 1493 LINE",
"1037 1488 LINE",
"1031 1480 LINE",
"1023 1484 LINE",
"1016 1484 LINE",
"994 1474 LINE",
"1000 1466 LINE",
"992 1464 LINE",
"971 1472 LINE",
"965 1468 LINE",
"969 1462 LINE",
"967 1457 LINE",
"961 1460 LINE",
"950 1464 LINE",
"952 1480 LINE",
"940 1488 LINE",
"946 1488 LINE",
"957 1486 OFFCURVE",
"971 1482 OFFCURVE",
"983 1478 CURVE",
"998 1480 LINE",
"1008 1486 LINE",
"1008 1493 LINE",
"1002 1499 LINE",
"973 1513 LINE",
"952 1517 LINE",
"940 1525 LINE",
"930 1523 LINE",
"924 1530 LINE",
"936 1532 LINE",
"915 1542 LINE",
"901 1542 LINE",
"887 1544 LINE",
"872 1538 LINE",
"860 1540 LINE",
"843 1538 LINE",
"827 1532 OFFCURVE",
"814 1527 OFFCURVE",
"798 1523 CURVE",
"779 1515 OFFCURVE",
"761 1505 OFFCURVE",
"744 1495 CURVE",
"722 1488 LINE",
"697 1484 LINE",
"685 1478 LINE",
"672 1453 LINE",
"668 1441 LINE",
"676 1433 LINE",
"689 1433 LINE",
"713 1443 LINE",
"714 1435 LINE",
"713 1418 LINE",
"713 1404 LINE",
"711 1392 LINE",
"722 1391 LINE",
"732 1398 LINE",
"744 1396 LINE",
"753 1406 LINE",
"765 1425 LINE",
"775 1427 LINE",
"788 1439 LINE",
"783 1447 LINE",
"781 1455 LINE",
"794 1468 LINE",
"808 1472 OFFCURVE",
"819 1476 OFFCURVE",
"833 1482 CURVE",
"835 1486 LINE",
"847 1492 LINE",
"862 1493 LINE",
"872 1488 LINE",
"872 1484 LINE",
"866 1482 LINE",
"841 1472 LINE",
"829 1466 LINE",
"821 1460 LINE",
"821 1451 LINE",
"816 1441 LINE",
"823 1437 LINE",
"827 1431 LINE",
"843 1431 LINE",
"860 1433 LINE",
"878 1433 LINE",
"885 1422 LINE",
"872 1416 LINE",
"862 1416 LINE",
"852 1420 LINE",
"841 1420 LINE",
"827 1418 LINE",
"825 1412 LINE",
"829 1408 LINE",
"833 1410 LINE",
"831 1404 OFFCURVE",
"827 1400 OFFCURVE",
"825 1394 CURVE",
"817 1394 LINE",
"814 1404 LINE",
"804 1402 LINE",
"796 1396 LINE",
"792 1389 LINE",
"790 1379 LINE",
"775 1377 LINE",
"771 1371 LINE",
"761 1373 LINE",
"761 1377 LINE",
"751 1381 LINE",
"742 1379 OFFCURVE",
"730 1377 OFFCURVE",
"720 1375 CURVE",
"713 1373 LINE",
"711 1377 LINE",
"703 1383 LINE",
"695 1381 LINE",
"685 1381 LINE",
"687 1385 LINE",
"680 1389 LINE",
"681 1392 LINE",
"681 1398 LINE",
"693 1406 LINE",
"695 1404 LINE",
"699 1408 LINE",
"695 1410 LINE",
"695 1414 LINE",
"703 1416 LINE",
"707 1422 LINE",
"697 1420 LINE",
"693 1418 LINE",
"685 1418 LINE",
"681 1416 LINE",
"678 1414 LINE",
"672 1402 LINE",
"672 1394 LINE",
"668 1389 LINE",
"668 1385 LINE",
"658 1381 LINE",
"658 1383 LINE",
"650 1383 LINE",
"646 1381 LINE",
"639 1383 LINE",
"623 1381 LINE",
"606 1365 LINE",
"600 1363 LINE SMOOTH",
"594 1361 OFFCURVE",
"588 1361 OFFCURVE",
"582 1361 CURVE",
"575 1352 LINE",
"549 1348 LINE",
"544 1356 LINE",
"538 1342 LINE",
"526 1350 LINE",
"514 1350 LINE",
"510 1340 LINE",
"520 1332 LINE",
"522 1324 LINE",
"522 1307 LINE",
"509 1284 LINE",
"501 1278 LINE",
"487 1282 LINE",
"479 1284 LINE",
"472 1289 LINE",
"460 1293 LINE",
"452 1299 LINE",
"437 1293 LINE",
"437 1287 LINE",
"431 1280 LINE",
"429 1276 LINE",
"429 1270 LINE",
"427 1264 LINE",
"421 1256 LINE",
"417 1251 LINE",
"411 1247 LINE",
"407 1239 LINE",
"407 1233 LINE",
"411 1231 LINE",
"409 1223 LINE",
"404 1214 LINE",
"407 1214 LINE",
"411 1210 LINE",
"415 1212 LINE",
"423 1208 LINE",
"423 1200 LINE",
"425 1194 LINE",
"429 1194 LINE",
"435 1198 LINE",
"442 1200 LINE",
"448 1198 OFFCURVE",
"454 1196 OFFCURVE",
"462 1194 CURVE",
"474 1202 LINE",
"481 1202 LINE",
"487 1210 LINE",
"495 1214 LINE",
"495 1221 LINE",
"503 1231 LINE",
"516 1239 LINE",
"518 1243 LINE",
"532 1243 LINE",
"545 1249 LINE",
"547 1256 LINE",
"551 1264 LINE",
"567 1264 LINE",
"584 1256 LINE",
"596 1262 LINE",
"600 1262 LINE",
"608 1266 LINE",
"613 1266 LINE",
"619 1260 LINE",
"625 1258 LINE",
"623 1245 LINE",
"627 1235 LINE",
"635 1225 LINE",
"641 1218 LINE",
"648 1216 LINE",
"652 1210 LINE",
"658 1206 LINE",
"660 1200 LINE",
"662 1200 LINE",
"664 1194 OFFCURVE",
"664 1190 OFFCURVE",
"666 1185 CURVE",
"662 1183 LINE",
"658 1175 LINE",
"656 1173 OFFCURVE",
"656 1173 OFFCURVE",
"656 1171 CURVE",
"662 1171 LINE",
"672 1181 LINE",
"678 1181 LINE",
"681 1186 LINE",
"674 1192 LINE",
"681 1200 LINE",
"693 1196 LINE",
"697 1188 LINE",
"701 1190 LINE",
"701 1192 LINE",
"693 1200 LINE SMOOTH",
"689 1204 OFFCURVE",
"683 1208 OFFCURVE",
"678 1212 CURVE",
"681 1214 LINE",
"680 1218 LINE",
"670 1220 LINE",
"660 1231 LINE",
"658 1243 LINE",
"650 1251 LINE",
"648 1258 LINE",
"650 1262 LINE",
"652 1268 LINE",
"662 1272 LINE",
"670 1268 LINE",
"668 1268 LINE",
"668 1268 LINE",
"666 1264 LINE",
"668 1260 LINE",
"674 1266 LINE",
"680 1262 LINE",
"678 1258 LINE",
"680 1253 LINE",
"678 1253 LINE",
"683 1241 LINE",
"693 1235 LINE",
"699 1229 LINE SMOOTH",
"703 1225 OFFCURVE",
"709 1223 OFFCURVE",
"713 1220 CURVE",
"714 1216 LINE",
"716 1214 LINE",
"716 1214 LINE",
"714 1210 LINE",
"711 1200 LINE",
"711 1194 LINE",
"716 1188 LINE",
"716 1185 LINE",
"716 1185 LINE",
"716 1181 LINE",
"718 1175 OFFCURVE",
"722 1171 OFFCURVE",
"724 1165 CURVE",
"724 1155 LINE",
"726 1144 LINE",
"736 1136 LINE",
"744 1136 LINE",
"742 1148 LINE",
"749 1148 LINE",
"748 1155 LINE",
"759 1150 LINE",
"761 1157 LINE",
"755 1161 LINE",
"749 1169 LINE",
"755 1171 LINE",
"751 1179 LINE",
"751 1186 LINE",
"753 1188 LINE",
"757 1181 LINE",
"759 1181 OFFCURVE",
"761 1181 OFFCURVE",
"763 1181 CURVE",
"769 1183 LINE",
"763 1190 LINE",
"779 1192 LINE",
"784 1190 LINE",
"792 1188 LINE",
"792 1186 LINE",
"794 1181 LINE",
"800 1185 OFFCURVE",
"806 1186 OFFCURVE",
"812 1190 CURVE",
"827 1190 LINE",
"829 1194 LINE",
"819 1200 LINE",
"819 1206 LINE",
"817 1214 LINE",
"823 1223 LINE",
"831 1227 LINE",
"837 1243 LINE",
"841 1241 LINE",
"847 1243 LINE",
"847 1247 LINE",
"858 1256 LINE",
"864 1262 LINE",
"876 1262 LINE",
"876 1256 LINE",
"893 1253 LINE",
"897 1249 LINE",
"885 1245 LINE",
"884 1243 LINE",
"895 1239 LINE",
"891 1233 LINE",
"895 1231 LINE",
"913 1237 LINE",
"926 1239 LINE",
"930 1243 LINE",
"919 1243 LINE",
"913 1247 LINE",
"913 1254 LINE",
"924 1258 LINE",
"936 1258 LINE",
"944 1260 LINE",
"954 1260 LINE",
"965 1262 LINE",
"965 1260 LINE",
"948 1256 LINE",
"954 1251 LINE",
"942 1241 LINE",
"932 1239 LINE",
"940 1231 LINE",
"954 1225 LINE",
"969 1214 LINE",
"973 1210 LINE",
"981 1208 LINE",
"989 1202 LINE",
"1000 1185 LINE",
"998 1179 LINE",
"983 1173 LINE",
"971 1175 LINE",
"955 1173 LINE",
"938 1179 LINE",
"917 1190 LINE",
"895 1192 LINE",
"880 1190 LINE",
"864 1183 LINE",
"841 1186 LINE",
"833 1177 LINE",
"814 1179 LINE",
"798 1167 LINE",
"804 1159 LINE",
"796 1150 LINE",
"804 1142 LINE",
"810 1128 LINE",
"823 1126 LINE",
"835 1118 LINE",
"845 1118 LINE",
"849 1124 LINE",
"862 1122 LINE",
"872 1115 LINE",
"891 1115 LINE",
"901 1122 LINE",
"911 1118 LINE",
"919 1118 LINE",
"913 1113 LINE",
"917 1107 LINE",
"913 1101 LINE",
"913 1091 LINE",
"913 1091 LINE",
"905 1082 LINE",
"899 1070 LINE",
"899 1070 LINE",
"897 1066 LINE",
"893 1056 LINE",
"889 1050 LINE",
"889 1050 LINE",
"885 1047 LINE",
"878 1043 LINE",
"868 1045 LINE",
"858 1049 LINE",
"854 1045 LINE",
"850 1052 LINE",
"841 1054 LINE",
"829 1054 LINE",
"823 1050 LINE",
"812 1047 LINE",
"802 1052 OFFCURVE",
"790 1056 OFFCURVE",
"781 1060 CURVE",
"763 1062 LINE",
"761 1068 LINE",
"748 1072 LINE",
"744 1074 LINE",
"740 1074 LINE",
"736 1080 LINE",
"718 1085 LINE",
"709 1085 LINE",
"699 1080 LINE",
"693 1074 LINE",
"693 1062 LINE",
"685 1056 LINE",
"678 1054 LINE",
"666 1064 LINE",
"650 1072 LINE",
"641 1076 LINE",
"637 1089 LINE",
"621 1099 LINE",
"612 1103 LINE",
"606 1103 LINE",
"592 1111 LINE",
"588 1115 LINE",
"586 1122 LINE",
"580 1124 LINE",
"580 1132 LINE",
"590 1140 LINE",
"596 1151 LINE",
"592 1155 LINE",
"594 1161 LINE",
"602 1167 LINE",
"602 1169 LINE",
"590 1165 LINE",
"592 1171 LINE",
"584 1175 LINE",
"571 1171 LINE",
"563 1171 LINE",
"559 1175 LINE",
"547 1177 LINE",
"536 1173 LINE",
"532 1177 LINE",
"518 1179 OFFCURVE",
"507 1181 OFFCURVE",
"495 1183 CURVE",
"483 1181 LINE",
"475 1177 LINE",
"464 1177 LINE",
"452 1173 LINE",
"448 1175 LINE",
"441 1181 LINE",
"431 1183 LINE",
"427 1190 LINE",
"421 1192 LINE",
"415 1185 OFFCURVE",
"409 1179 OFFCURVE",
"404 1173 CURVE",
"396 1169 LINE",
"386 1165 LINE",
"378 1157 LINE",
"374 1151 LINE",
"367 1142 LINE",
"367 1124 LINE",
"357 1116 LINE",
"351 1115 LINE",
"341 1107 LINE",
"334 1109 LINE",
"328 1105 LINE",
"318 1093 LINE",
"312 1091 LINE",
"306 1083 LINE",
"304 1076 LINE",
"301 1068 LINE",
"297 1066 LINE",
"291 1058 LINE",
"285 1050 LINE",
"285 1045 LINE",
"281 1039 LINE",
"277 1037 LINE",
"275 1033 OFFCURVE",
"275 1029 OFFCURVE",
"273 1025 CURVE",
"273 1015 LINE",
"273 1008 LINE",
"271 1002 LINE",
"271 994 OFFCURVE",
"271 988 OFFCURVE",
"270 980 CURVE",
"266 967 LINE",
"262 961 LINE",
"262 953 LINE",
"260 947 LINE",
"258 944 LINE",
"254 942 LINE",
"256 934 LINE",
"258 920 LINE",
"256 914 LINE",
"256 909 OFFCURVE",
"256 905 OFFCURVE",
"256 899 CURVE",
"258 895 LINE",
"258 893 LINE",
"260 887 LINE",
"262 885 LINE",
"266 877 LINE",
"268 874 LINE",
"268 870 LINE",
"268 862 LINE",
"270 858 LINE",
"271 856 LINE",
"273 848 LINE",
"277 839 LINE",
"277 827 LINE",
"279 821 LINE",
"283 811 LINE",
"289 804 LINE",
"291 800 LINE",
"297 788 LINE",
"304 776 LINE",
"312 763 LINE",
"322 753 LINE",
"324 753 LINE",
"326 753 LINE",
"332 755 OFFCURVE",
"336 755 OFFCURVE",
"341 757 CURVE",
"353 755 LINE",
"359 753 LINE",
"367 749 LINE",
"371 747 LINE",
"380 740 LINE",
"390 742 LINE",
"396 745 LINE",
"413 749 LINE",
"423 749 LINE",
"433 749 LINE",
"439 747 OFFCURVE",
"446 747 OFFCURVE",
"452 745 CURVE",
"460 734 LINE",
"464 722 LINE",
"472 712 LINE",
"481 710 LINE",
"485 712 LINE",
"489 710 LINE",
"503 712 LINE",
"503 708 LINE",
"507 707 LINE",
"509 699 LINE",
"514 695 LINE",
"520 683 LINE",
"518 672 LINE",
"514 656 LINE",
"516 654 LINE",
"516 648 OFFCURVE",
"514 640 OFFCURVE",
"512 635 CURVE",
"510 631 LINE",
"510 627 LINE",
"518 611 LINE",
"528 598 LINE",
"542 582 LINE",
"555 569 LINE",
"557 563 OFFCURVE",
"559 557 OFFCURVE",
"561 553 CURVE",
"561 551 LINE",
"569 541 LINE",
"573 534 OFFCURVE",
"575 526 OFFCURVE",
"578 518 CURVE",
"575 514 LINE",
"575 512 LINE",
"578 508 OFFCURVE",
"580 503 OFFCURVE",
"584 497 CURVE SMOOTH",
"588 491 LINE",
"590 483 LINE",
"590 473 LINE",
"586 469 LINE",
"580 462 LINE",
"575 458 LINE",
"573 448 LINE",
"573 442 LINE",
"571 433 LINE",
"571 423 LINE",
"573 417 OFFCURVE",
"575 411 OFFCURVE",
"577 405 CURVE",
"590 392 LINE",
"596 384 OFFCURVE",
"600 378 OFFCURVE",
"606 370 CURVE",
"615 361 LINE",
"621 355 LINE",
"625 349 LINE",
"629 335 LINE",
"639 318 LINE",
"645 310 LINE",
"650 300 LINE",
"658 293 LINE",
"670 283 LINE",
"681 271 OFFCURVE",
"691 260 OFFCURVE",
"703 250 CURVE",
"707 242 LINE",
"705 240 LINE",
"711 234 LINE",
"713 228 LINE",
"714 227 LINE",
"714 228 LINE",
"718 225 LINE",
"722 225 LINE",
"728 221 LINE",
"732 221 LINE",
"738 223 LINE",
"748 223 LINE",
"757 225 LINE",
"761 223 LINE",
"767 223 LINE",
"781 219 LINE",
"786 221 LINE",
"794 219 LINE",
"794 221 LINE",
"800 221 LINE",
"812 223 LINE",
"819 227 LINE",
"825 230 OFFCURVE",
"831 236 OFFCURVE",
"837 240 CURVE",
"843 246 LINE",
"845 250 LINE",
"849 254 LINE",
"852 256 OFFCURVE",
"854 258 OFFCURVE",
"858 260 CURVE",
"860 263 LINE",
"860 271 LINE",
"862 279 LINE",
"862 285 LINE",
"858 285 LINE",
"856 289 LINE",
"862 293 LINE",
"870 296 OFFCURVE",
"880 298 OFFCURVE",
"887 300 CURVE",
"893 304 LINE",
"895 308 LINE",
"891 310 LINE",
"891 316 LINE",
"891 326 LINE",
"889 326 LINE",
"889 330 LINE",
"885 335 LINE",
"878 343 LINE",
"878 351 LINE",
"884 353 LINE",
"893 361 LINE",
"899 363 LINE",
"915 374 LINE",
"922 376 OFFCURVE",
"932 380 OFFCURVE",
"942 382 CURVE",
"950 388 LINE",
"959 392 LINE",
"963 400 LINE",
"961 405 LINE",
"959 425 LINE",
"957 436 LINE",
"957 448 LINE",
"955 454 LINE",
"950 458 LINE",
"944 471 LINE",
"938 479 LINE",
"938 485 LINE",
"938 489 LINE",
"942 497 LINE",
"942 500 LINE",
"932 506 LINE",
"930 514 LINE",
"936 530 LINE",
"942 534 LINE",
"944 543 LINE",
"948 549 LINE",
"950 559 LINE",
"955 559 LINE",
"959 565 LINE",
"969 570 LINE",
"973 574 LINE",
"977 582 LINE",
"994 598 LINE",
"1008 607 LINE",
"1029 621 LINE",
"1045 633 LINE",
"1055 644 OFFCURVE",
"1066 656 OFFCURVE",
"1076 668 CURVE",
"1090 689 LINE",
"1095 701 OFFCURVE",
"1101 712 OFFCURVE",
"1107 724 CURVE",
"1111 740 LINE",
"1115 745 LINE",
"1115 753 LINE",
"1115 761 LINE",
"1115 765 LINE",
"1109 765 LINE",
"1101 759 LINE",
"1093 757 LINE",
"1086 755 LINE",
"1082 755 OFFCURVE",
"1076 755 OFFCURVE",
"1072 755 CURVE",
"1066 753 LINE",
"1058 753 LINE",
"1045 749 LINE",
"1029 747 LINE",
"1016 743 LINE",
"1008 743 LINE",
"1002 749 LINE",
"1000 755 LINE",
"996 757 OFFCURVE",
"992 761 OFFCURVE",
"989 763 CURVE",
"996 765 LINE",
"996 771 LINE",
"992 775 LINE",
"985 778 LINE",
"977 786 OFFCURVE",
"971 794 OFFCURVE",
"963 802 CURVE",
"944 817 LINE",
"936 825 LINE",
"932 839 LINE",
"924 856 LINE",
"920 860 OFFCURVE",
"915 862 OFFCURVE",
"911 866 CURVE",
"907 883 LINE",
"905 899 LINE",
"909 901 LINE",
"905 914 LINE",
"903 918 LINE",
"887 932 LINE",
"887 942 LINE",
"891 944 LINE",
"880 961 LINE",
"876 969 LINE",
"872 977 LINE",
"864 1000 LINE",
"856 1015 LINE",
"852 1031 LINE",
"854 1033 LINE",
"862 1012 LINE",
"866 1008 OFFCURVE",
"868 1004 OFFCURVE",
"872 1000 CURVE",
"878 1000 LINE",
"882 1008 LINE",
"885 1017 LINE",
"889 1023 LINE",
"889 1021 LINE",
"887 1015 LINE",
"885 1010 LINE",
"884 1002 LINE",
"891 1002 LINE",
"895 996 OFFCURVE",
"901 988 OFFCURVE",
"905 980 CURVE",
"909 969 LINE",
"913 965 LINE",
"917 957 LINE",
"915 953 LINE",
"919 946 LINE",
"926 942 LINE",
"932 936 LINE",
"940 920 LINE",
"938 912 LINE",
"940 903 LINE",
"950 889 LINE",
"955 887 LINE",
"965 877 LINE",
"969 866 LINE",
"977 848 LINE",
"985 842 LINE",
"987 837 LINE",
"990 833 LINE",
"992 827 LINE",
"992 821 LINE",
"990 819 LINE",
"992 813 LINE",
"989 813 LINE",
"992 808 LINE",
"994 796 LINE",
"996 792 LINE",
"996 784 LINE",
"1000 776 LINE",
"1010 775 LINE",
"1016 776 LINE",
"1023 776 LINE",
"1025 780 LINE",
"1029 782 LINE",
"1033 786 LINE",
"1037 786 LINE",
"1051 786 LINE",
"1060 788 LINE",
"1070 794 LINE",
"1074 794 LINE",
"1080 794 LINE",
"1093 804 LINE",
"1117 811 LINE",
"1132 817 LINE",
"1132 823 LINE",
"1134 829 LINE",
"1146 833 LINE",
"1154 833 LINE",
"1163 839 LINE",
"1161 835 LINE",
"1169 839 LINE",
"1169 844 LINE",
"1175 848 LINE",
"1185 848 LINE",
"1189 852 LINE",
"1191 860 LINE",
"1200 866 LINE",
"1202 866 OFFCURVE",
"1204 866 OFFCURVE",
"1206 866 CURVE",
"1208 868 LINE",
"1206 877 LINE",
"1208 885 LINE",
"1210 889 LINE",
"1216 889 LINE",
"1222 899 LINE",
"1228 905 LINE",
"1231 911 OFFCURVE",
"1233 914 OFFCURVE",
"1235 918 CURVE",
"1235 920 OFFCURVE",
"1235 920 OFFCURVE",
"1235 922 CURVE",
"1229 924 LINE",
"1226 930 OFFCURVE",
"1222 934 OFFCURVE",
"1218 938 CURVE",
"1210 940 LINE",
"1200 942 LINE",
"1193 947 LINE",
"1187 957 LINE",
"1185 969 LINE",
"1187 971 LINE",
"1189 977 LINE",
"1187 979 LINE",
"1183 973 LINE",
"1173 963 OFFCURVE",
"1163 953 OFFCURVE",
"1154 944 CURVE",
"1146 944 OFFCURVE",
"1140 944 OFFCURVE",
"1132 944 CURVE",
"1121 942 LINE",
"1121 946 LINE",
"1119 946 LINE",
"1117 951 LINE",
"1121 959 LINE",
"1121 967 LINE",
"1117 971 LINE",
"1113 969 LINE",
"1109 961 LINE",
"1111 951 LINE",
"1109 955 LINE",
"1107 959 LINE",
"1103 963 LINE",
"1101 967 LINE",
"1103 971 LINE",
"1103 977 LINE",
"1093 982 LINE",
"1091 988 LINE",
"1084 992 LINE",
"1080 1000 OFFCURVE",
"1078 1008 OFFCURVE",
"1074 1015 CURVE",
"1076 1019 LINE",
"1072 1025 LINE",
"1080 1025 LINE",
"1086 1031 LINE",
"1093 1025 LINE",
"1101 1029 LINE",
"1111 1010 LINE",
"1121 996 LINE",
"1134 992 LINE",
"1150 980 LINE",
"1167 977 LINE",
"1181 984 LINE",
"1193 986 LINE",
"1200 984 LINE",
"1206 967 LINE",
"1222 963 LINE",
"1235 961 OFFCURVE",
"1251 959 OFFCURVE",
"1264 957 CURVE",
"1284 961 LINE",
"1307 963 LINE",
"1332 967 LINE",
"1344 957 LINE",
"1350 947 LINE",
"1360 946 LINE",
"1377 934 LINE",
"1379 930 LINE",
"1373 924 LINE",
"1393 909 LINE",
"1402 909 LINE",
"1422 918 LINE",
"1426 905 LINE",
"1428 887 LINE",
"1433 872 OFFCURVE",
"1437 856 OFFCURVE",
"1441 841 CURVE",
"1455 821 LINE",
"1457 811 LINE",
"1461 794 LINE",
"1468 780 LINE",
"1474 775 LINE",
"1478 763 OFFCURVE",
"1482 751 OFFCURVE",
"1486 740 CURVE",
"1500 728 LINE",
"1505 734 LINE",
"1507 743 LINE",
"1519 749 LINE",
"1515 753 LINE",
"1521 765 LINE",
"1529 767 LINE",
"1529 792 LINE",
"1535 808 LINE",
"1533 819 LINE",
"1529 839 LINE",
"1533 850 LINE",
"1538 852 LINE",
"1550 860 LINE",
"1556 864 LINE",
"1556 866 OFFCURVE",
"1556 868 OFFCURVE",
"1556 870 CURVE",
"1571 877 LINE",
"1579 889 LINE",
"1591 909 LINE",
"1606 922 LINE",
"1612 932 LINE",
"1610 942 LINE",
"1624 947 LINE",
"1632 949 LINE",
"1632 955 LINE",
"1636 955 LINE",
"1639 955 LINE",
"1641 959 LINE",
"1647 957 LINE",
"1649 967 LINE",
"1647 973 LINE",
"1657 975 LINE",
"1663 967 LINE",
"1667 961 LINE",
"1669 953 LINE",
"1672 947 LINE",
"1682 936 LINE",
"1688 936 LINE",
"1688 930 LINE",
"1698 914 LINE",
"1702 901 LINE",
"1700 881 LINE",
"1707 879 LINE",
"1713 879 LINE",
"1723 893 LINE",
"1729 903 LINE",
"1735 891 LINE",
"1739 874 LINE",
"1742 858 LINE",
"1746 852 LINE",
"1746 837 LINE",
"1750 829 LINE",
"1748 817 LINE",
"1750 808 LINE",
"1748 792 LINE",
"1746 782 LINE",
"1748 775 LINE",
"1750 784 LINE",
"1754 780 OFFCURVE",
"1756 776 OFFCURVE",
"1760 773 CURVE",
"1762 765 LINE",
"1766 761 LINE",
"1768 757 LINE",
"1766 745 LINE",
"1768 745 LINE",
"1768 734 LINE",
"1772 726 LINE",
"1772 718 LINE",
"1781 710 LINE",
"1789 703 LINE",
"1795 707 LINE",
"1795 710 LINE",
"1793 722 LINE",
"1791 724 LINE",
"1791 732 LINE",
"1791 736 LINE",
"1793 743 LINE",
"1793 753 LINE",
"1789 761 LINE",
"1785 769 LINE",
"1783 769 LINE",
"1779 775 LINE",
"1774 775 LINE",
"1768 780 LINE",
"1766 792 LINE",
"1762 804 LINE",
"1756 802 LINE",
"1756 811 LINE",
"1758 823 OFFCURVE",
"1760 837 OFFCURVE",
"1762 848 CURVE",
"1762 864 LINE",
"1770 866 LINE",
"1770 854 LINE",
"1777 856 LINE",
"1785 852 LINE",
"1789 839 LINE",
"1793 833 LINE",
"1801 833 LINE",
"1807 827 LINE",
"1805 815 LINE",
"1808 808 LINE",
"1818 825 LINE",
"1824 841 LINE",
"1832 856 LINE",
"1838 868 LINE",
"1838 893 LINE",
"1832 918 LINE",
"1826 928 LINE",
"1818 934 LINE",
"1812 944 OFFCURVE",
"1807 953 OFFCURVE",
"1801 963 CURVE",
"1801 973 LINE",
"1805 988 LINE",
"1812 1004 LINE",
"1814 1008 LINE",
"1824 1008 LINE",
"1824 1002 LINE",
"1826 992 LINE",
"1830 994 LINE",
"1830 1010 LINE",
"1836 1015 LINE",
"1843 1027 LINE",
"1845 1037 LINE",
"1849 1033 LINE",
"1851 1041 LINE",
"1857 1047 LINE",
"1861 1062 LINE",
"1865 1080 LINE",
"1865 1099 LINE",
"1863 1111 OFFCURVE",
"1863 1124 OFFCURVE",
"1861 1136 CURVE",
"1863 1140 LINE",
"1861 1148 OFFCURVE",
"1859 1155 OFFCURVE",
"1857 1163 CURVE",
"1853 1165 LINE",
"1849 1171 LINE",
"1849 1177 LINE",
"1845 1186 LINE",
"1842 1192 OFFCURVE",
"1836 1198 OFFCURVE",
"1832 1204 CURVE SMOOTH",
"1824 1216 LINE",
"1816 1220 LINE",
"1814 1229 LINE",
"1814 1239 LINE",
"1812 1247 LINE",
"1816 1254 LINE",
"1812 1260 LINE",
"1810 1258 LINE",
"1805 1260 LINE",
"1805 1249 LINE",
"1799 1251 LINE",
"1795 1256 LINE",
"1791 1256 LINE",
"1785 1264 LINE",
"1785 1272 LINE",
"1787 1274 LINE",
"1785 1284 LINE",
"1785 1295 LINE",
"1785 1303 LINE",
"1789 1299 LINE",
"1791 1289 LINE",
"1795 1286 LINE",
"1797 1278 LINE",
"1799 1284 LINE",
"1799 1291 LINE",
"1801 1299 LINE",
"1805 1297 LINE",
"1807 1297 LINE",
"1807 1295 LINE",
"1810 1287 LINE",
"1812 1286 LINE",
"1812 1284 LINE",
"1814 1278 LINE",
"1814 1276 LINE",
"1816 1276 LINE",
"1818 1274 LINE",
"1818 1276 LINE",
"1818 1278 LINE",
"1820 1278 LINE",
"1828 1272 LINE",
"1828 1268 LINE",
"1836 1256 LINE",
"1840 1247 LINE",
"1843 1241 LINE",
"1845 1245 LINE",
"1845 1253 LINE",
"1845 1258 LINE",
"1843 1266 LINE",
"1836 1280 LINE",
"1832 1287 LINE",
"1822 1299 LINE",
"1818 1303 LINE",
"1816 1303 LINE",
"1816 1305 LINE",
"1812 1311 LINE",
"1810 1315 LINE",
"1810 1319 LINE SMOOTH",
"1810 1321 OFFCURVE",
"1808 1324 OFFCURVE",
"1808 1326 CURVE SMOOTH",
"1808 1330 LINE",
"1803 1338 LINE",
"1801 1340 OFFCURVE",
"1801 1344 OFFCURVE",
"1799 1348 CURVE",
"1799 1348 LINE",
"1797 1352 LINE",
"1793 1363 LINE",
"1797 1359 LINE",
"1797 1361 LINE",
"1797 1360 LINE",
"1723 1483 OFFCURVE",
"1618 1587 OFFCURVE",
"1494 1660 CURVE"
);
},
{
closed = 1;
nodes = (
"635 1161 LINE",
"639 1159 LINE",
"646 1153 LINE",
"650 1159 LINE",
"650 1163 LINE",
"650 1163 LINE",
"658 1173 LINE",
"650 1173 OFFCURVE",
"645 1173 OFFCURVE",
"637 1173 CURVE",
"623 1177 LINE",
"619 1171 LINE"
);
},
{
closed = 1;
nodes = (
"1097 1544 LINE",
"1099 1538 LINE",
"1113 1536 LINE",
"1115 1532 LINE",
"1140 1532 LINE",
"1144 1534 LINE",
"1128 1542 LINE",
"1124 1550 LINE",
"1136 1560 LINE",
"1144 1569 LINE",
"1165 1575 LINE",
"1177 1579 OFFCURVE",
"1191 1583 OFFCURVE",
"1204 1587 CURVE",
"1206 1591 LINE",
"1200 1595 LINE",
"1189 1593 LINE",
"1179 1589 LINE",
"1158 1587 LINE",
"1146 1583 OFFCURVE",
"1134 1579 OFFCURVE",
"1123 1575 CURVE",
"1124 1571 LINE",
"1109 1563 LINE",
"1117 1561 LINE",
"1103 1554 LINE",
"1105 1546 LINE"
);
},
{
closed = 1;
nodes = (
"600 1458 LINE",
"590 1460 LINE",
"586 1462 LINE",
"575 1455 LINE",
"563 1445 LINE",
"563 1439 LINE",
"555 1429 LINE",
"563 1433 LINE",
"563 1429 LINE",
"557 1425 LINE",
"557 1422 LINE",
"565 1418 LINE",
"565 1410 LINE",
"559 1404 LINE",
"549 1408 LINE",
"544 1400 LINE",
"544 1392 LINE",
"534 1391 LINE",
"534 1385 LINE",
"545 1379 LINE",
"538 1379 LINE",
"518 1371 LINE",
"520 1367 LINE",
"528 1369 LINE",
"534 1365 LINE",
"542 1369 LINE",
"545 1367 LINE",
"561 1367 LINE",
"573 1363 LINE",
"584 1367 LINE",
"584 1375 LINE",
"590 1377 LINE",
"590 1377 LINE",
"596 1385 LINE",
"586 1389 LINE",
"586 1394 LINE",
"590 1408 LINE",
"586 1412 LINE",
"588 1427 LINE",
"580 1431 LINE",
"594 1439 LINE",
"602 1447 LINE",
"594 1449 LINE",
"584 1449 LINE"
);
},
{
closed = 1;
nodes = (
"557 1546 LINE",
"561 1542 LINE",
"571 1542 OFFCURVE",
"578 1542 OFFCURVE",
"586 1542 CURVE",
"600 1546 LINE",
"602 1552 LINE",
"610 1558 LINE",
"604 1561 LINE",
"592 1560 LINE",
"590 1565 LINE",
"578 1563 LINE",
"580 1573 LINE",
"575 1575 LINE",
"565 1571 LINE",
"569 1565 LINE",
"565 1563 LINE",
"557 1565 LINE",
"559 1556 LINE",
"551 1556 LINE"
);
},
{
closed = 1;
nodes = (
"509 1394 LINE",
"526 1398 LINE",
"538 1406 LINE",
"542 1414 LINE",
"549 1420 LINE",
"547 1429 LINE",
"542 1431 LINE",
"534 1427 OFFCURVE",
"526 1424 OFFCURVE",
"518 1422 CURVE",
"512 1410 LINE",
"501 1400 LINE"
);
},
{
closed = 1;
nodes = (
"1093 401 LINE",
"1091 415 LINE",
"1088 423 LINE",
"1084 429 LINE",
"1080 434 LINE",
"1074 429 LINE",
"1074 421 LINE",
"1066 413 LINE",
"1060 415 LINE",
"1062 409 LINE",
"1058 403 LINE",
"1047 396 LINE",
"1039 390 LINE",
"1033 390 LINE",
"1027 388 LINE",
"1020 386 LINE",
"1012 386 LINE",
"1010 378 LINE",
"1004 372 LINE",
"1006 363 LINE",
"1008 355 LINE",
"1010 349 LINE",
"1008 341 LINE",
"1002 333 LINE",
"1002 330 LINE",
"996 328 LINE",
"994 320 LINE",
"996 312 LINE",
"1000 304 LINE",
"1002 295 LINE",
"1006 289 LINE",
"1012 287 OFFCURVE",
"1018 285 OFFCURVE",
"1023 283 CURVE",
"1035 287 LINE",
"1047 289 LINE",
"1055 302 LINE",
"1062 324 OFFCURVE",
"1072 343 OFFCURVE",
"1082 365 CURVE",
"1082 374 LINE",
"1086 376 LINE",
"1088 382 LINE",
"1086 390 LINE",
"1090 394 LINE",
"1093 386 LINE",
"1095 390 LINE",
"1095 390 LINE",
"1097 396 LINE"
);
},
{
closed = 1;
nodes = (
"1550 743 LINE",
"1544 753 LINE",
"1535 761 LINE",
"1529 736 LINE",
"1531 714 LINE",
"1536 703 LINE",
"1548 708 LINE",
"1554 714 LINE",
"1556 730 LINE"
);
},
{
closed = 1;
nodes = (
"1793 605 LINE",
"1797 619 OFFCURVE",
"1799 631 OFFCURVE",
"1803 644 CURVE",
"1801 652 LINE",
"1795 650 LINE",
"1793 656 LINE",
"1793 666 LINE",
"1791 666 LINE",
"1787 670 LINE",
"1791 683 LINE",
"1785 687 LINE",
"1781 697 LINE",
"1775 705 LINE",
"1766 703 LINE",
"1758 714 LINE",
"1754 718 LINE",
"1746 726 LINE",
"1739 738 LINE",
"1723 736 LINE",
"1717 734 LINE",
"1717 726 LINE",
"1727 712 LINE",
"1735 707 LINE",
"1739 695 LINE",
"1746 689 LINE",
"1750 681 LINE",
"1752 670 LINE",
"1760 660 LINE",
"1764 642 LINE",
"1766 633 LINE",
"1770 625 LINE",
"1772 617 LINE",
"1781 611 LINE",
"1785 602 LINE"
);
},
{
closed = 1;
nodes = (
"1843 607 LINE",
"1836 605 LINE",
"1836 613 LINE",
"1826 613 LINE",
"1824 607 LINE",
"1812 603 LINE",
"1812 607 LINE",
"1810 607 LINE",
"1807 609 LINE",
"1797 605 LINE",
"1789 590 LINE",
"1795 592 LINE",
"1795 586 LINE",
"1807 586 LINE",
"1810 590 LINE",
"1814 592 LINE",
"1820 590 LINE",
"1826 590 LINE",
"1832 592 LINE",
"1838 596 LINE",
"1842 594 LINE",
"1847 603 LINE"
);
},
{
closed = 1;
nodes = (
"1859 611 LINE",
"1859 613 LINE",
"1857 607 LINE",
"1855 605 LINE",
"1851 598 LINE",
"1855 600 LINE SMOOTH",
"1859 602 OFFCURVE",
"1861 605 OFFCURVE",
"1865 609 CURVE",
"1863 615 LINE"
);
},
{
closed = 1;
nodes = (
"1894 811 LINE",
"1890 813 LINE",
"1890 819 LINE",
"1888 825 LINE",
"1886 823 LINE",
"1884 809 LINE",
"1880 796 LINE",
"1875 784 LINE",
"1871 775 OFFCURVE",
"1867 763 OFFCURVE",
"1863 753 CURVE",
"1855 745 LINE",
"1851 742 LINE",
"1849 728 LINE",
"1843 722 LINE",
"1840 724 LINE",
"1834 712 LINE",
"1832 699 LINE",
"1832 687 LINE",
"1834 677 LINE",
"1836 675 LINE",
"1834 658 LINE",
"1840 660 LINE",
"1843 662 LINE",
"1843 658 LINE",
"1853 666 LINE",
"1855 664 LINE",
"1859 666 LINE",
"1859 658 LINE",
"1867 668 LINE",
"1867 664 LINE",
"1873 687 LINE",
"1875 701 LINE",
"1880 714 LINE",
"1882 726 LINE",
"1882 734 LINE",
"1888 740 LINE",
"1884 749 LINE",
"1886 757 LINE",
"1884 769 LINE",
"1888 784 LINE",
"1892 792 LINE",
"1892 798 LINE",
"1896 802 LINE",
"1896 802 LINE",
"1898 809 LINE"
);
},
{
closed = 1;
nodes = (
"1898 893 LINE",
"1896 877 LINE",
"1894 866 LINE",
"1890 854 LINE",
"1888 842 LINE",
"1894 862 LINE",
"1896 874 LINE",
"1900 881 LINE"
);
},
{
closed = 1;
nodes = (
"1908 924 LINE",
"1908 932 LINE",
"1906 934 LINE",
"1906 942 LINE",
"1900 946 LINE",
"1898 942 LINE",
"1896 942 LINE",
"1894 951 LINE",
"1894 963 LINE",
"1896 971 LINE",
"1896 984 LINE",
"1894 994 LINE",
"1894 1000 LINE",
"1894 1004 LINE",
"1894 1000 LINE",
"1890 1002 LINE",
"1888 1000 LINE",
"1890 988 OFFCURVE",
"1890 975 OFFCURVE",
"1892 963 CURVE",
"1890 967 LINE",
"1892 953 LINE",
"1894 947 LINE",
"1898 942 LINE",
"1898 947 LINE",
"1900 946 LINE",
"1900 942 LINE",
"1900 936 LINE",
"1902 934 LINE",
"1904 940 LINE",
"1908 934 LINE",
"1908 940 LINE",
"1904 928 LINE"
);
},
{
closed = 1;
nodes = (
"1915 911 LINE",
"1913 893 LINE",
"1913 903 LINE",
"1912 901 LINE",
"1912 891 LINE",
"1909 887 OFFCURVE",
"1909 885 OFFCURVE",
"1909 881 CURVE",
"1912 874 LINE",
"1913 879 LINE",
"1913 889 LINE",
"1915 897 LINE"
);
},
{
closed = 1;
nodes = (
"1921 930 LINE",
"1919 934 LINE",
"1915 930 LINE",
"1917 920 LINE",
"1917 914 LINE",
"1917 914 LINE",
"1917 907 LINE",
"1917 907 LINE",
"1917 897 LINE",
"1919 903 LINE",
"1917 911 LINE",
"1917 914 LINE",
"1917 914 LINE",
"1923 914 LINE"
);
},
{
closed = 1;
nodes = (
"1159 1177 LINE",
"1150 1185 LINE",
"1144 1194 LINE",
"1134 1190 LINE",
"1134 1181 LINE",
"1130 1188 LINE",
"1130 1192 LINE",
"1132 1198 LINE",
"1130 1202 LINE",
"1115 1206 LINE",
"1109 1218 LINE",
"1101 1221 LINE",
"1101 1225 LINE",
"1113 1223 LINE",
"1113 1233 LINE",
"1123 1235 LINE",
"1134 1233 LINE",
"1136 1247 LINE",
"1134 1254 LINE",
"1123 1254 LINE",
"1111 1258 LINE",
"1097 1253 LINE",
"1086 1249 LINE",
"1080 1241 LINE",
"1068 1239 LINE",
"1056 1225 LINE",
"1068 1212 LINE",
"1066 1204 LINE",
"1072 1196 OFFCURVE",
"1080 1188 OFFCURVE",
"1088 1181 CURVE",
"1093 1171 LINE",
"1099 1171 LINE",
"1103 1167 LINE",
"1093 1165 LINE",
"1091 1155 LINE",
"1090 1151 LINE",
"1086 1148 LINE",
"1086 1142 LINE",
"1090 1132 LINE",
"1103 1130 LINE",
"1113 1122 LINE",
"1132 1120 LINE",
"1154 1124 LINE",
"1156 1128 LINE",
"1154 1138 LINE",
"1156 1151 LINE",
"1146 1155 LINE",
"1150 1165 LINE",
"1142 1165 LINE",
"1144 1177 LINE",
"1148 1173 LINE"
);
}
);
width = 2098;
}
);
unicode = F034;
},
{
glyphname = appbuilder_createform;
lastChange = "2016-08-16 00:01:46 +0000";
layers = (
{
layerId = "04DF3276-53F3-45FA-B502-39A9AACD583E";
paths = (
{
closed = 1;
nodes = (
"771 326 OFFCURVE",
"753 307 OFFCURVE",
"731 307 CURVE SMOOTH",
"649 307 LINE SMOOTH",
"627 307 OFFCURVE",
"608 326 OFFCURVE",
"608 348 CURVE SMOOTH",
"608 525 LINE",
"432 525 LINE SMOOTH",
"409 525 OFFCURVE",
"391 543 OFFCURVE",
"391 565 CURVE SMOOTH",
"391 647 LINE SMOOTH",
"391 669 OFFCURVE",
"409 688 OFFCURVE",
"432 688 CURVE SMOOTH",
"608 688 LINE",
"608 864 LINE SMOOTH",
"608 887 OFFCURVE",
"627 905 OFFCURVE",
"649 905 CURVE SMOOTH",
"731 905 LINE SMOOTH",
"753 905 OFFCURVE",
"771 887 OFFCURVE",
"771 864 CURVE SMOOTH",
"771 688 LINE",
"948 688 LINE SMOOTH",
"970 688 OFFCURVE",
"988 669 OFFCURVE",
"988 647 CURVE SMOOTH",
"988 565 LINE SMOOTH",
"988 543 OFFCURVE",
"970 525 OFFCURVE",
"948 525 CURVE SMOOTH",
"771 525 LINE",
"771 348 LINE SMOOTH"
);
},
{
closed = 1;
nodes = (
"1408 61 LINE",
"128 61 LINE",
"128 1597 LINE",
"896 1597 LINE",
"896 1181 LINE SMOOTH",
"896 1128 OFFCURVE",
"939 1085 OFFCURVE",
"992 1085 CURVE SMOOTH",
"1408 1085 LINE"
);
},
{
closed = 1;
nodes = (
"1024 1589 LINE",
"1041 1583 OFFCURVE",
"1058 1574 OFFCURVE",
"1065 1567 CURVE SMOOTH",
"1378 1254 LINE SMOOTH",
"1385 1247 OFFCURVE",
"1394 1230 OFFCURVE",
"1400 1213 CURVE",
"1024 1213 LINE"
);
},
{
closed = 1;
nodes = (
"1156 1657 LINE SMOOTH",
"1119 1694 OFFCURVE",
"1045 1725 OFFCURVE",
"992 1725 CURVE SMOOTH",
"96 1725 LINE SMOOTH",
"43 1725 OFFCURVE",
"0 1682 OFFCURVE",
"0 1629 CURVE SMOOTH",
"0 29 LINE SMOOTH",
"0 -24 OFFCURVE",
"43 -67 OFFCURVE",
"96 -67 CURVE SMOOTH",
"1440 -67 LINE SMOOTH",
"1493 -67 OFFCURVE",
"1536 -24 OFFCURVE",
"1536 29 CURVE SMOOTH",
"1536 1181 LINE SMOOTH",
"1536 1234 OFFCURVE",
"1505 1308 OFFCURVE",
"1468 1345 CURVE SMOOTH"
);
}
);
width = 1536;
}
);
unicode = F035;
},
{
glyphname = appbuilder_updateform;
lastChange = "2016-08-16 00:03:35 +0000";
layers = (
{
layerId = "04DF3276-53F3-45FA-B502-39A9AACD583E";
paths = (
{
closed = 1;
nodes = (
"733 1147 OFFCURVE",
"730 1146 OFFCURVE",
"728 1144 CURVE SMOOTH",
"438 921 LINE",
"435 919 OFFCURVE",
"433 915 OFFCURVE",
"433 912 CURVE SMOOTH",
"433 908 OFFCURVE",
"435 905 OFFCURVE",
"438 903 CURVE",
"728 679 LINE SMOOTH",
"730 678 OFFCURVE",
"733 677 OFFCURVE",
"735 677 CURVE SMOOTH",
"738 677 OFFCURVE",
"740 678 OFFCURVE",
"742 679 CURVE SMOOTH",
"747 682 OFFCURVE",
"748 688 OFFCURVE",
"746 693 CURVE SMOOTH",
"692 831 LINE",
"818 831 LINE SMOOTH",
"912 831 OFFCURVE",
"988 755 OFFCURVE",
"988 661 CURVE SMOOTH",
"988 620 LINE SMOOTH",
"988 526 OFFCURVE",
"912 449 OFFCURVE",
"818 449 CURVE SMOOTH",
"372 449 LINE",
"372 304 LINE",
"818 304 LINE SMOOTH",
"992 304 OFFCURVE",
"1134 446 OFFCURVE",
"1134 620 CURVE SMOOTH",
"1134 661 LINE SMOOTH",
"1134 835 OFFCURVE",
"992 977 OFFCURVE",
"818 977 CURVE SMOOTH",
"696 977 LINE",
"696 977 LINE",
"693 977 OFFCURVE",
"691 977 OFFCURVE",
"688 977 CURVE",
"688 983 LINE",
"746 1131 LINE SMOOTH",
"748 1136 OFFCURVE",
"747 1141 OFFCURVE",
"742 1144 CURVE SMOOTH",
"740 1146 OFFCURVE",
"738 1147 OFFCURVE",
"735 1147 CURVE SMOOTH"
);
},
{
closed = 1;
nodes = (
"1024 1589 LINE",
"1041 1583 OFFCURVE",
"1058 1574 OFFCURVE",
"1065 1567 CURVE SMOOTH",
"1378 1254 LINE SMOOTH",
"1385 1247 OFFCURVE",
"1394 1230 OFFCURVE",
"1400 1213 CURVE",
"1024 1213 LINE"
);
},
{
closed = 1;
nodes = (
"128 1597 LINE",
"896 1597 LINE",
"896 1181 LINE SMOOTH",
"896 1128 OFFCURVE",
"939 1085 OFFCURVE",
"992 1085 CURVE SMOOTH",
"1408 1085 LINE",
"1408 61 LINE",
"128 61 LINE"
);
},
{
closed = 1;
nodes = (
"96 1725 LINE SMOOTH",
"43 1725 OFFCURVE",
"0 1682 OFFCURVE",
"0 1629 CURVE SMOOTH",
"0 29 LINE SMOOTH",
"0 -24 OFFCURVE",
"43 -67 OFFCURVE",
"96 -67 CURVE SMOOTH",
"1440 -67 LINE SMOOTH",
"1493 -67 OFFCURVE",
"1536 -24 OFFCURVE",
"1536 29 CURVE SMOOTH",
"1536 1181 LINE SMOOTH",
"1536 1234 OFFCURVE",
"1505 1308 OFFCURVE",
"1468 1345 CURVE SMOOTH",
"1156 1657 LINE SMOOTH",
"1119 1694 OFFCURVE",
"1045 1725 OFFCURVE",
"992 1725 CURVE SMOOTH"
);
}
);
width = 1536;
}
);
unicode = F036;
},
{
glyphname = appbuilder_completeform;
lastChange = "2019-02-25 23:04:29 +0000";
layers = (
{
layerId = "04DF3276-53F3-45FA-B502-39A9AACD583E";
paths = (
{
closed = 1;
nodes = (
"1024 1589 LINE",
"1041 1583 OFFCURVE",
"1058 1574 OFFCURVE",
"1065 1567 CURVE SMOOTH",
"1378 1254 LINE SMOOTH",
"1385 1247 OFFCURVE",
"1394 1230 OFFCURVE",
"1400 1213 CURVE",
"1024 1213 LINE"
);
},
{
closed = 1;
nodes = (
"128 1597 LINE",
"896 1597 LINE",
"896 1181 LINE SMOOTH",
"896 1128 OFFCURVE",
"939 1085 OFFCURVE",
"992 1085 CURVE SMOOTH",
"1408 1085 LINE",
"1408 61 LINE",
"128 61 LINE"
);
},
{
closed = 1;
nodes = (
"96 1725 LINE SMOOTH",
"43 1725 OFFCURVE",
"0 1682 OFFCURVE",
"0 1629 CURVE SMOOTH",
"0 29 LINE SMOOTH",
"0 -24 OFFCURVE",
"43 -67 OFFCURVE",
"96 -67 CURVE SMOOTH",
"1440 -67 LINE SMOOTH",
"1493 -67 OFFCURVE",
"1536 -24 OFFCURVE",
"1536 29 CURVE SMOOTH",
"1536 1181 LINE SMOOTH",
"1536 1234 OFFCURVE",
"1505 1308 OFFCURVE",
"1468 1345 CURVE SMOOTH",
"1156 1657 LINE SMOOTH",
"1119 1694 OFFCURVE",
"1045 1725 OFFCURVE",
"992 1725 CURVE SMOOTH"
);
},
{
closed = 1;
nodes = (
"886 768 OFFCURVE",
"876 764 OFFCURVE",
"869 757 CURVE SMOOTH",
"609 497 LINE",
"493 614 LINE SMOOTH",
"485 621 OFFCURVE",
"475 625 OFFCURVE",
"466 625 CURVE SMOOTH",
"456 625 OFFCURVE",
"446 621 OFFCURVE",
"439 614 CURVE SMOOTH",
"385 560 LINE SMOOTH",
"378 553 OFFCURVE",
"374 543 OFFCURVE",
"374 533 CURVE SMOOTH",
"374 523 OFFCURVE",
"378 513 OFFCURVE",
"385 506 CURVE SMOOTH",
"528 363 LINE",
"582 309 LINE SMOOTH",
"589 302 OFFCURVE",
"599 298 OFFCURVE",
"609 298 CURVE SMOOTH",
"619 298 OFFCURVE",
"629 302 OFFCURVE",
"636 309 CURVE SMOOTH",
"690 363 LINE",
"977 650 LINE SMOOTH",
"984 657 OFFCURVE",
"988 667 OFFCURVE",
"988 676 CURVE SMOOTH",
"988 686 OFFCURVE",
"984 696 OFFCURVE",
"977 703 CURVE SMOOTH",
"923 757 LINE SMOOTH",
"915 764 OFFCURVE",
"906 768 OFFCURVE",
"896 768 CURVE SMOOTH"
);
}
);
width = 1536;
}
);
unicode = F037;
},
{
glyphname = appbuilder_biometrics;
layers = (
{
layerId = "04DF3276-53F3-45FA-B502-39A9AACD583E";
paths = (
{
closed = 1;
nodes = (
"975 1725 LINE SMOOTH",
"962 1725 OFFCURVE",
"952 1715 OFFCURVE",
"952 1702 CURVE SMOOTH",
"952 1647 LINE SMOOTH",
"952 1634 OFFCURVE",
"941 1624 OFFCURVE",
"929 1624 CURVE SMOOTH",
"607 1624 LINE SMOOTH",
"595 1624 OFFCURVE",
"584 1634 OFFCURVE",
"584 1647 CURVE",
"584 1702 LINE",
"584 1715 OFFCURVE",
"574 1725 OFFCURVE",
"561 1725 CURVE SMOOTH",
"96 1725 LINE SMOOTH",
"43 1725 OFFCURVE",
"0 1682 OFFCURVE",
"0 1629 CURVE SMOOTH",
"0 29 LINE SMOOTH",
"0 -24 OFFCURVE",
"43 -67 OFFCURVE",
"96 -67 CURVE SMOOTH",
"1440 -67 LINE SMOOTH",
"1493 -67 OFFCURVE",
"1536 -24 OFFCURVE",
"1536 29 CURVE SMOOTH",
"1536 1629 LINE SMOOTH",
"1536 1682 OFFCURVE",
"1493 1725 OFFCURVE",
"1440 1725 CURVE SMOOTH"
);
},
{
closed = 1;
nodes = (
"128 61 LINE",
"128 1461 LINE",
"1408 1461 LINE",
"1408 61 LINE"
);
},
{
closed = 1;
nodes = (
"965 739 OFFCURVE",
"872 694 OFFCURVE",
"768 694 CURVE SMOOTH",
"664 694 OFFCURVE",
"571 739 OFFCURVE",
"507 811 CURVE",
"348 784 OFFCURVE",
"308 582 OFFCURVE",
"308 405 CURVE SMOOTH",
"308 300 OFFCURVE",
"377 215 OFFCURVE",
"461 215 CURVE SMOOTH",
"1075 215 LINE SMOOTH",
"1159 215 OFFCURVE",
"1228 300 OFFCURVE",
"1228 405 CURVE SMOOTH",
"1228 582 OFFCURVE",
"1188 784 OFFCURVE",
"1029 811 CURVE"
);
},
{
closed = 1;
nodes = (
"1044 1196 OFFCURVE",
"921 1320 OFFCURVE",
"768 1320 CURVE SMOOTH",
"615 1320 OFFCURVE",
"492 1196 OFFCURVE",
"492 1044 CURVE SMOOTH",
"492 891 OFFCURVE",
"615 767 OFFCURVE",
"768 767 CURVE SMOOTH",
"921 767 OFFCURVE",
"1044 891 OFFCURVE",
"1044 1044 CURVE SMOOTH"
);
}
